<?xml version="1.0" encoding="utf-8"?>
<!-- Generator: Adobe Illustrator 27.2.0, SVG Export Plug-In . SVG Version: 6.00 Build 0)  -->
<svg version="1.1" id="Capa_1" xmlns="http://www.w3.org/2000/svg" xmlns:xlink="http://www.w3.org/1999/xlink" x="0px" y="0px"
	 viewBox="0 0 465 153.1" style="enable-background:new 0 0 465 153.1;" xml:space="preserve">
<style type="text/css">
	.st0{fill:#FFFFFF;}
	.st1{fill:#E0EAEB;}
	.st2{opacity:0.95;}
	.st3{fill:#000516;}
	.st4{opacity:0.75;fill:url(#SVGID_1_);}
	.st5{filter:url(#Adobe_OpacityMaskFilter);}
	.st6{mask:url(#SVGID_00000134942491161817497280000009290983270119678096_);}
	.st7{filter:url(#Adobe_OpacityMaskFilter_00000150082160682256361290000010931505342004446364_);}
	.st8{fill:#FF009B;}
	.st9{filter:url(#Adobe_OpacityMaskFilter_00000180368946447839636100000004348877363249694888_);}
	.st10{mask:url(#SVGID_00000073715590795291817680000008623876672560117950_);}
	.st11{fill:#055FE0;}
	.st12{opacity:0.2;}
	.st13{fill:none;stroke:#EF8CB9;stroke-width:5;stroke-linecap:round;stroke-linejoin:round;}
	.st14{opacity:0.25;}
	.st15{fill:none;stroke:#ED77AC;stroke-width:4;stroke-linecap:round;stroke-linejoin:round;}
	.st16{opacity:0.3;}
	.st17{fill:none;stroke:#EA579A;stroke-width:3.15;stroke-linecap:round;stroke-linejoin:round;}
	.st18{fill:none;stroke:#E72E89;stroke-width:2.5;stroke-linecap:round;stroke-linejoin:round;}
	.st19{fill:none;stroke:#ED72A3;stroke-width:1.95;stroke-linecap:round;stroke-linejoin:round;}
	.st20{fill:none;stroke:#F199BB;stroke-width:1.25;stroke-linecap:round;stroke-linejoin:round;}
	.st21{fill:none;stroke:#F6BBD6;stroke-width:0.5;stroke-linecap:round;stroke-linejoin:round;}
	.st22{filter:url(#Adobe_OpacityMaskFilter_00000030464478871594521620000000073648410347083433_);}
	.st23{mask:url(#SVGID_00000145780499922580374000000012001530778439088283_);}
	.st24{fill:none;stroke:#90D2E5;stroke-width:5;stroke-linecap:round;stroke-linejoin:round;}
	.st25{fill:none;stroke:#75C9E0;stroke-width:4;stroke-linecap:round;stroke-linejoin:round;}
	.st26{fill:none;stroke:#00B3D3;stroke-width:3.15;stroke-linecap:round;stroke-linejoin:round;}
	.st27{fill:none;stroke:#00B3D3;stroke-width:2.5;stroke-linecap:round;stroke-linejoin:round;}
	.st28{fill:none;stroke:#68C6DE;stroke-width:1.95;stroke-linecap:round;stroke-linejoin:round;}
	.st29{fill:none;stroke:#A0D7E9;stroke-width:1.25;stroke-linecap:round;stroke-linejoin:round;}
	.st30{fill:none;stroke:#D0EAF4;stroke-width:0.5;stroke-linecap:round;stroke-linejoin:round;}
	.st31{fill:#232323;}
	.st32{fill:#262626;}
	.st33{fill:#282826;stroke:#282826;stroke-width:1.1034;stroke-miterlimit:10;}
	.st34{fill:#FFFFFF;stroke:#282826;stroke-width:1.7202;stroke-miterlimit:10;}
	.st35{fill:#25CEC9;}
	.st36{fill:#FFFF4A;}
	.st37{fill:#282826;stroke:#282826;stroke-width:1.4261;stroke-miterlimit:10;}
	.st38{fill:#FFFFFF;stroke:#282826;stroke-width:2.2234;stroke-miterlimit:10;}
	.st39{stroke:#CCCCCC;stroke-width:0.537;stroke-miterlimit:10;}
	.st40{fill:none;stroke:#000000;stroke-width:2.4846;stroke-miterlimit:10;}
	.st41{stroke:#CCCCCC;stroke-miterlimit:10;}
	.st42{fill:#F8F8F8;}
	.st43{fill:#212121;}
	.st44{fill:#5B5B5B;}
	.st45{fill:#DB0000;}
	.st46{fill:none;stroke:#DB0000;stroke-width:2.775;stroke-linecap:round;stroke-linejoin:round;stroke-miterlimit:10;}
</style>
<g>
	<path class="st43" d="M252.9,26c3,0,5.8,0,8.7,0c1.8,0,3,0.7,3.8,2.3c2.1,3.8,4.2,7.6,6.3,11.4c0.8,1.4,1.2,3,1.2,4.6
		c0,2.1,0,4.3,0,6.4c0,1.6-0.9,2.5-2.5,2.4c-1.3-0.1-2.1,0.1-2.6,1.6c-1,2.7-3.8,4.3-6.6,4.1c-3-0.2-5.4-2.1-6.3-4.9
		c-0.1-0.2-0.2-0.5-0.2-0.8c-7.7,0-15.3,0-23,0c-0.1,0.2-0.1,0.4-0.2,0.7c-0.9,3-3.6,5-6.7,5c-3,0-5.8-2-6.6-5
		c-0.2-0.6-0.4-0.7-1-0.7c-3.3,0-6.5,0-9.8,0c-1.3,0-1.7-0.4-1.7-1.8c0-2.4,0-4.7,0-7.1c0-0.3,0-0.6,0-1c-0.3,0-0.6,0-0.9,0
		c-2.9,0-5.9,0-8.8,0c-0.7,0-1.2-0.3-1.4-1c-0.1-0.6,0.1-1.1,0.7-1.4c0.3-0.1,0.7-0.2,1-0.2c1.3,0,2.6,0,4,0c3.7,0,7.4,0,11,0
		c0.3,0,0.6,0,0.9,0c0.7,0.1,1.1,0.7,1.1,1.4c-0.1,0.7-0.5,1.1-1.2,1.1c-1.2,0-2.4,0-3.7,0c0,2.4,0,4.8,0,7.2c0.2,0,0.4,0,0.7,0
		c2.8,0,5.5,0,8.3,0c0.5,0,0.8-0.1,0.9-0.7c0.9-3,3.6-5,6.7-5c3.1,0,5.8,2,6.7,5c0.1,0.4,0.2,0.7,0.8,0.7c5.8,0,11.6,0,17.4,0
		c0.2,0,0.3,0,0.5,0c0-11.1,0-22.1,0-33.2c-14,0-28,0-42,0c0,1.3,0,2.5,0,3.9c0.3,0,0.6,0,0.8,0c2.1,0,4.2,0,6.3,0
		c1,0,1.6,0.5,1.6,1.3c0,0.8-0.6,1.3-1.6,1.3c-5,0-9.9,0-14.9,0c-0.1,0-0.3,0-0.4,0c-0.7-0.1-1.2-0.6-1.2-1.2c0-0.7,0.5-1.2,1.3-1.3
		c1.5,0,3,0,4.5,0c0.3,0,0.6,0,1.1,0c0-1.3,0-2.5,0-3.7c0-2,0.8-2.8,2.8-2.8c13.9,0,27.7,0,41.6,0c2,0,2.8,0.8,2.8,2.9
		c0,2.5,0,4.9,0,7.4C252.9,25.3,252.9,25.6,252.9,26z M270.4,50.5c0-2.1,0.1-4.3,0-6.4c-0.1-1-0.3-2.2-0.8-3.1
		c-2.1-3.9-4.3-7.8-6.5-11.7c-0.3-0.6-0.7-0.8-1.3-0.8c-2.7,0-5.4,0-8.1,0c-0.2,0-0.5,0-0.7,0c0,7.4,0,14.7,0,22
		c1.6,0.1,1.6,0.1,2.2-1.3c1.1-2.7,3.6-4.4,6.5-4.4c2.8,0,5.4,1.8,6.4,4.4c0.6,1.4,0.6,1.4,2.1,1.3
		C270.2,50.6,270.3,50.6,270.4,50.5z M220.5,51.9c0,2.5,1.9,4.5,4.4,4.5c2.4,0,4.4-2,4.4-4.5c0-2.4-2-4.4-4.4-4.4
		C222.4,47.5,220.5,49.4,220.5,51.9z M257.2,51.9c0,2.5,1.9,4.5,4.4,4.5c2.4,0,4.4-2,4.4-4.4c0-2.5-1.9-4.5-4.4-4.5
		C259.2,47.5,257.2,49.4,257.2,51.9z"/>
	<path class="st43" d="M208.2,35c1.3,0,2.4,0,3.5,0c4.2,0,8.5,0,12.7,0c1.1,0,1.6,0.5,1.6,1.3c0,0.8-0.6,1.2-1.6,1.2
		c-7.3,0-14.6,0-21.9,0c-1,0-1.6-0.5-1.6-1.3c0-0.8,0.5-1.3,1.6-1.3c1,0,2,0,3.1,0c0-0.3,0-0.6,0-0.9c0-2,0-4.1,0-6.1
		c0-1,0.5-1.5,1.2-1.6c0.8,0,1.3,0.6,1.3,1.6C208.2,30.4,208.2,32.7,208.2,35z"/>
	<path class="st45" d="M193,30.9h8.6c0.7,0,1.3-0.6,1.3-1.3v0c0-0.7-0.6-1.3-1.3-1.3H193c-0.7,0-1.3,0.6-1.3,1.3v0
		C191.7,30.3,192.3,30.9,193,30.9z"/>
	<path class="st45" d="M212,40.8h-16.1c-0.7,0-1.3,0.6-1.3,1.3l0,0c0,0.7,0.6,1.3,1.3,1.3H212c0.7,0,1.3-0.6,1.3-1.3l0,0
		C213.3,41.4,212.7,40.8,212,40.8z"/>
	<path class="st45" d="M216.2,21.3h-16.1c-0.7,0-1.3,0.6-1.3,1.3v0c0,0.7,0.6,1.3,1.3,1.3h16.1c0.7,0,1.3-0.6,1.3-1.3v0
		C217.5,21.9,216.9,21.3,216.2,21.3z"/>
	<path class="st45" d="M224.8,35.1h-22.8c-0.7,0-1.3,0.6-1.3,1.3v0c0,0.7,0.6,1.3,1.3,1.3h22.8c0.7,0,1.3-0.6,1.3-1.3v0
		C226.1,35.6,225.5,35.1,224.8,35.1z"/>
</g>
<g>
	<path class="st43" d="M138.9,76.6V80h4.4v2h-4.4v3.5h4.9v2.1h-7.5v-13h7.5v2H138.9z"/>
	<path class="st43" d="M154.8,78.3c0.8,0.8,1.1,1.9,1.1,3.2v6h-2.6v-5.7c0-0.8-0.2-1.4-0.6-1.9s-1-0.7-1.7-0.7
		c-0.7,0-1.3,0.2-1.7,0.7c-0.4,0.4-0.6,1.1-0.6,1.9v5.7h-2.6V77.2h2.6v1.3c0.3-0.4,0.8-0.8,1.3-1c0.5-0.3,1.1-0.4,1.8-0.4
		C153.1,77.1,154.1,77.5,154.8,78.3z"/>
	<path class="st43" d="M162.7,85.1l2.6-7.9h2.8l-3.8,10.3h-3.2l-3.8-10.3h2.8L162.7,85.1z"/>
	<path class="st43" d="M173,74.6l-4.3,1.9v-1.9l4.3-2.2V74.6z M172.2,77.2v10.3h-2.6V77.2H172.2z"/>
	<path class="st43" d="M176.8,87c-0.8-0.4-1.4-1.1-1.9-1.9c-0.5-0.8-0.7-1.7-0.7-2.8c0-1.1,0.2-2,0.7-2.8s1.1-1.4,1.9-1.9
		c0.8-0.4,1.7-0.7,2.7-0.7s1.9,0.2,2.7,0.7c0.8,0.4,1.4,1.1,1.9,1.9c0.5,0.8,0.7,1.7,0.7,2.8c0,1-0.2,2-0.7,2.8
		c-0.5,0.8-1.1,1.4-1.9,1.9c-0.8,0.4-1.7,0.7-2.7,0.7C178.5,87.7,177.6,87.5,176.8,87z M180.8,85.1c0.4-0.2,0.7-0.6,1-1
		c0.2-0.5,0.4-1,0.4-1.7c0-0.7-0.1-1.2-0.4-1.7c-0.2-0.5-0.6-0.8-1-1c-0.4-0.2-0.8-0.4-1.3-0.4c-0.7,0-1.3,0.3-1.9,0.8
		c-0.5,0.5-0.8,1.3-0.8,2.3c0,1,0.2,1.7,0.7,2.3c0.5,0.5,1.1,0.8,1.8,0.8C179.9,85.5,180.4,85.3,180.8,85.1z"/>
	<path class="st43" d="M188.4,87.2c-0.7-0.3-1.2-0.7-1.6-1.2c-0.4-0.5-0.6-1.1-0.6-1.7h2.6c0,0.4,0.2,0.8,0.6,1
		c0.3,0.3,0.8,0.4,1.3,0.4c0.5,0,0.9-0.1,1.2-0.3c0.3-0.2,0.4-0.5,0.4-0.8c0-0.3-0.2-0.6-0.5-0.8c-0.3-0.2-0.9-0.4-1.6-0.5
		s-1.4-0.4-1.9-0.6c-0.5-0.2-0.9-0.5-1.2-0.9c-0.3-0.4-0.5-0.9-0.5-1.6c0-0.6,0.2-1.1,0.5-1.6c0.3-0.5,0.8-0.9,1.4-1.1
		s1.3-0.4,2.2-0.4c1.2,0,2.2,0.3,2.9,0.9c0.7,0.6,1.1,1.4,1.2,2.5h-2.5c0-0.4-0.2-0.8-0.5-1c-0.3-0.3-0.7-0.4-1.2-0.4
		c-0.5,0-0.8,0.1-1.1,0.3c-0.3,0.2-0.4,0.5-0.4,0.8c0,0.3,0.2,0.6,0.5,0.8c0.3,0.2,0.9,0.4,1.6,0.5c0.7,0.2,1.4,0.4,1.8,0.6
		c0.5,0.2,0.9,0.5,1.2,0.9c0.3,0.4,0.5,0.9,0.5,1.6c0,0.6-0.2,1.1-0.5,1.6c-0.3,0.5-0.8,0.8-1.4,1.1c-0.6,0.3-1.3,0.4-2.2,0.4
		C189.8,87.7,189.1,87.5,188.4,87.2z"/>
	<path class="st43" d="M201.8,79.6c0.4-0.8,1-1.4,1.7-1.9c0.7-0.4,1.5-0.6,2.4-0.6c0.8,0,1.4,0.2,2,0.5c0.6,0.3,1,0.7,1.4,1.2v-1.5
		h2.6v10.3h-2.6V86c-0.3,0.5-0.8,0.9-1.4,1.2c-0.6,0.3-1.3,0.5-2,0.5c-0.9,0-1.7-0.2-2.4-0.7c-0.7-0.4-1.3-1.1-1.7-1.9
		s-0.6-1.7-0.6-2.8C201.1,81.3,201.3,80.4,201.8,79.6z M208.9,80.8c-0.2-0.5-0.6-0.8-1-1c-0.4-0.2-0.9-0.4-1.4-0.4s-0.9,0.1-1.3,0.4
		c-0.4,0.2-0.7,0.6-1,1c-0.3,0.5-0.4,1-0.4,1.6s0.1,1.2,0.4,1.6c0.3,0.5,0.6,0.8,1,1.1c0.4,0.2,0.9,0.4,1.3,0.4
		c0.5,0,0.9-0.1,1.4-0.4c0.4-0.2,0.8-0.6,1-1s0.4-1,0.4-1.6C209.2,81.8,209.1,81.2,208.9,80.8z"/>
	<path class="st43" d="M228.2,74.6v2h-3.4v10.9h-2.6V76.6h-3.4v-2H228.2z"/>
	<path class="st43" d="M231.9,87c-0.8-0.4-1.4-1.1-1.9-1.9c-0.5-0.8-0.7-1.7-0.7-2.8c0-1.1,0.2-2,0.7-2.8s1.1-1.4,1.9-1.9
		c0.8-0.4,1.7-0.7,2.7-0.7s1.9,0.2,2.7,0.7c0.8,0.4,1.4,1.1,1.9,1.9c0.5,0.8,0.7,1.7,0.7,2.8c0,1-0.2,2-0.7,2.8
		c-0.5,0.8-1.1,1.4-1.9,1.9c-0.8,0.4-1.7,0.7-2.7,0.7C233.6,87.7,232.7,87.5,231.9,87z M235.9,85.1c0.4-0.2,0.7-0.6,1-1
		c0.2-0.5,0.4-1,0.4-1.7c0-0.7-0.1-1.2-0.4-1.7c-0.2-0.5-0.6-0.8-1-1c-0.4-0.2-0.8-0.4-1.3-0.4c-0.7,0-1.3,0.3-1.9,0.8
		c-0.5,0.5-0.8,1.3-0.8,2.3c0,1,0.2,1.7,0.7,2.3c0.5,0.5,1.1,0.8,1.8,0.8C235.1,85.5,235.5,85.3,235.9,85.1z"/>
	<path class="st43" d="M241.8,79.6c0.4-0.8,1-1.4,1.7-1.9c0.7-0.4,1.5-0.6,2.4-0.6c0.7,0,1.3,0.1,1.9,0.4c0.6,0.3,1.1,0.7,1.4,1.2
		v-4.9h2.6v13.7h-2.6V86c-0.3,0.5-0.8,0.9-1.4,1.2c-0.6,0.3-1.3,0.5-2,0.5c-0.9,0-1.7-0.2-2.4-0.7c-0.7-0.4-1.3-1.1-1.7-1.9
		s-0.6-1.7-0.6-2.8C241.2,81.3,241.4,80.4,241.8,79.6z M248.9,80.8c-0.2-0.5-0.6-0.8-1-1c-0.4-0.2-0.9-0.4-1.4-0.4s-0.9,0.1-1.3,0.4
		c-0.4,0.2-0.7,0.6-1,1c-0.3,0.5-0.4,1-0.4,1.6s0.1,1.2,0.4,1.6c0.3,0.5,0.6,0.8,1,1.1c0.4,0.2,0.9,0.4,1.3,0.4
		c0.5,0,0.9-0.1,1.4-0.4c0.4-0.2,0.8-0.6,1-1s0.4-1,0.4-1.6C249.3,81.8,249.2,81.2,248.9,80.8z"/>
	<path class="st43" d="M256.3,87c-0.8-0.4-1.4-1.1-1.9-1.9c-0.5-0.8-0.7-1.7-0.7-2.8c0-1.1,0.2-2,0.7-2.8s1.1-1.4,1.9-1.9
		c0.8-0.4,1.7-0.7,2.7-0.7s1.9,0.2,2.7,0.7c0.8,0.4,1.4,1.1,1.9,1.9c0.5,0.8,0.7,1.7,0.7,2.8c0,1-0.2,2-0.7,2.8
		c-0.5,0.8-1.1,1.4-1.9,1.9c-0.8,0.4-1.7,0.7-2.7,0.7C258,87.7,257.1,87.5,256.3,87z M260.3,85.1c0.4-0.2,0.7-0.6,1-1
		c0.2-0.5,0.4-1,0.4-1.7c0-0.7-0.1-1.2-0.4-1.7c-0.2-0.5-0.6-0.8-1-1c-0.4-0.2-0.8-0.4-1.3-0.4c-0.7,0-1.3,0.3-1.9,0.8
		c-0.5,0.5-0.8,1.3-0.8,2.3c0,1,0.2,1.7,0.7,2.3c0.5,0.5,1.1,0.8,1.8,0.8C259.5,85.5,259.9,85.3,260.3,85.1z"/>
	<path class="st43" d="M273.8,76.6V80h4.4v2h-4.4v3.5h4.9v2.1h-7.5v-13h7.5v2H273.8z"/>
	<path class="st43" d="M283.7,73.8v13.7h-2.6V73.8H283.7z"/>
	<path class="st43" d="M300.2,80.5c-0.3,0.6-0.8,1.1-1.5,1.5c-0.7,0.4-1.6,0.6-2.6,0.6h-2.2v5h-2.6V74.6h4.8c1,0,1.9,0.2,2.6,0.5
		c0.7,0.3,1.2,0.8,1.6,1.4c0.4,0.6,0.5,1.3,0.5,2.1C300.7,79.3,300.5,79.9,300.2,80.5z M297.5,80c0.4-0.3,0.5-0.8,0.5-1.4
		c0-0.6-0.2-1.1-0.5-1.4c-0.3-0.3-0.9-0.5-1.6-0.5h-2.1v3.9h2.1C296.6,80.5,297.1,80.3,297.5,80z"/>
	<path class="st43" d="M302.4,79.6c0.4-0.8,1-1.4,1.7-1.9c0.7-0.4,1.5-0.6,2.4-0.6c0.8,0,1.4,0.2,2,0.5c0.6,0.3,1,0.7,1.4,1.2v-1.5
		h2.6v10.3h-2.6V86c-0.3,0.5-0.8,0.9-1.4,1.2c-0.6,0.3-1.3,0.5-2,0.5c-0.9,0-1.7-0.2-2.4-0.7c-0.7-0.4-1.3-1.1-1.7-1.9
		s-0.6-1.7-0.6-2.8C301.8,81.3,302,80.4,302.4,79.6z M309.5,80.8c-0.2-0.5-0.6-0.8-1-1c-0.4-0.2-0.9-0.4-1.4-0.4s-0.9,0.1-1.3,0.4
		c-0.4,0.2-0.7,0.6-1,1c-0.3,0.5-0.4,1-0.4,1.6s0.1,1.2,0.4,1.6c0.3,0.5,0.6,0.8,1,1.1c0.4,0.2,0.9,0.4,1.3,0.4
		c0.5,0,0.9-0.1,1.4-0.4c0.4-0.2,0.8-0.6,1-1s0.4-1,0.4-1.6C309.9,81.8,309.8,81.2,309.5,80.8z"/>
	<path class="st43" d="M318.5,74.6l-4.3,1.9v-1.9l4.3-2.2V74.6z M317.8,77.2v10.3h-2.6V77.2H317.8z"/>
	<path class="st43" d="M322.1,87.2c-0.7-0.3-1.2-0.7-1.6-1.2c-0.4-0.5-0.6-1.1-0.6-1.7h2.6c0,0.4,0.2,0.8,0.6,1
		c0.3,0.3,0.8,0.4,1.3,0.4c0.5,0,0.9-0.1,1.2-0.3c0.3-0.2,0.4-0.5,0.4-0.8c0-0.3-0.2-0.6-0.5-0.8c-0.3-0.2-0.9-0.4-1.6-0.5
		s-1.4-0.4-1.9-0.6c-0.5-0.2-0.9-0.5-1.2-0.9c-0.3-0.4-0.5-0.9-0.5-1.6c0-0.6,0.2-1.1,0.5-1.6c0.3-0.5,0.8-0.9,1.4-1.1
		s1.3-0.4,2.2-0.4c1.2,0,2.2,0.3,2.9,0.9c0.7,0.6,1.1,1.4,1.2,2.5h-2.5c0-0.4-0.2-0.8-0.5-1c-0.3-0.3-0.7-0.4-1.2-0.4
		c-0.5,0-0.8,0.1-1.1,0.3c-0.3,0.2-0.4,0.5-0.4,0.8c0,0.3,0.2,0.6,0.5,0.8c0.3,0.2,0.9,0.4,1.6,0.5c0.7,0.2,1.4,0.4,1.8,0.6
		c0.5,0.2,0.9,0.5,1.2,0.9c0.3,0.4,0.5,0.9,0.5,1.6c0,0.6-0.2,1.1-0.5,1.6c-0.3,0.5-0.8,0.8-1.4,1.1c-0.6,0.3-1.3,0.4-2.2,0.4
		C323.5,87.7,322.8,87.5,322.1,87.2z"/>
</g>
<g>
	<path class="st44" d="M174.5,99.3v3.1h3.3v0.9h-3.3v3.2h3.7v0.9h-4.9v-9.1h4.9v0.9H174.5z"/>
	<path class="st44" d="M185.6,101c0.5,0.5,0.8,1.3,0.8,2.3v4.2h-1.2v-4c0-0.7-0.2-1.3-0.5-1.6c-0.4-0.4-0.8-0.6-1.5-0.6
		c-0.6,0-1.1,0.2-1.5,0.6c-0.4,0.4-0.6,1-0.6,1.7v3.9H180v-7.1h1.2v1c0.2-0.4,0.6-0.6,1-0.8c0.4-0.2,0.8-0.3,1.3-0.3
		C184.4,100.2,185.1,100.4,185.6,101z"/>
	<path class="st44" d="M192.3,100.5c0.4-0.7,1-1.3,1.7-1.7c0.7-0.4,1.5-0.6,2.3-0.6c1,0,1.9,0.3,2.7,0.8c0.8,0.5,1.3,1.2,1.6,2.2
		h-2.1c-0.2-0.4-0.5-0.7-0.9-0.9c-0.4-0.2-0.8-0.3-1.3-0.3c-0.5,0-1,0.1-1.4,0.4c-0.4,0.2-0.7,0.6-1,1c-0.2,0.5-0.3,1-0.3,1.6
		c0,0.6,0.1,1.1,0.3,1.6s0.6,0.8,1,1s0.9,0.4,1.4,0.4c0.5,0,0.9-0.1,1.3-0.3c0.4-0.2,0.7-0.5,0.9-0.9h2.1c-0.3,0.9-0.8,1.6-1.6,2.2
		s-1.6,0.8-2.7,0.8c-0.9,0-1.6-0.2-2.3-0.6c-0.7-0.4-1.2-0.9-1.7-1.6c-0.4-0.7-0.6-1.5-0.6-2.4S191.9,101.2,192.3,100.5z"/>
	<path class="st44" d="M207.7,105.7h-3.6l-0.6,1.7h-1.9l3.3-9.1h2.1l3.3,9.1h-1.9L207.7,105.7z M207.2,104.3l-1.3-3.8l-1.3,3.8
		H207.2z"/>
	<path class="st44" d="M217.8,103.5c0.3,0.4,0.5,0.9,0.5,1.4c0,0.5-0.1,0.9-0.4,1.3c-0.2,0.4-0.6,0.7-1,0.9c-0.5,0.2-1,0.3-1.6,0.3
		h-3.9v-9.1h3.7c0.6,0,1.1,0.1,1.6,0.3s0.8,0.5,1,0.8c0.2,0.4,0.3,0.8,0.3,1.2c0,0.5-0.1,1-0.4,1.3c-0.3,0.4-0.7,0.6-1.1,0.8
		C217.1,102.9,217.5,103.1,217.8,103.5z M213.2,102.1h1.7c0.4,0,0.8-0.1,1-0.3c0.2-0.2,0.4-0.5,0.4-0.9c0-0.4-0.1-0.7-0.4-0.9
		s-0.6-0.3-1-0.3h-1.7V102.1z M216.1,105.7c0.2-0.2,0.4-0.5,0.4-0.9c0-0.4-0.1-0.7-0.4-0.9c-0.3-0.2-0.6-0.3-1.1-0.3h-1.8v2.5h1.8
		C215.5,106,215.9,105.9,216.1,105.7z"/>
	<path class="st44" d="M225.3,105.7h-3.6l-0.6,1.7h-1.9l3.3-9.1h2.1l3.3,9.1h-1.9L225.3,105.7z M224.9,104.3l-1.3-3.8l-1.3,3.8
		H224.9z"/>
	<path class="st44" d="M234.9,100.6c0.5-0.3,1-0.4,1.6-0.4c0.6,0,1.2,0.2,1.7,0.5c0.5,0.3,0.9,0.7,1.2,1.3c0.3,0.5,0.4,1.2,0.4,1.9
		c0,0.7-0.1,1.4-0.4,1.9c-0.3,0.6-0.7,1-1.2,1.3c-0.5,0.3-1.1,0.5-1.7,0.5c-0.6,0-1.1-0.1-1.6-0.4c-0.5-0.3-0.8-0.6-1.1-1v4.7h-1.2
		v-10.5h1.2v1.3C234.1,101.2,234.4,100.9,234.9,100.6z M238.4,102.4c-0.2-0.4-0.5-0.7-0.9-0.9s-0.8-0.3-1.2-0.3
		c-0.4,0-0.8,0.1-1.2,0.3c-0.4,0.2-0.7,0.5-0.9,0.9c-0.2,0.4-0.3,0.9-0.3,1.4c0,0.5,0.1,1,0.3,1.4c0.2,0.4,0.5,0.7,0.9,0.9
		c0.4,0.2,0.8,0.3,1.2,0.3c0.4,0,0.8-0.1,1.2-0.3c0.4-0.2,0.7-0.5,0.9-0.9c0.2-0.4,0.3-0.9,0.3-1.4
		C238.7,103.3,238.6,102.8,238.4,102.4z"/>
	<path class="st44" d="M242.8,107.1c-0.5-0.3-1-0.7-1.3-1.3c-0.3-0.6-0.5-1.2-0.5-1.9c0-0.7,0.2-1.4,0.5-1.9c0.3-0.6,0.7-1,1.3-1.3
		c0.5-0.3,1.2-0.4,1.8-0.4c0.7,0,1.3,0.2,1.8,0.4c0.5,0.3,1,0.7,1.3,1.3c0.3,0.6,0.5,1.2,0.5,1.9c0,0.7-0.2,1.4-0.5,1.9
		c-0.3,0.6-0.8,1-1.3,1.3c-0.6,0.3-1.2,0.5-1.8,0.5C243.9,107.6,243.3,107.4,242.8,107.1z M245.8,106.2c0.4-0.2,0.7-0.5,0.9-0.9
		c0.2-0.4,0.3-0.9,0.3-1.5c0-0.6-0.1-1.1-0.3-1.5c-0.2-0.4-0.5-0.7-0.9-0.9c-0.4-0.2-0.8-0.3-1.2-0.3c-0.4,0-0.8,0.1-1.2,0.3
		c-0.4,0.2-0.6,0.5-0.9,0.9c-0.2,0.4-0.3,0.9-0.3,1.5c0,0.6,0.1,1.1,0.3,1.5c0.2,0.4,0.5,0.7,0.9,0.9c0.4,0.2,0.7,0.3,1.2,0.3
		S245.4,106.4,245.8,106.2z"/>
	<path class="st44" d="M251.9,100.6c0.4-0.3,0.9-0.4,1.4-0.4v1.2h-0.3c-1.3,0-2,0.7-2,2.2v3.9h-1.2v-7.1h1.2v1.4
		C251.2,101.2,251.5,100.8,251.9,100.6z"/>
	<path class="st44" d="M267.7,98.4v9h-1.2v-6.7l-3,6.7h-0.8l-3-6.7v6.7h-1.2v-9h1.3l3.3,7.4l3.3-7.4H267.7z"/>
	<path class="st44" d="M271,107.1c-0.5-0.3-1-0.7-1.3-1.3c-0.3-0.6-0.5-1.2-0.5-1.9c0-0.7,0.2-1.4,0.5-1.9c0.3-0.6,0.7-1,1.3-1.3
		c0.5-0.3,1.2-0.4,1.8-0.4c0.7,0,1.3,0.2,1.8,0.4c0.5,0.3,1,0.7,1.3,1.3c0.3,0.6,0.5,1.2,0.5,1.9c0,0.7-0.2,1.4-0.5,1.9
		c-0.3,0.6-0.8,1-1.3,1.3c-0.6,0.3-1.2,0.5-1.8,0.5C272.1,107.6,271.5,107.4,271,107.1z M274,106.2c0.4-0.2,0.7-0.5,0.9-0.9
		c0.2-0.4,0.3-0.9,0.3-1.5c0-0.6-0.1-1.1-0.3-1.5c-0.2-0.4-0.5-0.7-0.9-0.9c-0.4-0.2-0.8-0.3-1.2-0.3c-0.4,0-0.8,0.1-1.2,0.3
		c-0.4,0.2-0.6,0.5-0.9,0.9c-0.2,0.4-0.3,0.9-0.3,1.5c0,0.6,0.1,1.1,0.3,1.5c0.2,0.4,0.5,0.7,0.9,0.9c0.4,0.2,0.7,0.3,1.2,0.3
		S273.6,106.4,274,106.2z"/>
	<path class="st44" d="M279.5,101.3v4.2c0,0.3,0.1,0.6,0.2,0.7c0.1,0.1,0.4,0.2,0.8,0.2h0.9v1h-1.1c-0.7,0-1.2-0.2-1.5-0.5
		c-0.3-0.3-0.5-0.8-0.5-1.5v-4.2h-0.9v-1h0.9v-1.8h1.2v1.8h1.9v1H279.5z"/>
	<path class="st44" d="M284,107.1c-0.5-0.3-1-0.7-1.3-1.3c-0.3-0.6-0.5-1.2-0.5-1.9c0-0.7,0.2-1.4,0.5-1.9c0.3-0.6,0.7-1,1.3-1.3
		c0.5-0.3,1.2-0.4,1.8-0.4c0.7,0,1.3,0.2,1.8,0.4c0.5,0.3,1,0.7,1.3,1.3c0.3,0.6,0.5,1.2,0.5,1.9c0,0.7-0.2,1.4-0.5,1.9
		c-0.3,0.6-0.8,1-1.3,1.3c-0.6,0.3-1.2,0.5-1.8,0.5C285.2,107.6,284.6,107.4,284,107.1z M287,106.2c0.4-0.2,0.7-0.5,0.9-0.9
		c0.2-0.4,0.3-0.9,0.3-1.5c0-0.6-0.1-1.1-0.3-1.5c-0.2-0.4-0.5-0.7-0.9-0.9c-0.4-0.2-0.8-0.3-1.2-0.3c-0.4,0-0.8,0.1-1.2,0.3
		c-0.4,0.2-0.6,0.5-0.9,0.9c-0.2,0.4-0.3,0.9-0.3,1.5c0,0.6,0.1,1.1,0.3,1.5c0.2,0.4,0.5,0.7,0.9,0.9c0.4,0.2,0.7,0.3,1.2,0.3
		S286.7,106.4,287,106.2z"/>
	<path class="st44" d="M292.3,105.8l-1.5,3.5H290l0.9-3.5H292.3z"/>
	<path class="st44" d="M115.2,118.8c0.3,0.2,0.5,0.5,0.6,0.8c0.2,0.3,0.2,0.7,0.2,1c0,0.5-0.1,0.9-0.4,1.2s-0.6,0.7-1,0.9
		c-0.4,0.2-1,0.3-1.6,0.3h-3.4V114h3.2c0.6,0,1.1,0.1,1.6,0.3c0.4,0.2,0.8,0.5,1,0.8c0.2,0.3,0.3,0.7,0.3,1.2c0,0.5-0.1,1-0.4,1.3
		s-0.7,0.6-1.2,0.8C114.6,118.4,114.9,118.6,115.2,118.8z M111,117.9h2c0.5,0,1-0.1,1.3-0.4s0.5-0.6,0.5-1.1s-0.2-0.8-0.5-1.1
		c-0.3-0.3-0.7-0.4-1.3-0.4h-2V117.9z M114.4,121.7c0.3-0.3,0.5-0.7,0.5-1.2c0-0.5-0.2-0.9-0.5-1.2s-0.8-0.4-1.4-0.4H111v3.2h2.1
		C113.6,122.1,114.1,122,114.4,121.7z"/>
	<path class="st44" d="M124.1,115.9v7.1h-1.2V122c-0.2,0.4-0.5,0.6-0.9,0.9c-0.4,0.2-0.8,0.3-1.3,0.3c-0.6,0-1.1-0.1-1.5-0.3
		c-0.4-0.2-0.8-0.6-1-1c-0.3-0.5-0.4-1-0.4-1.7v-4.2h1.2v4c0,0.7,0.2,1.2,0.5,1.6c0.4,0.4,0.8,0.6,1.5,0.6c0.6,0,1.1-0.2,1.5-0.6
		c0.4-0.4,0.5-1,0.5-1.7v-3.9H124.1z"/>
	<path class="st44" d="M132.5,119.9h-5.7c0,0.7,0.3,1.3,0.7,1.7c0.4,0.4,1,0.6,1.6,0.6c0.5,0,0.9-0.1,1.3-0.4c0.3-0.2,0.6-0.6,0.7-1
		h1.3c-0.2,0.7-0.6,1.2-1.1,1.7c-0.6,0.4-1.3,0.6-2.1,0.6c-0.7,0-1.3-0.2-1.8-0.5c-0.5-0.3-1-0.7-1.3-1.3c-0.3-0.6-0.5-1.2-0.5-1.9
		s0.1-1.4,0.4-1.9c0.3-0.6,0.7-1,1.2-1.3c0.5-0.3,1.1-0.4,1.8-0.4c0.7,0,1.3,0.1,1.8,0.4c0.5,0.3,0.9,0.7,1.2,1.2
		c0.3,0.5,0.4,1.1,0.4,1.7C132.6,119.4,132.5,119.6,132.5,119.9z M131,117.8c-0.2-0.3-0.5-0.6-0.8-0.8c-0.3-0.2-0.7-0.3-1.1-0.3
		c-0.6,0-1.1,0.2-1.5,0.6s-0.7,0.9-0.7,1.6h4.5C131.3,118.5,131.2,118.1,131,117.8z"/>
	<path class="st44" d="M139.7,116.6c0.5,0.5,0.8,1.3,0.8,2.3v4.2h-1.2v-4c0-0.7-0.2-1.3-0.5-1.6c-0.4-0.4-0.8-0.6-1.5-0.6
		c-0.6,0-1.1,0.2-1.5,0.6c-0.4,0.4-0.6,1-0.6,1.7v3.9h-1.2v-7.1h1.2v1c0.2-0.4,0.6-0.6,1-0.8c0.4-0.2,0.8-0.3,1.3-0.3
		C138.5,115.8,139.2,116,139.7,116.6z"/>
	<path class="st44" d="M143.7,122.7c-0.5-0.3-1-0.7-1.3-1.3c-0.3-0.6-0.5-1.2-0.5-1.9c0-0.7,0.2-1.4,0.5-1.9c0.3-0.6,0.7-1,1.3-1.3
		c0.5-0.3,1.2-0.4,1.8-0.4c0.7,0,1.3,0.1,1.8,0.4c0.5,0.3,1,0.7,1.3,1.3c0.3,0.6,0.5,1.2,0.5,1.9s-0.2,1.4-0.5,1.9
		c-0.3,0.6-0.8,1-1.3,1.3c-0.6,0.3-1.2,0.5-1.8,0.5C144.9,123.2,144.3,123,143.7,122.7z M146.7,121.8c0.4-0.2,0.7-0.5,0.9-0.9
		c0.2-0.4,0.3-0.9,0.3-1.5s-0.1-1.1-0.3-1.5c-0.2-0.4-0.5-0.7-0.9-0.9c-0.4-0.2-0.8-0.3-1.2-0.3c-0.4,0-0.8,0.1-1.2,0.3
		c-0.4,0.2-0.6,0.5-0.9,0.9c-0.2,0.4-0.3,0.9-0.3,1.5c0,0.6,0.1,1.1,0.3,1.5s0.5,0.7,0.9,0.9c0.4,0.2,0.7,0.3,1.2,0.3
		S146.4,122,146.7,121.8z"/>
	<path class="st44" d="M151.8,122.9c-0.4-0.2-0.8-0.4-1-0.8c-0.3-0.3-0.4-0.7-0.4-1.2h1.2c0,0.4,0.2,0.7,0.5,0.9
		c0.3,0.2,0.7,0.4,1.2,0.4c0.5,0,0.8-0.1,1.1-0.3c0.3-0.2,0.4-0.5,0.4-0.8c0-0.3-0.1-0.5-0.4-0.7s-0.7-0.3-1.3-0.4
		c-0.5-0.1-1-0.3-1.3-0.4c-0.3-0.1-0.6-0.3-0.8-0.6c-0.2-0.3-0.4-0.6-0.4-1.1c0-0.4,0.1-0.7,0.3-1c0.2-0.3,0.5-0.6,0.9-0.7
		c0.4-0.2,0.9-0.3,1.4-0.3c0.8,0,1.4,0.2,1.9,0.6c0.5,0.4,0.7,0.9,0.8,1.6h-1.2c0-0.4-0.2-0.7-0.4-0.9c-0.3-0.2-0.6-0.4-1.1-0.4
		c-0.4,0-0.8,0.1-1,0.3s-0.4,0.4-0.4,0.8c0,0.2,0.1,0.4,0.2,0.6c0.2,0.2,0.3,0.3,0.6,0.4c0.2,0.1,0.5,0.2,1,0.3
		c0.5,0.1,0.9,0.3,1.2,0.4s0.6,0.3,0.8,0.6c0.2,0.3,0.3,0.6,0.3,1c0,0.4-0.1,0.8-0.3,1.1c-0.2,0.3-0.5,0.6-0.9,0.7s-0.8,0.3-1.4,0.3
		C152.7,123.2,152.2,123.1,151.8,122.9z"/>
	<path class="st44" d="M166.8,121h-4l-0.7,2h-1.2l3.3-9h1.4l3.3,9h-1.2L166.8,121z M166.4,120.1l-1.7-4.6l-1.7,4.6H166.4z"/>
	<path class="st44" d="M170.2,114.5c-0.2-0.2-0.2-0.3-0.2-0.6s0.1-0.4,0.2-0.6c0.2-0.2,0.3-0.2,0.6-0.2c0.2,0,0.4,0.1,0.6,0.2
		c0.2,0.2,0.2,0.3,0.2,0.6s-0.1,0.4-0.2,0.6c-0.2,0.2-0.3,0.2-0.6,0.2C170.6,114.8,170.4,114.7,170.2,114.5z M171.4,115.9v7.1h-1.2
		v-7.1H171.4z"/>
	<path class="st44" d="M175.5,116.2c0.4-0.3,0.9-0.4,1.4-0.4v1.2h-0.3c-1.3,0-2,0.7-2,2.2v3.9h-1.2v-7.1h1.2v1.4
		C174.8,116.8,175.1,116.4,175.5,116.2z"/>
	<path class="st44" d="M184.7,119.9H179c0,0.7,0.3,1.3,0.7,1.7c0.4,0.4,1,0.6,1.6,0.6c0.5,0,0.9-0.1,1.3-0.4c0.3-0.2,0.6-0.6,0.7-1
		h1.3c-0.2,0.7-0.6,1.2-1.1,1.7c-0.6,0.4-1.3,0.6-2.1,0.6c-0.7,0-1.3-0.2-1.8-0.5c-0.5-0.3-1-0.7-1.3-1.3c-0.3-0.6-0.5-1.2-0.5-1.9
		s0.1-1.4,0.4-1.9c0.3-0.6,0.7-1,1.2-1.3c0.5-0.3,1.1-0.4,1.8-0.4c0.7,0,1.3,0.1,1.8,0.4c0.5,0.3,0.9,0.7,1.2,1.2
		c0.3,0.5,0.4,1.1,0.4,1.7C184.7,119.4,184.7,119.6,184.7,119.9z M183.2,117.8c-0.2-0.3-0.5-0.6-0.8-0.8c-0.3-0.2-0.7-0.3-1.1-0.3
		c-0.6,0-1.1,0.2-1.5,0.6s-0.7,0.9-0.7,1.6h4.5C183.5,118.5,183.4,118.1,183.2,117.8z"/>
	<path class="st44" d="M187.3,122.9c-0.4-0.2-0.8-0.4-1-0.8c-0.3-0.3-0.4-0.7-0.4-1.2h1.2c0,0.4,0.2,0.7,0.5,0.9
		c0.3,0.2,0.7,0.4,1.2,0.4c0.5,0,0.8-0.1,1.1-0.3c0.3-0.2,0.4-0.5,0.4-0.8c0-0.3-0.1-0.5-0.4-0.7s-0.7-0.3-1.3-0.4
		c-0.5-0.1-1-0.3-1.3-0.4c-0.3-0.1-0.6-0.3-0.8-0.6c-0.2-0.3-0.4-0.6-0.4-1.1c0-0.4,0.1-0.7,0.3-1c0.2-0.3,0.5-0.6,0.9-0.7
		c0.4-0.2,0.9-0.3,1.4-0.3c0.8,0,1.4,0.2,1.9,0.6c0.5,0.4,0.7,0.9,0.8,1.6h-1.2c0-0.4-0.2-0.7-0.4-0.9c-0.3-0.2-0.6-0.4-1.1-0.4
		c-0.4,0-0.8,0.1-1,0.3s-0.4,0.4-0.4,0.8c0,0.2,0.1,0.4,0.2,0.6c0.2,0.2,0.3,0.3,0.6,0.4c0.2,0.1,0.5,0.2,1,0.3
		c0.5,0.1,0.9,0.3,1.2,0.4s0.6,0.3,0.8,0.6c0.2,0.3,0.3,0.6,0.3,1c0,0.4-0.1,0.8-0.3,1.1c-0.2,0.3-0.5,0.6-0.9,0.7s-0.8,0.3-1.4,0.3
		C188.2,123.2,187.8,123.1,187.3,122.9z"/>
	<path class="st44" d="M197.4,115.9l2.2,5.7l2.2-5.7h1.2l-4.3,10.5h-1.2l1.4-3.4l-2.9-7H197.4z"/>
	<path class="st44" d="M212.9,123l-2.2-3.7h-1.4v3.7h-1.2V114h2.9c0.7,0,1.3,0.1,1.7,0.4c0.5,0.2,0.8,0.5,1.1,0.9
		c0.2,0.4,0.4,0.9,0.4,1.4c0,0.6-0.2,1.2-0.5,1.7c-0.4,0.5-0.9,0.8-1.6,0.9l2.3,3.8H212.9z M209.3,118.4h1.7c0.6,0,1.1-0.2,1.4-0.5
		c0.3-0.3,0.5-0.7,0.5-1.3c0-0.5-0.2-1-0.5-1.3c-0.3-0.3-0.8-0.5-1.5-0.5h-1.7V118.4z"/>
	<path class="st44" d="M222.5,119.9h-5.7c0,0.7,0.3,1.3,0.7,1.7c0.4,0.4,1,0.6,1.6,0.6c0.5,0,0.9-0.1,1.3-0.4c0.3-0.2,0.6-0.6,0.7-1
		h1.3c-0.2,0.7-0.6,1.2-1.1,1.7c-0.6,0.4-1.3,0.6-2.1,0.6c-0.7,0-1.3-0.2-1.8-0.5c-0.5-0.3-1-0.7-1.3-1.3c-0.3-0.6-0.5-1.2-0.5-1.9
		s0.1-1.4,0.4-1.9c0.3-0.6,0.7-1,1.2-1.3c0.5-0.3,1.1-0.4,1.8-0.4c0.7,0,1.3,0.1,1.8,0.4c0.5,0.3,0.9,0.7,1.2,1.2
		c0.3,0.5,0.4,1.1,0.4,1.7C222.5,119.4,222.5,119.6,222.5,119.9z M221,117.8c-0.2-0.3-0.5-0.6-0.8-0.8c-0.3-0.2-0.7-0.3-1.1-0.3
		c-0.6,0-1.1,0.2-1.5,0.6s-0.7,0.9-0.7,1.6h4.5C221.3,118.5,221.2,118.1,221,117.8z"/>
	<path class="st44" d="M225.1,122.9c-0.4-0.2-0.8-0.4-1-0.8c-0.3-0.3-0.4-0.7-0.4-1.2h1.2c0,0.4,0.2,0.7,0.5,0.9
		c0.3,0.2,0.7,0.4,1.2,0.4c0.5,0,0.8-0.1,1.1-0.3c0.3-0.2,0.4-0.5,0.4-0.8c0-0.3-0.1-0.5-0.4-0.7s-0.7-0.3-1.3-0.4
		c-0.5-0.1-1-0.3-1.3-0.4c-0.3-0.1-0.6-0.3-0.8-0.6c-0.2-0.3-0.4-0.6-0.4-1.1c0-0.4,0.1-0.7,0.3-1c0.2-0.3,0.5-0.6,0.9-0.7
		c0.4-0.2,0.9-0.3,1.4-0.3c0.8,0,1.4,0.2,1.9,0.6c0.5,0.4,0.7,0.9,0.8,1.6H228c0-0.4-0.2-0.7-0.4-0.9c-0.3-0.2-0.6-0.4-1.1-0.4
		c-0.4,0-0.8,0.1-1,0.3s-0.4,0.4-0.4,0.8c0,0.2,0.1,0.4,0.2,0.6c0.2,0.2,0.3,0.3,0.6,0.4c0.2,0.1,0.5,0.2,1,0.3
		c0.5,0.1,0.9,0.3,1.2,0.4s0.6,0.3,0.8,0.6c0.2,0.3,0.3,0.6,0.3,1c0,0.4-0.1,0.8-0.3,1.1c-0.2,0.3-0.5,0.6-0.9,0.7s-0.8,0.3-1.4,0.3
		C226.1,123.2,225.6,123.1,225.1,122.9z"/>
	<path class="st44" d="M232.3,116.9v4.2c0,0.3,0.1,0.6,0.2,0.7c0.1,0.1,0.4,0.2,0.8,0.2h0.9v1h-1.1c-0.7,0-1.2-0.2-1.5-0.5
		s-0.5-0.8-0.5-1.5v-4.2h-0.9v-1h0.9v-1.8h1.2v1.8h1.9v1H232.3z"/>
	<path class="st44" d="M236.9,122.7c-0.5-0.3-1-0.7-1.3-1.3c-0.3-0.6-0.5-1.2-0.5-1.9c0-0.7,0.2-1.4,0.5-1.9c0.3-0.6,0.7-1,1.3-1.3
		c0.5-0.3,1.2-0.4,1.8-0.4c0.7,0,1.3,0.1,1.8,0.4c0.5,0.3,1,0.7,1.3,1.3c0.3,0.6,0.5,1.2,0.5,1.9s-0.2,1.4-0.5,1.9
		c-0.3,0.6-0.8,1-1.3,1.3c-0.6,0.3-1.2,0.5-1.8,0.5C238.1,123.2,237.5,123,236.9,122.7z M239.9,121.8c0.4-0.2,0.7-0.5,0.9-0.9
		c0.2-0.4,0.3-0.9,0.3-1.5s-0.1-1.1-0.3-1.5c-0.2-0.4-0.5-0.7-0.9-0.9c-0.4-0.2-0.8-0.3-1.2-0.3c-0.4,0-0.8,0.1-1.2,0.3
		c-0.4,0.2-0.6,0.5-0.9,0.9c-0.2,0.4-0.3,0.9-0.3,1.5c0,0.6,0.1,1.1,0.3,1.5s0.5,0.7,0.9,0.9c0.4,0.2,0.7,0.3,1.2,0.3
		S239.6,122,239.9,121.8z"/>
	<path class="st44" d="M247.8,117.5c0.3-0.5,0.7-1,1.2-1.3s1.1-0.5,1.7-0.5c0.6,0,1.1,0.1,1.5,0.4s0.8,0.6,1.1,1v-3.8h1.2v9.6h-1.2
		v-1.3c-0.2,0.4-0.6,0.8-1,1c-0.5,0.3-1,0.4-1.6,0.4c-0.6,0-1.2-0.2-1.7-0.5c-0.5-0.3-0.9-0.7-1.2-1.3c-0.3-0.6-0.4-1.2-0.4-1.9
		C247.4,118.7,247.5,118.1,247.8,117.5z M253.1,118.1c-0.2-0.4-0.5-0.7-0.9-0.9c-0.4-0.2-0.8-0.3-1.2-0.3c-0.4,0-0.8,0.1-1.2,0.3
		c-0.4,0.2-0.7,0.5-0.9,0.9c-0.2,0.4-0.3,0.9-0.3,1.4c0,0.5,0.1,1,0.3,1.4c0.2,0.4,0.5,0.7,0.9,0.9c0.4,0.2,0.8,0.3,1.2,0.3
		c0.4,0,0.8-0.1,1.2-0.3c0.4-0.2,0.7-0.5,0.9-0.9c0.2-0.4,0.3-0.9,0.3-1.4S253.3,118.5,253.1,118.1z"/>
	<path class="st44" d="M263.1,119.9h-5.7c0,0.7,0.3,1.3,0.7,1.7c0.4,0.4,1,0.6,1.6,0.6c0.5,0,0.9-0.1,1.3-0.4c0.3-0.2,0.6-0.6,0.7-1
		h1.3c-0.2,0.7-0.6,1.2-1.1,1.7c-0.6,0.4-1.3,0.6-2.1,0.6c-0.7,0-1.3-0.2-1.8-0.5c-0.5-0.3-1-0.7-1.3-1.3c-0.3-0.6-0.5-1.2-0.5-1.9
		s0.1-1.4,0.4-1.9c0.3-0.6,0.7-1,1.2-1.3c0.5-0.3,1.1-0.4,1.8-0.4c0.7,0,1.3,0.1,1.8,0.4c0.5,0.3,0.9,0.7,1.2,1.2
		c0.3,0.5,0.4,1.1,0.4,1.7C263.1,119.4,263.1,119.6,263.1,119.9z M261.6,117.8c-0.2-0.3-0.5-0.6-0.8-0.8c-0.3-0.2-0.7-0.3-1.1-0.3
		c-0.6,0-1.1,0.2-1.5,0.6s-0.7,0.9-0.7,1.6h4.5C261.9,118.5,261.8,118.1,261.6,117.8z"/>
	<path class="st44" d="M265.8,113.4v9.6h-1.2v-9.6H265.8z"/>
	<path class="st44" d="M277,118.5c-0.5,0.5-1.3,0.7-2.4,0.7h-1.7v3.8h-1.2V114h2.9c1,0,1.8,0.2,2.3,0.7c0.5,0.5,0.8,1.1,0.8,1.9
		C277.8,117.4,277.5,118,277,118.5z M276.1,117.9c0.3-0.3,0.5-0.7,0.5-1.2c0-0.5-0.2-1-0.5-1.3s-0.8-0.4-1.5-0.4h-1.7v3.4h1.7
		C275.3,118.3,275.8,118.2,276.1,117.9z"/>
	<path class="st44" d="M279.3,117.5c0.3-0.5,0.7-1,1.2-1.3s1.1-0.5,1.7-0.5c0.6,0,1.2,0.1,1.6,0.4s0.8,0.6,1,1v-1.3h1.2v7.1h-1.2
		v-1.3c-0.2,0.4-0.6,0.8-1,1c-0.5,0.3-1,0.4-1.6,0.4c-0.6,0-1.2-0.2-1.7-0.5c-0.5-0.3-0.9-0.7-1.2-1.3c-0.3-0.6-0.4-1.2-0.4-1.9
		C278.8,118.7,279,118.1,279.3,117.5z M284.5,118.1c-0.2-0.4-0.5-0.7-0.9-0.9c-0.4-0.2-0.8-0.3-1.2-0.3c-0.4,0-0.8,0.1-1.2,0.3
		c-0.4,0.2-0.7,0.5-0.9,0.9c-0.2,0.4-0.3,0.9-0.3,1.4c0,0.5,0.1,1,0.3,1.4c0.2,0.4,0.5,0.7,0.9,0.9c0.4,0.2,0.8,0.3,1.2,0.3
		c0.4,0,0.8-0.1,1.2-0.3c0.4-0.2,0.7-0.5,0.9-0.9c0.2-0.4,0.3-0.9,0.3-1.4S284.7,118.5,284.5,118.1z"/>
	<path class="st44" d="M289.9,113.9l-2.8,1.5v-0.9l2.8-1.6V113.9z M289.2,115.9v7.1H288v-7.1H289.2z"/>
	<path class="st44" d="M292.3,122.9c-0.4-0.2-0.8-0.4-1-0.8c-0.3-0.3-0.4-0.7-0.4-1.2h1.2c0,0.4,0.2,0.7,0.5,0.9
		c0.3,0.2,0.7,0.4,1.2,0.4c0.5,0,0.8-0.1,1.1-0.3c0.3-0.2,0.4-0.5,0.4-0.8c0-0.3-0.1-0.5-0.4-0.7s-0.7-0.3-1.3-0.4
		c-0.5-0.1-1-0.3-1.3-0.4c-0.3-0.1-0.6-0.3-0.8-0.6c-0.2-0.3-0.4-0.6-0.4-1.1c0-0.4,0.1-0.7,0.3-1c0.2-0.3,0.5-0.6,0.9-0.7
		c0.4-0.2,0.9-0.3,1.4-0.3c0.8,0,1.4,0.2,1.9,0.6c0.5,0.4,0.7,0.9,0.8,1.6h-1.2c0-0.4-0.2-0.7-0.4-0.9c-0.3-0.2-0.6-0.4-1.1-0.4
		c-0.4,0-0.8,0.1-1,0.3s-0.4,0.4-0.4,0.8c0,0.2,0.1,0.4,0.2,0.6c0.2,0.2,0.3,0.3,0.6,0.4c0.2,0.1,0.5,0.2,1,0.3
		c0.5,0.1,0.9,0.3,1.2,0.4s0.6,0.3,0.8,0.6c0.2,0.3,0.3,0.6,0.3,1c0,0.4-0.1,0.8-0.3,1.1c-0.2,0.3-0.5,0.6-0.9,0.7s-0.8,0.3-1.4,0.3
		C293.2,123.2,292.7,123.1,292.3,122.9z"/>
	<path class="st44" d="M304.1,116.2c0.5-0.3,1-0.4,1.6-0.4c0.6,0,1.2,0.2,1.7,0.5s0.9,0.7,1.2,1.3c0.3,0.6,0.4,1.2,0.4,1.9
		c0,0.7-0.1,1.4-0.4,1.9c-0.3,0.6-0.7,1-1.2,1.3c-0.5,0.3-1.1,0.5-1.7,0.5c-0.6,0-1.1-0.1-1.6-0.4c-0.5-0.3-0.8-0.6-1.1-1v4.7h-1.2
		v-10.5h1.2v1.3C303.3,116.8,303.7,116.5,304.1,116.2z M307.6,118c-0.2-0.4-0.5-0.7-0.9-0.9s-0.8-0.3-1.2-0.3
		c-0.4,0-0.8,0.1-1.2,0.3c-0.4,0.2-0.7,0.5-0.9,0.9c-0.2,0.4-0.3,0.9-0.3,1.4c0,0.5,0.1,1,0.3,1.4c0.2,0.4,0.5,0.7,0.9,0.9
		c0.4,0.2,0.8,0.3,1.2,0.3c0.4,0,0.8-0.1,1.2-0.3c0.4-0.2,0.7-0.5,0.9-0.9c0.2-0.4,0.3-0.9,0.3-1.4
		C307.9,118.9,307.8,118.4,307.6,118z"/>
	<path class="st44" d="M312,122.7c-0.5-0.3-1-0.7-1.3-1.3c-0.3-0.6-0.5-1.2-0.5-1.9c0-0.7,0.2-1.4,0.5-1.9c0.3-0.6,0.7-1,1.3-1.3
		c0.5-0.3,1.2-0.4,1.8-0.4c0.7,0,1.3,0.1,1.8,0.4c0.5,0.3,1,0.7,1.3,1.3c0.3,0.6,0.5,1.2,0.5,1.9s-0.2,1.4-0.5,1.9
		c-0.3,0.6-0.8,1-1.3,1.3c-0.6,0.3-1.2,0.5-1.8,0.5C313.1,123.2,312.5,123,312,122.7z M315,121.8c0.4-0.2,0.7-0.5,0.9-0.9
		c0.2-0.4,0.3-0.9,0.3-1.5s-0.1-1.1-0.3-1.5c-0.2-0.4-0.5-0.7-0.9-0.9c-0.4-0.2-0.8-0.3-1.2-0.3c-0.4,0-0.8,0.1-1.2,0.3
		c-0.4,0.2-0.6,0.5-0.9,0.9c-0.2,0.4-0.3,0.9-0.3,1.5c0,0.6,0.1,1.1,0.3,1.5s0.5,0.7,0.9,0.9c0.4,0.2,0.7,0.3,1.2,0.3
		S314.6,122,315,121.8z"/>
	<path class="st44" d="M321.1,116.2c0.4-0.3,0.9-0.4,1.4-0.4v1.2h-0.3c-1.3,0-2,0.7-2,2.2v3.9H319v-7.1h1.2v1.4
		C320.4,116.8,320.7,116.4,321.1,116.2z"/>
	<path class="st44" d="M329.5,122.5c-0.7-0.4-1.3-1-1.7-1.7c-0.4-0.7-0.6-1.5-0.6-2.4c0-0.9,0.2-1.7,0.6-2.4c0.4-0.7,1-1.3,1.7-1.7
		c0.7-0.4,1.5-0.6,2.3-0.6c0.9,0,1.6,0.2,2.3,0.6c0.7,0.4,1.3,1,1.7,1.7c0.4,0.7,0.6,1.5,0.6,2.4c0,0.9-0.2,1.7-0.6,2.4
		c-0.4,0.7-1,1.3-1.7,1.7c-0.7,0.4-1.5,0.6-2.3,0.6C331,123.1,330.2,122.9,329.5,122.5z M333.3,121.1c0.4-0.2,0.7-0.6,1-1
		c0.2-0.4,0.4-1,0.4-1.6c0-0.6-0.1-1.1-0.4-1.6c-0.2-0.4-0.6-0.8-1-1c-0.4-0.2-0.9-0.4-1.4-0.4s-1,0.1-1.4,0.4c-0.4,0.2-0.7,0.6-1,1
		c-0.2,0.4-0.4,1-0.4,1.6c0,0.6,0.1,1.1,0.4,1.6c0.2,0.4,0.6,0.8,1,1c0.4,0.2,0.9,0.4,1.4,0.4S332.9,121.3,333.3,121.1z"/>
	<path class="st44" d="M338,116.1c0.4-0.7,1-1.3,1.7-1.7s1.5-0.6,2.3-0.6c1,0,1.9,0.3,2.7,0.8c0.8,0.5,1.3,1.2,1.6,2.2h-2.1
		c-0.2-0.4-0.5-0.7-0.9-0.9c-0.4-0.2-0.8-0.3-1.3-0.3c-0.5,0-1,0.1-1.4,0.4c-0.4,0.2-0.7,0.6-1,1c-0.2,0.5-0.3,1-0.3,1.6
		c0,0.6,0.1,1.1,0.3,1.6c0.2,0.4,0.6,0.8,1,1s0.9,0.4,1.4,0.4c0.5,0,0.9-0.1,1.3-0.3s0.7-0.5,0.9-0.9h2.1c-0.3,0.9-0.8,1.6-1.6,2.2
		s-1.6,0.8-2.7,0.8c-0.9,0-1.6-0.2-2.3-0.6s-1.2-0.9-1.7-1.6s-0.6-1.5-0.6-2.4S337.6,116.8,338,116.1z"/>
	<path class="st44" d="M353.4,121.3h-3.6l-0.6,1.7h-1.9l3.3-9.1h2.1l3.3,9.1H354L353.4,121.3z M352.9,119.9l-1.3-3.8l-1.3,3.8H352.9
		z"/>
	<path class="st45" d="M171.8,131.7c0.4,0.2,0.8,0.6,1,1c0.3,0.5,0.4,1,0.4,1.7v4.2H172v-4c0-0.7-0.2-1.3-0.5-1.6
		c-0.4-0.4-0.8-0.6-1.4-0.6c-0.6,0-1.1,0.2-1.5,0.6c-0.4,0.4-0.5,1-0.5,1.7v3.9h-1.2v-4c0-0.7-0.2-1.3-0.5-1.6s-0.8-0.6-1.4-0.6
		c-0.6,0-1.1,0.2-1.5,0.6c-0.4,0.4-0.5,1-0.5,1.7v3.9h-1.2v-7.1h1.2v1c0.2-0.4,0.5-0.7,0.9-0.9c0.4-0.2,0.8-0.3,1.3-0.3
		c0.6,0,1.1,0.1,1.6,0.4c0.5,0.3,0.8,0.7,1,1.2c0.2-0.5,0.5-0.9,1-1.2c0.5-0.3,1-0.4,1.5-0.4C170.9,131.4,171.4,131.5,171.8,131.7z"
		/>
	<path class="st45" d="M175.2,133.1c0.3-0.6,0.7-1,1.2-1.3c0.5-0.3,1.1-0.5,1.7-0.5c0.6,0,1.2,0.1,1.6,0.4s0.8,0.6,1,1v-1.3h1.2v7.1
		h-1.2v-1.3c-0.2,0.4-0.6,0.8-1,1c-0.5,0.3-1,0.4-1.6,0.4c-0.6,0-1.2-0.2-1.7-0.5c-0.5-0.3-0.9-0.8-1.2-1.3
		c-0.3-0.6-0.4-1.2-0.4-1.9C174.7,134.3,174.9,133.7,175.2,133.1z M180.4,133.7c-0.2-0.4-0.5-0.7-0.9-0.9c-0.4-0.2-0.8-0.3-1.2-0.3
		c-0.4,0-0.8,0.1-1.2,0.3c-0.4,0.2-0.7,0.5-0.9,0.9c-0.2,0.4-0.3,0.9-0.3,1.4c0,0.5,0.1,1,0.3,1.4c0.2,0.4,0.5,0.7,0.9,0.9
		c0.4,0.2,0.8,0.3,1.2,0.3c0.4,0,0.8-0.1,1.2-0.3c0.4-0.2,0.7-0.5,0.9-0.9c0.2-0.4,0.3-0.9,0.3-1.4
		C180.7,134.5,180.6,134.1,180.4,133.7z M179.8,129.5L177,131v-0.9l2.8-1.6V129.5z"/>
	<path class="st45" d="M185,138.5c-0.4-0.2-0.8-0.4-1-0.8c-0.3-0.3-0.4-0.7-0.4-1.2h1.2c0,0.4,0.2,0.7,0.5,0.9
		c0.3,0.2,0.7,0.4,1.2,0.4c0.5,0,0.8-0.1,1.1-0.3c0.3-0.2,0.4-0.5,0.4-0.8c0-0.3-0.1-0.5-0.4-0.7c-0.3-0.2-0.7-0.3-1.3-0.4
		c-0.5-0.1-1-0.3-1.3-0.4c-0.3-0.1-0.6-0.3-0.8-0.6c-0.2-0.3-0.4-0.6-0.4-1.1c0-0.4,0.1-0.7,0.3-1c0.2-0.3,0.5-0.6,0.9-0.7
		c0.4-0.2,0.9-0.3,1.4-0.3c0.8,0,1.4,0.2,1.9,0.6s0.7,0.9,0.8,1.6h-1.2c0-0.4-0.2-0.7-0.4-0.9c-0.3-0.2-0.6-0.4-1.1-0.4
		c-0.4,0-0.8,0.1-1,0.3s-0.4,0.4-0.4,0.8c0,0.2,0.1,0.4,0.2,0.6c0.2,0.2,0.3,0.3,0.6,0.4c0.2,0.1,0.5,0.2,1,0.3
		c0.5,0.1,0.9,0.3,1.2,0.4c0.3,0.1,0.6,0.3,0.8,0.6c0.2,0.3,0.3,0.6,0.3,1c0,0.4-0.1,0.8-0.3,1.1c-0.2,0.3-0.5,0.6-0.9,0.7
		c-0.4,0.2-0.8,0.3-1.4,0.3C185.9,138.8,185.4,138.7,185,138.5z"/>
	<path class="st45" d="M194.6,130.1c-0.2-0.2-0.2-0.3-0.2-0.6s0.1-0.4,0.2-0.6c0.2-0.2,0.3-0.2,0.6-0.2c0.2,0,0.4,0.1,0.6,0.2
		c0.2,0.2,0.2,0.3,0.2,0.6s-0.1,0.4-0.2,0.6c-0.2,0.2-0.3,0.2-0.6,0.2C195,130.4,194.8,130.3,194.6,130.1z M195.8,131.5v7.1h-1.2
		v-7.1H195.8z"/>
	<path class="st45" d="M203.4,132.2c0.5,0.5,0.8,1.3,0.8,2.3v4.2H203v-4c0-0.7-0.2-1.3-0.5-1.6c-0.4-0.4-0.8-0.6-1.5-0.6
		c-0.6,0-1.1,0.2-1.5,0.6c-0.4,0.4-0.6,1-0.6,1.7v3.9h-1.2v-7.1h1.2v1c0.2-0.4,0.6-0.6,1-0.8c0.4-0.2,0.8-0.3,1.3-0.3
		C202.1,131.4,202.8,131.6,203.4,132.2z"/>
	<path class="st45" d="M209,132.5h-1.5v6.1h-1.2v-6.1h-0.9v-1h0.9V131c0-0.8,0.2-1.4,0.6-1.7s1.1-0.6,2-0.6v1
		c-0.5,0-0.9,0.1-1.1,0.3c-0.2,0.2-0.3,0.5-0.3,1v0.5h1.5V132.5z"/>
	<path class="st45" d="M211.7,138.3c-0.5-0.3-1-0.7-1.3-1.3c-0.3-0.6-0.5-1.2-0.5-1.9c0-0.7,0.2-1.4,0.5-1.9c0.3-0.6,0.7-1,1.3-1.3
		c0.5-0.3,1.2-0.4,1.8-0.4c0.7,0,1.3,0.2,1.8,0.4c0.5,0.3,1,0.7,1.3,1.3c0.3,0.6,0.5,1.2,0.5,1.9c0,0.7-0.2,1.4-0.5,1.9
		c-0.3,0.6-0.8,1-1.3,1.3c-0.6,0.3-1.2,0.5-1.8,0.5C212.8,138.8,212.2,138.6,211.7,138.3z M214.7,137.4c0.4-0.2,0.7-0.5,0.9-0.9
		c0.2-0.4,0.3-0.9,0.3-1.5c0-0.6-0.1-1.1-0.3-1.5c-0.2-0.4-0.5-0.7-0.9-0.9c-0.4-0.2-0.8-0.3-1.2-0.3c-0.4,0-0.8,0.1-1.2,0.3
		c-0.4,0.2-0.6,0.5-0.9,0.9c-0.2,0.4-0.3,0.9-0.3,1.5c0,0.6,0.1,1.1,0.3,1.5c0.2,0.4,0.5,0.7,0.9,0.9c0.4,0.2,0.7,0.3,1.2,0.3
		S214.3,137.6,214.7,137.4z"/>
	<path class="st45" d="M223.6,138.5c-0.4-0.2-0.8-0.4-1-0.8c-0.3-0.3-0.4-0.7-0.4-1.2h1.2c0,0.4,0.2,0.7,0.5,0.9
		c0.3,0.2,0.7,0.4,1.2,0.4c0.5,0,0.8-0.1,1.1-0.3c0.3-0.2,0.4-0.5,0.4-0.8c0-0.3-0.1-0.5-0.4-0.7c-0.3-0.2-0.7-0.3-1.3-0.4
		c-0.5-0.1-1-0.3-1.3-0.4c-0.3-0.1-0.6-0.3-0.8-0.6c-0.2-0.3-0.4-0.6-0.4-1.1c0-0.4,0.1-0.7,0.3-1c0.2-0.3,0.5-0.6,0.9-0.7
		c0.4-0.2,0.9-0.3,1.4-0.3c0.8,0,1.4,0.2,1.9,0.6s0.7,0.9,0.8,1.6h-1.2c0-0.4-0.2-0.7-0.4-0.9c-0.3-0.2-0.6-0.4-1.1-0.4
		c-0.4,0-0.8,0.1-1,0.3s-0.4,0.4-0.4,0.8c0,0.2,0.1,0.4,0.2,0.6c0.2,0.2,0.3,0.3,0.6,0.4c0.2,0.1,0.5,0.2,1,0.3
		c0.5,0.1,0.9,0.3,1.2,0.4c0.3,0.1,0.6,0.3,0.8,0.6c0.2,0.3,0.3,0.6,0.3,1c0,0.4-0.1,0.8-0.3,1.1c-0.2,0.3-0.5,0.6-0.9,0.7
		c-0.4,0.2-0.8,0.3-1.4,0.3C224.6,138.8,224.1,138.7,223.6,138.5z"/>
	<path class="st45" d="M230.7,138.3c-0.5-0.3-1-0.7-1.3-1.3c-0.3-0.6-0.5-1.2-0.5-1.9c0-0.7,0.2-1.4,0.5-1.9c0.3-0.6,0.7-1,1.3-1.3
		c0.5-0.3,1.2-0.4,1.8-0.4c0.7,0,1.3,0.2,1.8,0.4c0.5,0.3,1,0.7,1.3,1.3c0.3,0.6,0.5,1.2,0.5,1.9c0,0.7-0.2,1.4-0.5,1.9
		c-0.3,0.6-0.8,1-1.3,1.3c-0.6,0.3-1.2,0.5-1.8,0.5C231.8,138.8,231.2,138.6,230.7,138.3z M233.7,137.4c0.4-0.2,0.7-0.5,0.9-0.9
		c0.2-0.4,0.3-0.9,0.3-1.5c0-0.6-0.1-1.1-0.3-1.5c-0.2-0.4-0.5-0.7-0.9-0.9c-0.4-0.2-0.8-0.3-1.2-0.3c-0.4,0-0.8,0.1-1.2,0.3
		c-0.4,0.2-0.6,0.5-0.9,0.9c-0.2,0.4-0.3,0.9-0.3,1.5c0,0.6,0.1,1.1,0.3,1.5c0.2,0.4,0.5,0.7,0.9,0.9c0.4,0.2,0.7,0.3,1.2,0.3
		S233.3,137.6,233.7,137.4z"/>
	<path class="st45" d="M239.9,131.8c0.5-0.3,1-0.4,1.6-0.4c0.6,0,1.2,0.2,1.7,0.5c0.5,0.3,0.9,0.7,1.2,1.3c0.3,0.5,0.4,1.2,0.4,1.9
		c0,0.7-0.1,1.4-0.4,1.9c-0.3,0.6-0.7,1-1.2,1.3c-0.5,0.3-1.1,0.5-1.7,0.5c-0.6,0-1.2-0.1-1.6-0.4c-0.5-0.3-0.8-0.6-1-1v1.3h-1.2
		V129h1.2v3.8C239.1,132.4,239.5,132.1,239.9,131.8z M243.4,133.6c-0.2-0.4-0.5-0.7-0.9-0.9s-0.8-0.3-1.2-0.3
		c-0.4,0-0.8,0.1-1.2,0.3c-0.4,0.2-0.7,0.5-0.9,0.9c-0.2,0.4-0.3,0.9-0.3,1.4c0,0.5,0.1,1,0.3,1.4c0.2,0.4,0.5,0.7,0.9,0.9
		c0.4,0.2,0.8,0.3,1.2,0.3c0.4,0,0.8-0.1,1.2-0.3c0.4-0.2,0.7-0.5,0.9-0.9c0.2-0.4,0.3-0.9,0.3-1.4
		C243.7,134.5,243.6,134,243.4,133.6z"/>
	<path class="st45" d="M248.6,131.8c0.4-0.3,0.9-0.4,1.4-0.4v1.2h-0.3c-1.3,0-2,0.7-2,2.2v3.9h-1.2v-7.1h1.2v1.4
		C247.9,132.4,248.2,132,248.6,131.8z"/>
	<path class="st45" d="M257.8,135.5h-5.7c0,0.7,0.3,1.3,0.7,1.7c0.4,0.4,1,0.6,1.6,0.6c0.5,0,0.9-0.1,1.3-0.4s0.6-0.6,0.7-1h1.3
		c-0.2,0.7-0.6,1.2-1.1,1.7c-0.6,0.4-1.3,0.6-2.1,0.6c-0.7,0-1.3-0.2-1.8-0.5c-0.5-0.3-1-0.7-1.3-1.3c-0.3-0.6-0.5-1.2-0.5-1.9
		c0-0.7,0.1-1.4,0.4-1.9c0.3-0.6,0.7-1,1.2-1.3c0.5-0.3,1.1-0.4,1.8-0.4c0.7,0,1.3,0.1,1.8,0.4s0.9,0.7,1.2,1.2
		c0.3,0.5,0.4,1.1,0.4,1.7C257.8,135,257.8,135.2,257.8,135.5z M256.3,133.4c-0.2-0.3-0.5-0.6-0.8-0.8c-0.3-0.2-0.7-0.3-1.1-0.3
		c-0.6,0-1.1,0.2-1.5,0.6s-0.7,0.9-0.7,1.6h4.5C256.6,134.1,256.5,133.7,256.3,133.4z"/>
	<path class="st45" d="M269.7,135.5H264c0,0.7,0.3,1.3,0.7,1.7c0.4,0.4,1,0.6,1.6,0.6c0.5,0,0.9-0.1,1.3-0.4s0.6-0.6,0.7-1h1.3
		c-0.2,0.7-0.6,1.2-1.1,1.7c-0.6,0.4-1.3,0.6-2.1,0.6c-0.7,0-1.3-0.2-1.8-0.5c-0.5-0.3-1-0.7-1.3-1.3c-0.3-0.6-0.5-1.2-0.5-1.9
		c0-0.7,0.1-1.4,0.4-1.9c0.3-0.6,0.7-1,1.2-1.3c0.5-0.3,1.1-0.4,1.8-0.4c0.7,0,1.3,0.1,1.8,0.4s0.9,0.7,1.2,1.2
		c0.3,0.5,0.4,1.1,0.4,1.7C269.8,135,269.8,135.2,269.7,135.5z M268.2,133.4c-0.2-0.3-0.5-0.6-0.8-0.8c-0.3-0.2-0.7-0.3-1.1-0.3
		c-0.6,0-1.1,0.2-1.5,0.6s-0.7,0.9-0.7,1.6h4.5C268.5,134.1,268.4,133.7,268.2,133.4z"/>
	<path class="st45" d="M276.9,132.2c0.5,0.5,0.8,1.3,0.8,2.3v4.2h-1.2v-4c0-0.7-0.2-1.3-0.5-1.6c-0.4-0.4-0.8-0.6-1.5-0.6
		c-0.6,0-1.1,0.2-1.5,0.6c-0.4,0.4-0.6,1-0.6,1.7v3.9h-1.2v-7.1h1.2v1c0.2-0.4,0.6-0.6,1-0.8c0.4-0.2,0.8-0.3,1.3-0.3
		C275.7,131.4,276.4,131.6,276.9,132.2z"/>
	<path class="st45" d="M282.3,137.5l2.2-6h1.3l-2.8,7.1h-1.4l-2.8-7.1h1.3L282.3,137.5z"/>
	<path class="st45" d="M288.8,129.5L286,131v-0.9l2.8-1.6V129.5z M288.1,131.5v7.1h-1.2v-7.1H288.1z"/>
	<path class="st45" d="M291.4,138.3c-0.5-0.3-1-0.7-1.3-1.3c-0.3-0.6-0.5-1.2-0.5-1.9c0-0.7,0.2-1.4,0.5-1.9c0.3-0.6,0.7-1,1.3-1.3
		c0.5-0.3,1.2-0.4,1.8-0.4c0.7,0,1.3,0.2,1.8,0.4c0.5,0.3,1,0.7,1.3,1.3c0.3,0.6,0.5,1.2,0.5,1.9c0,0.7-0.2,1.4-0.5,1.9
		c-0.3,0.6-0.8,1-1.3,1.3c-0.6,0.3-1.2,0.5-1.8,0.5C292.6,138.8,292,138.6,291.4,138.3z M294.4,137.4c0.4-0.2,0.7-0.5,0.9-0.9
		c0.2-0.4,0.3-0.9,0.3-1.5c0-0.6-0.1-1.1-0.3-1.5c-0.2-0.4-0.5-0.7-0.9-0.9c-0.4-0.2-0.8-0.3-1.2-0.3c-0.4,0-0.8,0.1-1.2,0.3
		c-0.4,0.2-0.6,0.5-0.9,0.9c-0.2,0.4-0.3,0.9-0.3,1.5c0,0.6,0.1,1.1,0.3,1.5c0.2,0.4,0.5,0.7,0.9,0.9c0.4,0.2,0.7,0.3,1.2,0.3
		S294.1,137.6,294.4,137.4z"/>
	<path class="st45" d="M299.5,138.5c-0.4-0.2-0.8-0.4-1-0.8c-0.3-0.3-0.4-0.7-0.4-1.2h1.2c0,0.4,0.2,0.7,0.5,0.9
		c0.3,0.2,0.7,0.4,1.2,0.4c0.5,0,0.8-0.1,1.1-0.3c0.3-0.2,0.4-0.5,0.4-0.8c0-0.3-0.1-0.5-0.4-0.7c-0.3-0.2-0.7-0.3-1.3-0.4
		c-0.5-0.1-1-0.3-1.3-0.4c-0.3-0.1-0.6-0.3-0.8-0.6c-0.2-0.3-0.4-0.6-0.4-1.1c0-0.4,0.1-0.7,0.3-1c0.2-0.3,0.5-0.6,0.9-0.7
		c0.4-0.2,0.9-0.3,1.4-0.3c0.8,0,1.4,0.2,1.9,0.6s0.7,0.9,0.8,1.6h-1.2c0-0.4-0.2-0.7-0.4-0.9c-0.3-0.2-0.6-0.4-1.1-0.4
		c-0.4,0-0.8,0.1-1,0.3s-0.4,0.4-0.4,0.8c0,0.2,0.1,0.4,0.2,0.6c0.2,0.2,0.3,0.3,0.6,0.4c0.2,0.1,0.5,0.2,1,0.3
		c0.5,0.1,0.9,0.3,1.2,0.4c0.3,0.1,0.6,0.3,0.8,0.6c0.2,0.3,0.3,0.6,0.3,1c0,0.4-0.1,0.8-0.3,1.1c-0.2,0.3-0.5,0.6-0.9,0.7
		c-0.4,0.2-0.8,0.3-1.4,0.3C300.4,138.8,299.9,138.7,299.5,138.5z"/>
</g>
</svg>
