<?xml version="1.0" encoding="utf-8"?>
<!-- Generator: Adobe Illustrator 27.5.0, SVG Export Plug-In . SVG Version: 6.00 Build 0)  -->
<svg version="1.1" id="Capa_1" xmlns="http://www.w3.org/2000/svg" xmlns:xlink="http://www.w3.org/1999/xlink" x="0px" y="0px"
	 viewBox="0 0 465 153.1" style="enable-background:new 0 0 465 153.1;" xml:space="preserve">
<style type="text/css">
	.st0{fill:#212121;}
	.st1{fill:#5B5B5B;}
	.st2{fill:#DB0000;}
</style>
<g>
	<path class="st0" d="M152.3,76.6V80h4.4v2h-4.4v3.5h4.9v2.1h-7.5v-13h7.5v2H152.3z"/>
	<path class="st0" d="M162.2,73.8v13.7h-2.6V73.8H162.2z"/>
	<path class="st0" d="M174.2,83.1h-7.5c0,0.8,0.3,1.3,0.8,1.8c0.5,0.4,1,0.6,1.7,0.6c1,0,1.6-0.4,2.1-1.2h2.8
		c-0.3,1-0.9,1.8-1.7,2.4s-1.9,1-3.1,1c-1,0-1.9-0.2-2.7-0.7c-0.8-0.4-1.4-1.1-1.8-1.9c-0.4-0.8-0.7-1.7-0.7-2.8
		c0-1.1,0.2-2,0.6-2.8s1-1.4,1.8-1.9c0.8-0.4,1.7-0.6,2.7-0.6s1.9,0.2,2.6,0.6c0.8,0.4,1.4,1,1.8,1.8s0.6,1.7,0.6,2.7
		C174.3,82.5,174.3,82.8,174.2,83.1z M171.6,81.5c0-0.7-0.3-1.3-0.7-1.7c-0.5-0.4-1-0.6-1.7-0.6s-1.2,0.2-1.7,0.6
		c-0.4,0.4-0.7,1-0.8,1.7H171.6z"/>
	<path class="st0" d="M182.2,77.5c0.6,0.3,1,0.7,1.4,1.2v-1.5h2.6v10.3c0,1-0.2,1.8-0.6,2.5c-0.4,0.7-1,1.3-1.7,1.8
		c-0.8,0.4-1.7,0.7-2.8,0.7c-1.5,0-2.7-0.3-3.6-1c-0.9-0.7-1.5-1.6-1.6-2.8h2.6c0.1,0.5,0.4,0.8,0.9,1.1c0.5,0.3,1,0.4,1.6,0.4
		c0.8,0,1.4-0.2,1.8-0.7c0.5-0.5,0.7-1.1,0.7-2V86c-0.3,0.5-0.8,0.9-1.4,1.2c-0.6,0.3-1.3,0.5-2,0.5c-0.9,0-1.7-0.2-2.4-0.7
		c-0.7-0.4-1.3-1.1-1.7-1.9s-0.6-1.7-0.6-2.8c0-1,0.2-2,0.6-2.8s1-1.4,1.7-1.9c0.7-0.4,1.5-0.6,2.4-0.6
		C181,77.1,181.6,77.2,182.2,77.5z M183.2,80.8c-0.2-0.5-0.6-0.8-1-1s-0.9-0.4-1.4-0.4s-0.9,0.1-1.3,0.4c-0.4,0.2-0.7,0.6-1,1
		c-0.3,0.5-0.4,1-0.4,1.6s0.1,1.2,0.4,1.6c0.3,0.5,0.6,0.8,1,1.1c0.4,0.2,0.9,0.4,1.3,0.4c0.5,0,0.9-0.1,1.4-0.4
		c0.4-0.2,0.8-0.6,1-1s0.4-1,0.4-1.6C183.6,81.8,183.5,81.2,183.2,80.8z"/>
	<path class="st0" d="M192.2,74.6l-4.3,1.9v-1.9l4.3-2.2V74.6z M191.4,77.2v10.3h-2.6V77.2H191.4z"/>
	<path class="st0" d="M199.3,77.6c0.6-1,1.4-1.8,2.4-2.4s2.1-0.8,3.3-0.8c1.4,0,2.7,0.4,3.8,1.1s1.8,1.8,2.3,3.1h-3
		c-0.3-0.6-0.7-1-1.3-1.3c-0.5-0.3-1.1-0.5-1.9-0.5c-0.8,0-1.4,0.2-2,0.5s-1,0.8-1.4,1.5c-0.3,0.6-0.5,1.4-0.5,2.2
		c0,0.8,0.2,1.6,0.5,2.2s0.8,1.1,1.4,1.5s1.3,0.5,2,0.5s1.3-0.2,1.9-0.5c0.5-0.3,1-0.8,1.3-1.4h3c-0.4,1.3-1.2,2.4-2.3,3.1
		s-2.4,1.1-3.8,1.1c-1.2,0-2.4-0.3-3.3-0.8c-1-0.6-1.8-1.3-2.4-2.3c-0.6-1-0.9-2.1-0.9-3.4C198.5,79.8,198.7,78.6,199.3,77.6z"/>
	<path class="st0" d="M215.2,87c-0.8-0.4-1.4-1.1-1.9-1.9s-0.7-1.7-0.7-2.8c0-1.1,0.2-2,0.7-2.8s1.1-1.4,1.9-1.9
		c0.8-0.4,1.7-0.7,2.7-0.7s1.9,0.2,2.7,0.7c0.8,0.4,1.4,1.1,1.9,1.9s0.7,1.7,0.7,2.8c0,1-0.2,2-0.7,2.8s-1.1,1.4-1.9,1.9
		c-0.8,0.4-1.7,0.7-2.7,0.7S216,87.5,215.2,87z M219.2,85.1c0.4-0.2,0.7-0.6,1-1c0.2-0.5,0.4-1,0.4-1.7s-0.1-1.2-0.4-1.7
		c-0.2-0.5-0.6-0.8-1-1s-0.8-0.4-1.3-0.4c-0.7,0-1.3,0.3-1.9,0.8c-0.5,0.5-0.8,1.3-0.8,2.3s0.2,1.7,0.7,2.3c0.5,0.5,1.1,0.8,1.8,0.8
		C218.4,85.5,218.8,85.3,219.2,85.1z M220.1,74.6l-4.3,1.9v-1.9l4.3-2.2V74.6z"/>
	<path class="st0" d="M241,78.3c0.8,0.8,1.2,1.9,1.2,3.2v6h-2.6v-5.7c0-0.8-0.2-1.4-0.6-1.8s-1-0.6-1.7-0.6s-1.3,0.2-1.7,0.6
		s-0.6,1-0.6,1.8v5.7h-2.6v-5.7c0-0.8-0.2-1.4-0.6-1.8s-1-0.6-1.7-0.6s-1.3,0.2-1.7,0.6s-0.6,1-0.6,1.8v5.7h-2.6V77.2h2.6v1.2
		c0.3-0.4,0.8-0.8,1.3-1s1.1-0.4,1.7-0.4c0.8,0,1.5,0.2,2.2,0.5s1.1,0.8,1.5,1.5c0.3-0.6,0.8-1.1,1.5-1.4c0.6-0.4,1.3-0.5,2.1-0.5
		C239.2,77.1,240.2,77.5,241,78.3z"/>
	<path class="st0" d="M246.5,87c-0.8-0.4-1.4-1.1-1.9-1.9s-0.7-1.7-0.7-2.8c0-1.1,0.2-2,0.7-2.8s1.1-1.4,1.9-1.9
		c0.8-0.4,1.7-0.7,2.7-0.7s1.9,0.2,2.7,0.7c0.8,0.4,1.4,1.1,1.9,1.9s0.7,1.7,0.7,2.8c0,1-0.2,2-0.7,2.8s-1.1,1.4-1.9,1.9
		c-0.8,0.4-1.7,0.7-2.7,0.7S247.3,87.5,246.5,87z M250.5,85.1c0.4-0.2,0.7-0.6,1-1c0.2-0.5,0.4-1,0.4-1.7s-0.1-1.2-0.4-1.7
		c-0.2-0.5-0.6-0.8-1-1s-0.8-0.4-1.3-0.4c-0.7,0-1.3,0.3-1.9,0.8c-0.5,0.5-0.8,1.3-0.8,2.3s0.2,1.7,0.7,2.3c0.5,0.5,1.1,0.8,1.8,0.8
		C249.6,85.5,250.1,85.3,250.5,85.1z"/>
	<path class="st0" d="M270.3,80.5c-0.3,0.6-0.8,1.1-1.5,1.5s-1.6,0.6-2.6,0.6H264v5h-2.6v-13h4.8c1,0,1.9,0.2,2.6,0.5
		s1.2,0.8,1.6,1.4s0.5,1.3,0.5,2.1C270.8,79.3,270.6,79.9,270.3,80.5z M267.6,80c0.4-0.3,0.5-0.8,0.5-1.4s-0.2-1.1-0.5-1.4
		s-0.9-0.5-1.6-0.5h-2v3.9h2.1C266.7,80.5,267.3,80.3,267.6,80z"/>
	<path class="st0" d="M272.6,79.6c0.4-0.8,1-1.4,1.7-1.9c0.7-0.4,1.5-0.6,2.4-0.6c0.8,0,1.4,0.2,2,0.5s1,0.7,1.4,1.2v-1.5h2.6v10.3
		h-2.6V86c-0.3,0.5-0.8,0.9-1.4,1.2c-0.6,0.3-1.3,0.5-2,0.5c-0.9,0-1.7-0.2-2.4-0.7c-0.7-0.4-1.3-1.1-1.7-1.9s-0.6-1.7-0.6-2.8
		C272,81.3,272.2,80.4,272.6,79.6z M279.7,80.8c-0.2-0.5-0.6-0.8-1-1s-0.9-0.4-1.4-0.4s-0.9,0.1-1.3,0.4c-0.4,0.2-0.7,0.6-1,1
		c-0.3,0.5-0.4,1-0.4,1.6s0.1,1.2,0.4,1.6c0.3,0.5,0.6,0.8,1,1.1c0.4,0.2,0.9,0.4,1.3,0.4c0.5,0,0.9-0.1,1.4-0.4
		c0.4-0.2,0.8-0.6,1-1s0.4-1,0.4-1.6C280.1,81.8,279.9,81.2,279.7,80.8z"/>
	<path class="st0" d="M291.3,77.5c0.6,0.3,1,0.7,1.4,1.2v-1.5h2.6v10.3c0,1-0.2,1.8-0.6,2.5s-1,1.3-1.7,1.8
		c-0.8,0.4-1.7,0.7-2.8,0.7c-1.5,0-2.7-0.3-3.6-1s-1.5-1.6-1.6-2.8h2.6c0.1,0.5,0.4,0.8,0.9,1.1c0.5,0.3,1,0.4,1.6,0.4
		c0.8,0,1.4-0.2,1.8-0.7c0.5-0.5,0.7-1.1,0.7-2V86c-0.3,0.5-0.8,0.9-1.4,1.2c-0.6,0.3-1.3,0.5-2,0.5c-0.9,0-1.7-0.2-2.4-0.7
		c-0.7-0.4-1.3-1.1-1.7-1.9s-0.6-1.7-0.6-2.8c0-1,0.2-2,0.6-2.8s1-1.4,1.7-1.9c0.7-0.4,1.5-0.6,2.4-0.6
		C290,77.1,290.7,77.2,291.3,77.5z M292.3,80.8c-0.2-0.5-0.6-0.8-1-1s-0.9-0.4-1.4-0.4s-0.9,0.1-1.3,0.4c-0.4,0.2-0.7,0.6-1,1
		c-0.3,0.5-0.4,1-0.4,1.6s0.1,1.2,0.4,1.6c0.3,0.5,0.6,0.8,1,1.1c0.4,0.2,0.9,0.4,1.3,0.4c0.5,0,0.9-0.1,1.4-0.4
		c0.4-0.2,0.8-0.6,1-1s0.4-1,0.4-1.6C292.6,81.8,292.5,81.2,292.3,80.8z"/>
	<path class="st0" d="M297.7,79.6c0.4-0.8,1-1.4,1.7-1.9c0.7-0.4,1.5-0.6,2.4-0.6c0.8,0,1.4,0.2,2,0.5s1,0.7,1.4,1.2v-1.5h2.6v10.3
		h-2.6V86c-0.3,0.5-0.8,0.9-1.4,1.2c-0.6,0.3-1.3,0.5-2,0.5c-0.9,0-1.7-0.2-2.4-0.7c-0.7-0.4-1.3-1.1-1.7-1.9s-0.6-1.7-0.6-2.8
		C297.1,81.3,297.3,80.4,297.7,79.6z M304.8,80.8c-0.2-0.5-0.6-0.8-1-1s-0.9-0.4-1.4-0.4s-0.9,0.1-1.3,0.4c-0.4,0.2-0.7,0.6-1,1
		c-0.3,0.5-0.4,1-0.4,1.6s0.1,1.2,0.4,1.6c0.3,0.5,0.6,0.8,1,1.1c0.4,0.2,0.9,0.4,1.3,0.4c0.5,0,0.9-0.1,1.4-0.4
		c0.4-0.2,0.8-0.6,1-1s0.4-1,0.4-1.6C305.2,81.8,305.1,81.2,304.8,80.8z"/>
	<path class="st0" d="M314.3,77.6c0.5-0.3,1.2-0.5,1.8-0.5v2.7h-0.7c-0.8,0-1.4,0.2-1.8,0.6s-0.6,1.1-0.6,2v5.1h-2.6V77.2h2.6V79
		C313.3,78.4,313.7,78,314.3,77.6z"/>
</g>
<g>
	<path class="st1" d="M56.3,98.4v9.1h-1.8v-5.9l-2.4,5.9h-1.4l-2.4-5.9v5.9h-1.8v-9.1h2.1l2.9,6.7l2.9-6.7H56.3z"/>
	<path class="st1" d="M64.7,104.3h-5.3c0,0.5,0.2,0.9,0.5,1.2c0.3,0.3,0.7,0.5,1.2,0.5c0.7,0,1.2-0.3,1.4-0.9h2
		c-0.2,0.7-0.6,1.3-1.2,1.7s-1.3,0.7-2.2,0.7c-0.7,0-1.3-0.2-1.9-0.5c-0.6-0.3-1-0.7-1.3-1.3s-0.5-1.2-0.5-2c0-0.7,0.2-1.4,0.5-2
		s0.7-1,1.3-1.3c0.5-0.3,1.2-0.5,1.9-0.5s1.3,0.1,1.8,0.4s1,0.7,1.3,1.2c0.3,0.5,0.4,1.2,0.4,1.9C64.8,103.9,64.7,104.1,64.7,104.3z
		 M62.9,103.2c0-0.5-0.2-0.9-0.5-1.2s-0.7-0.4-1.2-0.4s-0.8,0.1-1.2,0.4s-0.5,0.7-0.6,1.2H62.9z"/>
	<path class="st1" d="M68.8,100.5c0.4-0.2,0.8-0.4,1.3-0.4v1.9h-0.5c-0.6,0-1,0.1-1.3,0.4s-0.4,0.7-0.4,1.4v3.6h-1.8v-7.2h1.8v1.3
		C68.1,101.1,68.4,100.7,68.8,100.5z"/>
	<path class="st1" d="M71.3,101.9c0.3-0.6,0.7-1,1.3-1.3c0.5-0.3,1.2-0.5,1.8-0.5c0.9,0,1.6,0.2,2.2,0.7s1,1.1,1.2,1.9h-2
		c-0.1-0.3-0.3-0.6-0.5-0.7s-0.6-0.3-0.9-0.3c-0.5,0-0.9,0.2-1.2,0.6c-0.3,0.4-0.5,0.9-0.5,1.6s0.2,1.2,0.5,1.6s0.7,0.6,1.2,0.6
		c0.7,0,1.2-0.3,1.4-1h2c-0.2,0.8-0.6,1.4-1.2,1.9s-1.3,0.7-2.2,0.7c-0.7,0-1.3-0.2-1.8-0.5s-1-0.7-1.3-1.3c-0.3-0.6-0.5-1.2-0.5-2
		C70.9,103.1,71,102.4,71.3,101.9z"/>
	<path class="st1" d="M79.1,101.9c0.3-0.6,0.7-1,1.2-1.3s1.1-0.5,1.7-0.5c0.5,0,1,0.1,1.4,0.3c0.4,0.2,0.7,0.5,1,0.8v-1h1.8v7.2
		h-1.8v-1.1c-0.2,0.3-0.6,0.6-1,0.8s-0.9,0.3-1.4,0.3c-0.6,0-1.2-0.2-1.7-0.5s-0.9-0.8-1.2-1.3c-0.3-0.6-0.4-1.2-0.4-2
		C78.7,103.1,78.8,102.4,79.1,101.9z M84.1,102.7c-0.2-0.3-0.4-0.6-0.7-0.7c-0.3-0.2-0.6-0.3-0.9-0.3s-0.6,0.1-0.9,0.2
		c-0.3,0.2-0.5,0.4-0.7,0.7c-0.2,0.3-0.3,0.7-0.3,1.1s0.1,0.8,0.3,1.1c0.2,0.3,0.4,0.6,0.7,0.7c0.3,0.2,0.6,0.3,0.9,0.3
		s0.7-0.1,0.9-0.3c0.3-0.2,0.5-0.4,0.7-0.7s0.3-0.7,0.3-1.1C84.4,103.4,84.3,103,84.1,102.7z"/>
	<path class="st1" d="M87.9,101.9c0.3-0.6,0.7-1,1.2-1.3s1.1-0.5,1.7-0.5c0.5,0,0.9,0.1,1.3,0.3c0.4,0.2,0.8,0.5,1,0.8v-3.4H95v9.6
		h-1.8v-1.1c-0.2,0.4-0.5,0.6-0.9,0.9c-0.4,0.2-0.9,0.3-1.4,0.3c-0.6,0-1.2-0.2-1.7-0.5s-0.9-0.8-1.2-1.3c-0.3-0.6-0.4-1.2-0.4-2
		C87.5,103.1,87.7,102.4,87.9,101.9z M92.9,102.7c-0.2-0.3-0.4-0.6-0.7-0.7c-0.3-0.2-0.6-0.3-0.9-0.3s-0.6,0.1-0.9,0.2
		c-0.3,0.2-0.5,0.4-0.7,0.7c-0.2,0.3-0.3,0.7-0.3,1.1s0.1,0.8,0.3,1.1c0.2,0.3,0.4,0.6,0.7,0.7c0.3,0.2,0.6,0.3,0.9,0.3
		s0.7-0.1,0.9-0.3c0.3-0.2,0.5-0.4,0.7-0.7s0.3-0.7,0.3-1.1C93.2,103.4,93.1,103,92.9,102.7z"/>
	<path class="st1" d="M98.1,107.1c-0.6-0.3-1-0.7-1.3-1.3s-0.5-1.2-0.5-2c0-0.7,0.2-1.4,0.5-1.9c0.3-0.6,0.8-1,1.3-1.3
		c0.6-0.3,1.2-0.5,1.9-0.5s1.3,0.2,1.9,0.5s1,0.7,1.3,1.3c0.3,0.6,0.5,1.2,0.5,1.9c0,0.7-0.2,1.4-0.5,2s-0.8,1-1.4,1.3
		s-1.2,0.5-1.9,0.5C99.3,107.6,98.7,107.4,98.1,107.1z M100.9,105.7c0.3-0.2,0.5-0.4,0.7-0.7c0.2-0.3,0.3-0.7,0.3-1.2
		s-0.1-0.9-0.3-1.2c-0.2-0.3-0.4-0.6-0.7-0.7c-0.3-0.2-0.6-0.2-0.9-0.2c-0.5,0-0.9,0.2-1.3,0.6s-0.5,0.9-0.5,1.6s0.2,1.2,0.5,1.6
		s0.8,0.6,1.3,0.6C100.3,106,100.6,105.9,100.9,105.7z"/>
	<path class="st1" d="M111.4,102.5c-0.2,0.4-0.6,0.8-1.1,1s-1.1,0.4-1.9,0.4h-1.5v3.5h-1.8v-9.1h3.3c0.7,0,1.3,0.1,1.8,0.4
		c0.5,0.2,0.9,0.6,1.1,1s0.4,0.9,0.4,1.4C111.7,101.7,111.6,102.1,111.4,102.5z M109.5,102.2c0.2-0.2,0.4-0.6,0.4-1s-0.1-0.8-0.4-1
		s-0.6-0.4-1.1-0.4H107v2.7h1.4C108.8,102.5,109.2,102.4,109.5,102.2z"/>
	<path class="st1" d="M113,101.9c0.3-0.6,0.7-1,1.2-1.3s1.1-0.5,1.7-0.5c0.5,0,1,0.1,1.4,0.3c0.4,0.2,0.7,0.5,1,0.8v-1h1.8v7.2h-1.8
		v-1.1c-0.2,0.3-0.6,0.6-1,0.8s-0.9,0.3-1.4,0.3c-0.6,0-1.2-0.2-1.7-0.5s-0.9-0.8-1.2-1.3c-0.3-0.6-0.4-1.2-0.4-2
		C112.5,103.1,112.7,102.4,113,101.9z M117.9,102.7c-0.2-0.3-0.4-0.6-0.7-0.7c-0.3-0.2-0.6-0.3-0.9-0.3s-0.6,0.1-0.9,0.2
		c-0.3,0.2-0.5,0.4-0.7,0.7c-0.2,0.3-0.3,0.7-0.3,1.1s0.1,0.8,0.3,1.1c0.2,0.3,0.4,0.6,0.7,0.7c0.3,0.2,0.6,0.3,0.9,0.3
		s0.7-0.1,0.9-0.3c0.3-0.2,0.5-0.4,0.7-0.7s0.3-0.7,0.3-1.1C118.2,103.4,118.1,103,117.9,102.7z"/>
	<path class="st1" d="M126,100.4c0.4,0.2,0.7,0.5,1,0.8v-1h1.8v7.3c0,0.7-0.1,1.3-0.4,1.8s-0.7,0.9-1.2,1.2
		c-0.5,0.3-1.2,0.5-1.9,0.5c-1,0-1.9-0.2-2.5-0.7s-1-1.1-1.1-2h1.8c0.1,0.3,0.3,0.6,0.6,0.8c0.3,0.2,0.7,0.3,1.2,0.3s1-0.2,1.3-0.5
		s0.5-0.8,0.5-1.4v-1.1c-0.2,0.3-0.6,0.6-1,0.8c-0.4,0.2-0.9,0.3-1.4,0.3c-0.6,0-1.2-0.2-1.7-0.5s-0.9-0.8-1.2-1.3
		c-0.3-0.6-0.4-1.2-0.4-2c0-0.7,0.1-1.4,0.4-1.9c0.3-0.6,0.7-1,1.2-1.3s1.1-0.5,1.7-0.5C125.2,100.1,125.6,100.2,126,100.4z
		 M126.7,102.7c-0.2-0.3-0.4-0.6-0.7-0.7c-0.3-0.2-0.6-0.3-0.9-0.3s-0.6,0.1-0.9,0.2c-0.3,0.2-0.5,0.4-0.7,0.7
		c-0.2,0.3-0.3,0.7-0.3,1.1s0.1,0.8,0.3,1.1c0.2,0.3,0.4,0.6,0.7,0.7c0.3,0.2,0.6,0.3,0.9,0.3s0.7-0.1,0.9-0.3
		c0.3-0.2,0.5-0.4,0.7-0.7s0.3-0.7,0.3-1.1C127,103.4,126.9,103,126.7,102.7z"/>
	<path class="st1" d="M131.9,107.1c-0.6-0.3-1-0.7-1.3-1.3s-0.5-1.2-0.5-2c0-0.7,0.2-1.4,0.5-1.9c0.3-0.6,0.8-1,1.3-1.3
		c0.6-0.3,1.2-0.5,1.9-0.5s1.3,0.2,1.9,0.5c0.6,0.3,1,0.7,1.3,1.3c0.3,0.6,0.5,1.2,0.5,1.9c0,0.7-0.2,1.4-0.5,2s-0.8,1-1.4,1.3
		c-0.6,0.3-1.2,0.5-1.9,0.5C133.1,107.6,132.5,107.4,131.9,107.1z M134.7,105.7c0.3-0.2,0.5-0.4,0.7-0.7c0.2-0.3,0.3-0.7,0.3-1.2
		s-0.1-0.9-0.3-1.2c-0.2-0.3-0.4-0.6-0.7-0.7c-0.3-0.2-0.6-0.2-0.9-0.2c-0.5,0-0.9,0.2-1.3,0.6s-0.5,0.9-0.5,1.6s0.2,1.2,0.5,1.6
		s0.8,0.6,1.3,0.6C134.1,106,134.5,105.9,134.7,105.7z"/>
	<path class="st1" d="M144.3,101.3v4.2c0,0.3,0.1,0.6,0.2,0.7c0.1,0.1,0.4,0.2,0.8,0.2h0.9v1h-1.1c-0.7,0-1.2-0.2-1.5-0.5
		s-0.5-0.8-0.5-1.5v-4.2h-0.9v-1h0.9v-1.8h1.2v1.8h1.9v1h-1.9V101.3z"/>
	<path class="st1" d="M147.6,101.9c0.3-0.5,0.7-1,1.2-1.3s1.1-0.5,1.7-0.5c0.6,0,1.2,0.1,1.6,0.4s0.8,0.6,1,1v-1.3h1.2v7.1h-1.2V106
		c-0.2,0.4-0.6,0.8-1,1c-0.5,0.3-1,0.4-1.6,0.4s-1.2-0.2-1.7-0.5s-0.9-0.7-1.2-1.3c-0.3-0.6-0.4-1.2-0.4-1.9
		C147.2,103.1,147.3,102.5,147.6,101.9z M152.9,102.5c-0.2-0.4-0.5-0.7-0.9-0.9c-0.4-0.2-0.8-0.3-1.2-0.3s-0.8,0.1-1.2,0.3
		c-0.4,0.2-0.7,0.5-0.9,0.9s-0.3,0.9-0.3,1.4s0.1,1,0.3,1.4s0.5,0.7,0.9,0.9c0.4,0.2,0.8,0.3,1.2,0.3s0.8-0.1,1.2-0.3
		c0.4-0.2,0.7-0.5,0.9-0.9s0.3-0.9,0.3-1.4S153.1,102.9,152.9,102.5z"/>
	<path class="st1" d="M158.5,100.6c0.4-0.3,0.9-0.4,1.4-0.4v1.2h-0.3c-1.3,0-2,0.7-2,2.2v3.9h-1.2v-7.1h1.2v1.4
		C157.8,101.2,158.1,100.8,158.5,100.6z"/>
	<path class="st1" d="M162.5,109c0,0.6-0.2,1.1-0.5,1.4s-0.8,0.4-1.4,0.4h-0.7v-1h0.5c0.3,0,0.6-0.1,0.7-0.2s0.2-0.4,0.2-0.7v-8.6
		h1.2V109z M161.3,98.9c-0.2-0.2-0.2-0.3-0.2-0.6s0.1-0.4,0.2-0.6c0.2-0.2,0.3-0.2,0.6-0.2c0.2,0,0.4,0.1,0.6,0.2
		c0.2,0.2,0.2,0.3,0.2,0.6s-0.1,0.4-0.2,0.6c-0.2,0.2-0.3,0.2-0.6,0.2C161.7,99.2,161.5,99.1,161.3,98.9z"/>
	<path class="st1" d="M170.9,104.3h-5.7c0,0.7,0.3,1.3,0.7,1.7c0.4,0.4,1,0.6,1.6,0.6c0.5,0,0.9-0.1,1.3-0.4c0.3-0.2,0.6-0.6,0.7-1
		h1.3c-0.2,0.7-0.6,1.2-1.1,1.7c-0.6,0.4-1.3,0.6-2.1,0.6c-0.7,0-1.3-0.2-1.8-0.5s-1-0.7-1.3-1.3c-0.3-0.6-0.5-1.2-0.5-1.9
		s0.1-1.4,0.4-1.9c0.3-0.6,0.7-1,1.2-1.3s1.1-0.4,1.8-0.4s1.3,0.1,1.8,0.4s0.9,0.7,1.2,1.2s0.4,1.1,0.4,1.7
		C171,103.8,171,104,170.9,104.3z M169.5,102.2c-0.2-0.3-0.5-0.6-0.8-0.8c-0.3-0.2-0.7-0.3-1.1-0.3c-0.6,0-1.1,0.2-1.5,0.6
		s-0.7,0.9-0.7,1.6h4.5C169.8,102.9,169.7,102.5,169.5,102.2z"/>
	<path class="st1" d="M174,101.3v4.2c0,0.3,0.1,0.6,0.2,0.7c0.1,0.1,0.4,0.2,0.8,0.2h0.9v1h-1.1c-0.7,0-1.2-0.2-1.5-0.5
		s-0.5-0.8-0.5-1.5v-4.2h-0.9v-1h0.9v-1.8h1.2v1.8h1.9v1H174V101.3z"/>
	<path class="st1" d="M177.3,101.9c0.3-0.5,0.7-1,1.2-1.3s1.1-0.5,1.7-0.5c0.6,0,1.2,0.1,1.6,0.4s0.8,0.6,1,1v-1.3h1.2v7.1h-1.2V106
		c-0.2,0.4-0.6,0.8-1,1c-0.5,0.3-1,0.4-1.6,0.4s-1.2-0.2-1.7-0.5s-0.9-0.7-1.2-1.3c-0.3-0.6-0.4-1.2-0.4-1.9
		C176.8,103.1,177,102.5,177.3,101.9z M182.5,102.5c-0.2-0.4-0.5-0.7-0.9-0.9c-0.4-0.2-0.8-0.3-1.2-0.3s-0.8,0.1-1.2,0.3
		c-0.4,0.2-0.7,0.5-0.9,0.9s-0.3,0.9-0.3,1.4s0.1,1,0.3,1.4s0.5,0.7,0.9,0.9c0.4,0.2,0.8,0.3,1.2,0.3s0.8-0.1,1.2-0.3
		c0.4-0.2,0.7-0.5,0.9-0.9s0.3-0.9,0.3-1.4S182.8,102.9,182.5,102.5z"/>
	<path class="st1" d="M187.3,105.8l-1.5,3.5H185l0.9-3.5H187.3z"/>
	<path class="st1" d="M192.5,101.9c0.3-0.5,0.7-1,1.2-1.3s1.1-0.5,1.7-0.5c0.6,0,1.1,0.1,1.5,0.4s0.8,0.6,1.1,1v-3.8h1.2v9.6H198
		V106c-0.2,0.4-0.6,0.8-1,1c-0.5,0.3-1,0.4-1.6,0.4s-1.2-0.2-1.7-0.5s-0.9-0.7-1.2-1.3c-0.3-0.6-0.4-1.2-0.4-1.9
		C192.1,103.1,192.2,102.5,192.5,101.9z M197.8,102.5c-0.2-0.4-0.5-0.7-0.9-0.9c-0.4-0.2-0.8-0.3-1.2-0.3s-0.8,0.1-1.2,0.3
		c-0.4,0.2-0.7,0.5-0.9,0.9s-0.3,0.9-0.3,1.4s0.1,1,0.3,1.4s0.5,0.7,0.9,0.9c0.4,0.2,0.8,0.3,1.2,0.3s0.8-0.1,1.2-0.3
		c0.4-0.2,0.7-0.5,0.9-0.9s0.3-0.9,0.3-1.4S198,102.9,197.8,102.5z"/>
	<path class="st1" d="M207.8,104.3h-5.7c0,0.7,0.3,1.3,0.7,1.7c0.4,0.4,1,0.6,1.6,0.6c0.5,0,0.9-0.1,1.3-0.4c0.3-0.2,0.6-0.6,0.7-1
		h1.3c-0.2,0.7-0.6,1.2-1.1,1.7c-0.6,0.4-1.3,0.6-2.1,0.6c-0.7,0-1.3-0.2-1.8-0.5s-1-0.7-1.3-1.3c-0.3-0.6-0.5-1.2-0.5-1.9
		s0.1-1.4,0.4-1.9c0.3-0.6,0.7-1,1.2-1.3s1.1-0.4,1.8-0.4s1.3,0.1,1.8,0.4s0.9,0.7,1.2,1.2s0.4,1.1,0.4,1.7
		C207.8,103.8,207.8,104,207.8,104.3z M206.3,102.2c-0.2-0.3-0.5-0.6-0.8-0.8c-0.3-0.2-0.7-0.3-1.1-0.3c-0.6,0-1.1,0.2-1.5,0.6
		s-0.7,0.9-0.7,1.6h4.5C206.6,102.9,206.5,102.5,206.3,102.2z M205.6,98.3l-2.8,1.5v-0.9l2.8-1.6V98.3z"/>
	<path class="st1" d="M211.6,100.6c0.5-0.3,1-0.4,1.6-0.4s1.2,0.2,1.7,0.5s0.9,0.7,1.2,1.3c0.3,0.6,0.4,1.2,0.4,1.9
		c0,0.7-0.1,1.4-0.4,1.9c-0.3,0.6-0.7,1-1.2,1.3s-1.1,0.5-1.7,0.5c-0.6,0-1.2-0.1-1.6-0.4c-0.5-0.3-0.8-0.6-1-1v1.3h-1.2v-9.6h1.2
		v3.8C210.8,101.2,211.1,100.9,211.6,100.6z M215.1,102.4c-0.2-0.4-0.5-0.7-0.9-0.9s-0.8-0.3-1.2-0.3s-0.8,0.1-1.2,0.3
		c-0.4,0.2-0.7,0.5-0.9,0.9s-0.3,0.9-0.3,1.4s0.1,1,0.3,1.4s0.5,0.7,0.9,0.9c0.4,0.2,0.8,0.3,1.2,0.3s0.8-0.1,1.2-0.3
		c0.4-0.2,0.7-0.5,0.9-0.9s0.3-0.9,0.3-1.4C215.4,103.3,215.3,102.8,215.1,102.4z"/>
	<path class="st1" d="M218.2,98.9c-0.2-0.2-0.2-0.3-0.2-0.6s0.1-0.4,0.2-0.6c0.2-0.2,0.3-0.2,0.6-0.2c0.2,0,0.4,0.1,0.6,0.2
		c0.2,0.2,0.2,0.3,0.2,0.6s-0.1,0.4-0.2,0.6c-0.2,0.2-0.3,0.2-0.6,0.2C218.5,99.2,218.3,99.1,218.2,98.9z M219.3,100.3v7.1h-1.2
		v-7.1H219.3z"/>
	<path class="st1" d="M222.8,101.3v4.2c0,0.3,0.1,0.6,0.2,0.7c0.1,0.1,0.4,0.2,0.8,0.2h0.9v1h-1.1c-0.7,0-1.2-0.2-1.5-0.5
		s-0.5-0.8-0.5-1.5v-4.2h-0.9v-1h0.9v-1.8h1.2v1.8h1.9v1h-1.9V101.3z"/>
	<path class="st1" d="M227.4,107.1c-0.5-0.3-1-0.7-1.3-1.3c-0.3-0.6-0.5-1.2-0.5-1.9c0-0.7,0.2-1.4,0.5-1.9c0.3-0.6,0.7-1,1.3-1.3
		c0.5-0.3,1.2-0.4,1.8-0.4c0.7,0,1.3,0.1,1.8,0.4s1,0.7,1.3,1.3c0.3,0.6,0.5,1.2,0.5,1.9s-0.2,1.4-0.5,1.9c-0.3,0.6-0.8,1-1.3,1.3
		c-0.6,0.3-1.2,0.5-1.8,0.5C228.5,107.6,227.9,107.4,227.4,107.1z M230.4,106.2c0.4-0.2,0.7-0.5,0.9-0.9s0.3-0.9,0.3-1.5
		s-0.1-1.1-0.3-1.5s-0.5-0.7-0.9-0.9c-0.4-0.2-0.8-0.3-1.2-0.3s-0.8,0.1-1.2,0.3c-0.4,0.2-0.6,0.5-0.9,0.9c-0.2,0.4-0.3,0.9-0.3,1.5
		s0.1,1.1,0.3,1.5s0.5,0.7,0.9,0.9c0.4,0.2,0.7,0.3,1.2,0.3S230,106.4,230.4,106.2z"/>
	<path class="st1" d="M235.6,105.8l-1.5,3.5h-0.8l0.9-3.5H235.6z"/>
	<path class="st1" d="M247.3,104.3h-5.7c0,0.7,0.3,1.3,0.7,1.7c0.4,0.4,1,0.6,1.6,0.6c0.5,0,0.9-0.1,1.3-0.4c0.3-0.2,0.6-0.6,0.7-1
		h1.3c-0.2,0.7-0.6,1.2-1.1,1.7c-0.6,0.4-1.3,0.6-2.1,0.6c-0.7,0-1.3-0.2-1.8-0.5s-1-0.7-1.3-1.3c-0.3-0.6-0.5-1.2-0.5-1.9
		s0.1-1.4,0.4-1.9c0.3-0.6,0.7-1,1.2-1.3s1.1-0.4,1.8-0.4s1.3,0.1,1.8,0.4s0.9,0.7,1.2,1.2s0.4,1.1,0.4,1.7
		C247.3,103.8,247.3,104,247.3,104.3z M245.8,102.2c-0.2-0.3-0.5-0.6-0.8-0.8c-0.3-0.2-0.7-0.3-1.1-0.3c-0.6,0-1.1,0.2-1.5,0.6
		s-0.7,0.9-0.7,1.6h4.5C246.1,102.9,246,102.5,245.8,102.2z"/>
	<path class="st1" d="M251.8,101.3h-1.5v6.1h-1.2v-6.1h-0.9v-1h0.9v-0.5c0-0.8,0.2-1.4,0.6-1.7s1.1-0.6,2-0.6v1
		c-0.5,0-0.9,0.1-1.1,0.3c-0.2,0.2-0.3,0.5-0.3,1v0.5h1.5V101.3z"/>
	<path class="st1" d="M259.6,104.3h-5.7c0,0.7,0.3,1.3,0.7,1.7c0.4,0.4,1,0.6,1.6,0.6c0.5,0,0.9-0.1,1.3-0.4c0.3-0.2,0.6-0.6,0.7-1
		h1.3c-0.2,0.7-0.6,1.2-1.1,1.7c-0.6,0.4-1.3,0.6-2.1,0.6c-0.7,0-1.3-0.2-1.8-0.5s-1-0.7-1.3-1.3c-0.3-0.6-0.5-1.2-0.5-1.9
		s0.1-1.4,0.4-1.9c0.3-0.6,0.7-1,1.2-1.3s1.1-0.4,1.8-0.4c0.7,0,1.3,0.1,1.8,0.4s0.9,0.7,1.2,1.2c0.3,0.5,0.4,1.1,0.4,1.7
		C259.7,103.8,259.7,104,259.6,104.3z M258.2,102.2c-0.2-0.3-0.5-0.6-0.8-0.8c-0.3-0.2-0.7-0.3-1.1-0.3c-0.6,0-1.1,0.2-1.5,0.6
		s-0.7,0.9-0.7,1.6h4.5C258.5,102.9,258.4,102.5,258.2,102.2z"/>
	<path class="st1" d="M261.2,101.9c0.3-0.5,0.7-1,1.2-1.3s1.1-0.5,1.8-0.5c0.9,0,1.6,0.2,2.2,0.6s0.9,1,1.1,1.8h-1.3
		c-0.1-0.4-0.4-0.8-0.7-1c-0.4-0.3-0.8-0.4-1.3-0.4c-0.7,0-1.2,0.2-1.6,0.7s-0.6,1.1-0.6,2s0.2,1.5,0.6,2s1,0.7,1.6,0.7
		c0.5,0,1-0.1,1.3-0.4c0.3-0.2,0.6-0.6,0.7-1h1.3c-0.2,0.7-0.6,1.3-1.1,1.7c-0.6,0.4-1.3,0.7-2.1,0.7c-0.7,0-1.3-0.2-1.8-0.5
		s-0.9-0.7-1.2-1.3c-0.3-0.6-0.4-1.2-0.4-2C260.8,103.1,260.9,102.5,261.2,101.9z"/>
	<path class="st1" d="M270.6,101.3v4.2c0,0.3,0.1,0.6,0.2,0.7s0.4,0.2,0.8,0.2h0.9v1h-1.1c-0.7,0-1.2-0.2-1.5-0.5s-0.5-0.8-0.5-1.5
		v-4.2h-0.9v-1h0.9v-1.8h1.2v1.8h1.9v1h-1.9V101.3z"/>
	<path class="st1" d="M273.9,98.9c-0.2-0.2-0.2-0.3-0.2-0.6s0.1-0.4,0.2-0.6c0.2-0.2,0.3-0.2,0.6-0.2c0.2,0,0.4,0.1,0.6,0.2
		c0.2,0.2,0.2,0.3,0.2,0.6s-0.1,0.4-0.2,0.6c-0.2,0.2-0.3,0.2-0.6,0.2C274.3,99.2,274.1,99.1,273.9,98.9z M275,100.3v7.1h-1.2v-7.1
		H275z"/>
	<path class="st1" d="M279.7,106.3l2.2-6h1.3l-2.8,7.1H279l-2.8-7.1h1.3L279.7,106.3z"/>
	<path class="st1" d="M285.6,107.1c-0.5-0.3-1-0.7-1.3-1.3c-0.3-0.6-0.5-1.2-0.5-1.9c0-0.7,0.2-1.4,0.5-1.9c0.3-0.6,0.7-1,1.3-1.3
		c0.5-0.3,1.2-0.4,1.8-0.4c0.7,0,1.3,0.1,1.8,0.4s1,0.7,1.3,1.3c0.3,0.6,0.5,1.2,0.5,1.9s-0.2,1.4-0.5,1.9c-0.3,0.6-0.8,1-1.3,1.3
		c-0.6,0.3-1.2,0.5-1.8,0.5C286.8,107.6,286.2,107.4,285.6,107.1z M288.7,106.2c0.4-0.2,0.7-0.5,0.9-0.9c0.2-0.4,0.3-0.9,0.3-1.5
		s-0.1-1.1-0.3-1.5c-0.2-0.4-0.5-0.7-0.9-0.9c-0.4-0.2-0.8-0.3-1.2-0.3c-0.4,0-0.8,0.1-1.2,0.3c-0.4,0.2-0.6,0.5-0.9,0.9
		c-0.2,0.4-0.3,0.9-0.3,1.5s0.1,1.1,0.3,1.5s0.5,0.7,0.9,0.9c0.4,0.2,0.7,0.3,1.2,0.3S288.3,106.4,288.7,106.2z"/>
	<path class="st1" d="M297.8,107.1c-0.5-0.3-1-0.7-1.3-1.3c-0.3-0.6-0.5-1.2-0.5-1.9c0-0.7,0.2-1.4,0.5-1.9c0.3-0.6,0.7-1,1.3-1.3
		c0.5-0.3,1.2-0.4,1.8-0.4c0.7,0,1.3,0.1,1.8,0.4s1,0.7,1.3,1.3c0.3,0.6,0.5,1.2,0.5,1.9s-0.2,1.4-0.5,1.9c-0.3,0.6-0.8,1-1.3,1.3
		c-0.6,0.3-1.2,0.5-1.8,0.5S298.4,107.4,297.8,107.1z M300.9,106.2c0.4-0.2,0.7-0.5,0.9-0.9c0.2-0.4,0.3-0.9,0.3-1.5
		s-0.1-1.1-0.3-1.5c-0.2-0.4-0.5-0.7-0.9-0.9c-0.4-0.2-0.8-0.3-1.2-0.3c-0.4,0-0.8,0.1-1.2,0.3c-0.4,0.2-0.6,0.5-0.9,0.9
		c-0.2,0.4-0.3,0.9-0.3,1.5s0.1,1.1,0.3,1.5s0.5,0.7,0.9,0.9c0.4,0.2,0.7,0.3,1.2,0.3S300.5,106.4,300.9,106.2z"/>
	<path class="st1" d="M308.7,101.9c0.3-0.5,0.7-1,1.2-1.3s1.1-0.5,1.7-0.5s1.1,0.1,1.5,0.4s0.8,0.6,1.1,1v-3.8h1.2v9.6h-1.2V106
		c-0.2,0.4-0.6,0.8-1,1c-0.5,0.3-1,0.4-1.6,0.4s-1.2-0.2-1.7-0.5s-0.9-0.7-1.2-1.3c-0.3-0.6-0.4-1.2-0.4-1.9
		C308.3,103.1,308.4,102.5,308.7,101.9z M314,102.5c-0.2-0.4-0.5-0.7-0.9-0.9c-0.4-0.2-0.8-0.3-1.2-0.3c-0.4,0-0.8,0.1-1.2,0.3
		c-0.4,0.2-0.7,0.5-0.9,0.9c-0.2,0.4-0.3,0.9-0.3,1.4s0.1,1,0.3,1.4c0.2,0.4,0.5,0.7,0.9,0.9c0.4,0.2,0.8,0.3,1.2,0.3
		c0.4,0,0.8-0.1,1.2-0.3c0.4-0.2,0.7-0.5,0.9-0.9c0.2-0.4,0.3-0.9,0.3-1.4S314.2,102.9,314,102.5z"/>
	<path class="st1" d="M317.6,98.9c-0.2-0.2-0.2-0.3-0.2-0.6s0.1-0.4,0.2-0.6c0.2-0.2,0.3-0.2,0.6-0.2c0.2,0,0.4,0.1,0.6,0.2
		c0.2,0.2,0.2,0.3,0.2,0.6s-0.1,0.4-0.2,0.6c-0.2,0.2-0.3,0.2-0.6,0.2C317.9,99.2,317.7,99.1,317.6,98.9z M318.7,100.3v7.1h-1.2
		v-7.1H318.7z"/>
	<path class="st1" d="M326.3,101c0.5,0.5,0.8,1.3,0.8,2.3v4.2h-1.2v-4c0-0.7-0.2-1.3-0.5-1.6c-0.4-0.4-0.8-0.6-1.5-0.6
		c-0.6,0-1.1,0.2-1.5,0.6s-0.6,1-0.6,1.7v3.9h-1.2v-7.1h1.2v1c0.2-0.4,0.6-0.6,1-0.8c0.4-0.2,0.8-0.3,1.3-0.3
		C325.1,100.2,325.8,100.4,326.3,101z"/>
	<path class="st1" d="M335.5,104.3h-5.7c0,0.7,0.3,1.3,0.7,1.7c0.4,0.4,1,0.6,1.6,0.6c0.5,0,0.9-0.1,1.3-0.4c0.3-0.2,0.6-0.6,0.7-1
		h1.3c-0.2,0.7-0.6,1.2-1.1,1.7c-0.6,0.4-1.3,0.6-2.1,0.6c-0.7,0-1.3-0.2-1.8-0.5s-1-0.7-1.3-1.3c-0.3-0.6-0.5-1.2-0.5-1.9
		s0.1-1.4,0.4-1.9c0.3-0.6,0.7-1,1.2-1.3s1.1-0.4,1.8-0.4c0.7,0,1.3,0.1,1.8,0.4s0.9,0.7,1.2,1.2c0.3,0.5,0.4,1.1,0.4,1.7
		C335.5,103.8,335.5,104,335.5,104.3z M334,102.2c-0.2-0.3-0.5-0.6-0.8-0.8c-0.3-0.2-0.7-0.3-1.1-0.3c-0.6,0-1.1,0.2-1.5,0.6
		s-0.7,0.9-0.7,1.6h4.5C334.3,102.9,334.2,102.5,334,102.2z"/>
	<path class="st1" d="M339.2,100.6c0.4-0.3,0.9-0.4,1.4-0.4v1.2h-0.3c-1.3,0-2,0.7-2,2.2v3.9h-1.2v-7.1h1.2v1.4
		C338.5,101.2,338.8,100.8,339.2,100.6z"/>
	<path class="st1" d="M343.3,107.1c-0.5-0.3-1-0.7-1.3-1.3c-0.3-0.6-0.5-1.2-0.5-1.9c0-0.7,0.2-1.4,0.5-1.9c0.3-0.6,0.7-1,1.3-1.3
		c0.5-0.3,1.2-0.4,1.8-0.4c0.7,0,1.3,0.1,1.8,0.4s1,0.7,1.3,1.3c0.3,0.6,0.5,1.2,0.5,1.9s-0.2,1.4-0.5,1.9c-0.3,0.6-0.8,1-1.3,1.3
		c-0.6,0.3-1.2,0.5-1.8,0.5C344.4,107.6,343.8,107.4,343.3,107.1z M346.3,106.2c0.4-0.2,0.7-0.5,0.9-0.9c0.2-0.4,0.3-0.9,0.3-1.5
		s-0.1-1.1-0.3-1.5c-0.2-0.4-0.5-0.7-0.9-0.9c-0.4-0.2-0.8-0.3-1.2-0.3c-0.4,0-0.8,0.1-1.2,0.3c-0.4,0.2-0.6,0.5-0.9,0.9
		c-0.2,0.4-0.3,0.9-0.3,1.5s0.1,1.1,0.3,1.5s0.5,0.7,0.9,0.9c0.4,0.2,0.7,0.3,1.2,0.3S345.9,106.4,346.3,106.2z"/>
	<path class="st1" d="M360.6,104.3h-5.7c0,0.7,0.3,1.3,0.7,1.7c0.4,0.4,1,0.6,1.6,0.6c0.5,0,0.9-0.1,1.3-0.4c0.3-0.2,0.6-0.6,0.7-1
		h1.3c-0.2,0.7-0.6,1.2-1.1,1.7c-0.6,0.4-1.3,0.6-2.1,0.6c-0.7,0-1.3-0.2-1.8-0.5s-1-0.7-1.3-1.3c-0.3-0.6-0.5-1.2-0.5-1.9
		s0.1-1.4,0.4-1.9c0.3-0.6,0.7-1,1.2-1.3s1.1-0.4,1.8-0.4c0.7,0,1.3,0.1,1.8,0.4s0.9,0.7,1.2,1.2c0.3,0.5,0.4,1.1,0.4,1.7
		C360.7,103.8,360.6,104,360.6,104.3z M359.1,102.2c-0.2-0.3-0.5-0.6-0.8-0.8c-0.3-0.2-0.7-0.3-1.1-0.3c-0.6,0-1.1,0.2-1.5,0.6
		s-0.7,0.9-0.7,1.6h4.5C359.4,102.9,359.3,102.5,359.1,102.2z"/>
	<path class="st1" d="M367.8,101c0.5,0.5,0.8,1.3,0.8,2.3v4.2h-1.2v-4c0-0.7-0.2-1.3-0.5-1.6c-0.4-0.4-0.8-0.6-1.5-0.6
		c-0.6,0-1.1,0.2-1.5,0.6s-0.6,1-0.6,1.7v3.9h-1.2v-7.1h1.2v1c0.2-0.4,0.6-0.6,1-0.8c0.4-0.2,0.8-0.3,1.3-0.3
		C366.5,100.2,367.3,100.4,367.8,101z"/>
	<path class="st1" d="M374.4,101.9c0.3-0.5,0.7-1,1.2-1.3s1.1-0.5,1.8-0.5c0.9,0,1.6,0.2,2.2,0.6s0.9,1,1.1,1.8h-1.3
		c-0.1-0.4-0.4-0.8-0.7-1c-0.4-0.3-0.8-0.4-1.3-0.4c-0.7,0-1.2,0.2-1.6,0.7s-0.6,1.1-0.6,2s0.2,1.5,0.6,2s1,0.7,1.6,0.7
		c0.5,0,1-0.1,1.3-0.4c0.3-0.2,0.6-0.6,0.7-1h1.3c-0.2,0.7-0.6,1.3-1.1,1.7c-0.6,0.4-1.3,0.7-2.1,0.7c-0.7,0-1.3-0.2-1.8-0.5
		s-0.9-0.7-1.2-1.3c-0.3-0.6-0.4-1.2-0.4-2C374,103.1,374.1,102.5,374.4,101.9z"/>
	<path class="st1" d="M388.6,100.3v7.1h-1.2v-1.1c-0.2,0.4-0.5,0.6-0.9,0.9c-0.4,0.2-0.8,0.3-1.3,0.3c-0.6,0-1.1-0.1-1.5-0.3
		c-0.4-0.2-0.8-0.6-1-1c-0.3-0.5-0.4-1-0.4-1.7v-4.2h1.2v4c0,0.7,0.2,1.2,0.5,1.6c0.4,0.4,0.8,0.6,1.5,0.6c0.6,0,1.1-0.2,1.5-0.6
		s0.5-1,0.5-1.7v-3.9C387.5,100.3,388.6,100.3,388.6,100.3z"/>
	<path class="st1" d="M397.1,104.3h-5.7c0,0.7,0.3,1.3,0.7,1.7c0.4,0.4,1,0.6,1.6,0.6c0.5,0,0.9-0.1,1.3-0.4c0.3-0.2,0.6-0.6,0.7-1
		h1.3c-0.2,0.7-0.6,1.2-1.1,1.7c-0.6,0.4-1.3,0.6-2.1,0.6c-0.7,0-1.3-0.2-1.8-0.5s-1-0.7-1.3-1.3c-0.3-0.6-0.5-1.2-0.5-1.9
		s0.1-1.4,0.4-1.9c0.3-0.6,0.7-1,1.2-1.3s1.1-0.4,1.8-0.4c0.7,0,1.3,0.1,1.8,0.4s0.9,0.7,1.2,1.2c0.3,0.5,0.4,1.1,0.4,1.7
		C397.1,103.8,397.1,104,397.1,104.3z M395.6,102.2c-0.2-0.3-0.5-0.6-0.8-0.8c-0.3-0.2-0.7-0.3-1.1-0.3c-0.6,0-1.1,0.2-1.5,0.6
		s-0.7,0.9-0.7,1.6h4.5C395.9,102.9,395.8,102.5,395.6,102.2z"/>
	<path class="st1" d="M404.3,101c0.5,0.5,0.8,1.3,0.8,2.3v4.2h-1.2v-4c0-0.7-0.2-1.3-0.5-1.6c-0.4-0.4-0.8-0.6-1.5-0.6
		c-0.6,0-1.1,0.2-1.5,0.6s-0.6,1-0.6,1.7v3.9h-1.2v-7.1h1.2v1c0.2-0.4,0.6-0.6,1-0.8c0.4-0.2,0.8-0.3,1.3-0.3
		C403,100.2,403.7,100.4,404.3,101z"/>
	<path class="st1" d="M408.4,101.3v4.2c0,0.3,0.1,0.6,0.2,0.7s0.4,0.2,0.8,0.2h0.9v1h-1.1c-0.7,0-1.2-0.2-1.5-0.5s-0.5-0.8-0.5-1.5
		v-4.2h-0.9v-1h0.9v-1.8h1.2v1.8h1.9v1h-1.9V101.3z"/>
	<path class="st1" d="M411.7,101.9c0.3-0.5,0.7-1,1.2-1.3s1.1-0.5,1.7-0.5s1.2,0.1,1.6,0.4s0.8,0.6,1,1v-1.3h1.2v7.1h-1.2V106
		c-0.2,0.4-0.6,0.8-1,1c-0.5,0.3-1,0.4-1.6,0.4s-1.2-0.2-1.7-0.5s-0.9-0.7-1.2-1.3c-0.3-0.6-0.4-1.2-0.4-1.9
		C411.3,103.1,411.4,102.5,411.7,101.9z M417,102.5c-0.2-0.4-0.5-0.7-0.9-0.9c-0.4-0.2-0.8-0.3-1.2-0.3c-0.4,0-0.8,0.1-1.2,0.3
		c-0.4,0.2-0.7,0.5-0.9,0.9c-0.2,0.4-0.3,0.9-0.3,1.4s0.1,1,0.3,1.4c0.2,0.4,0.5,0.7,0.9,0.9c0.4,0.2,0.8,0.3,1.2,0.3
		c0.4,0,0.8-0.1,1.2-0.3c0.4-0.2,0.7-0.5,0.9-0.9c0.2-0.4,0.3-0.9,0.3-1.4S417.2,102.9,417,102.5z"/>
	<path class="st2" d="M182,131.7c0.4,0.2,0.8,0.6,1,1c0.3,0.5,0.4,1,0.4,1.7v4.2h-1.2v-4c0-0.7-0.2-1.3-0.5-1.6
		c-0.4-0.4-0.8-0.6-1.4-0.6c-0.6,0-1.1,0.2-1.5,0.6c-0.4,0.4-0.5,1-0.5,1.7v3.9h-1.2v-4c0-0.7-0.2-1.3-0.5-1.6s-0.8-0.6-1.4-0.6
		c-0.6,0-1.1,0.2-1.5,0.6c-0.4,0.4-0.5,1-0.5,1.7v3.9H172v-7.1h1.2v1c0.2-0.4,0.5-0.7,0.9-0.9s0.8-0.3,1.3-0.3
		c0.6,0,1.1,0.1,1.6,0.4c0.5,0.3,0.8,0.7,1,1.2c0.2-0.5,0.5-0.9,1-1.2s1-0.4,1.5-0.4C181.1,131.4,181.6,131.5,182,131.7z"/>
	<path class="st2" d="M185.4,133.1c0.3-0.5,0.7-1,1.2-1.3s1.1-0.5,1.7-0.5c0.6,0,1.2,0.1,1.6,0.4s0.8,0.6,1,1v-1.3h1.2v7.1H191v-1.3
		c-0.2,0.4-0.6,0.8-1,1c-0.5,0.3-1,0.4-1.6,0.4s-1.2-0.2-1.7-0.5s-0.9-0.8-1.2-1.3c-0.3-0.6-0.4-1.2-0.4-1.9
		C184.9,134.3,185.1,133.7,185.4,133.1z M190.6,133.7c-0.2-0.4-0.5-0.7-0.9-0.9s-0.8-0.3-1.2-0.3s-0.8,0.1-1.2,0.3s-0.7,0.5-0.9,0.9
		s-0.3,0.9-0.3,1.4s0.1,1,0.3,1.4s0.5,0.7,0.9,0.9s0.8,0.3,1.2,0.3s0.8-0.1,1.2-0.3s0.7-0.5,0.9-0.9s0.3-0.9,0.3-1.4
		S190.9,134.1,190.6,133.7z M190,129.5l-2.8,1.5v-0.9l2.8-1.6V129.5z"/>
	<path class="st2" d="M195.2,138.5c-0.4-0.2-0.8-0.4-1-0.8s-0.4-0.7-0.4-1.2h1.2c0,0.4,0.2,0.7,0.5,0.9s0.7,0.4,1.2,0.4
		s0.8-0.1,1.1-0.3s0.4-0.5,0.4-0.8s-0.1-0.5-0.4-0.7s-0.7-0.3-1.3-0.4c-0.5-0.1-1-0.3-1.3-0.4c-0.3-0.1-0.6-0.3-0.8-0.6
		s-0.4-0.6-0.4-1.1c0-0.4,0.1-0.7,0.3-1s0.5-0.6,0.9-0.7c0.4-0.2,0.9-0.3,1.4-0.3c0.8,0,1.4,0.2,1.9,0.6c0.5,0.4,0.7,0.9,0.8,1.6
		H198c0-0.4-0.2-0.7-0.4-0.9c-0.3-0.2-0.6-0.4-1.1-0.4c-0.4,0-0.8,0.1-1,0.3s-0.4,0.4-0.4,0.8c0,0.2,0.1,0.4,0.2,0.6
		c0.2,0.2,0.3,0.3,0.6,0.4c0.2,0.1,0.5,0.2,1,0.3s0.9,0.3,1.2,0.4s0.6,0.3,0.8,0.6s0.3,0.6,0.3,1s-0.1,0.8-0.3,1.1s-0.5,0.6-0.9,0.7
		c-0.4,0.2-0.8,0.3-1.4,0.3C196.1,138.8,195.6,138.7,195.2,138.5z"/>
	<path class="st2" d="M204.9,130.1c-0.2-0.2-0.2-0.3-0.2-0.6s0.1-0.4,0.2-0.6c0.2-0.2,0.3-0.2,0.6-0.2c0.2,0,0.4,0.1,0.6,0.2
		c0.2,0.2,0.2,0.3,0.2,0.6s-0.1,0.4-0.2,0.6c-0.2,0.2-0.3,0.2-0.6,0.2C205.2,130.4,205,130.3,204.9,130.1z M206,131.5v7.1h-1.2v-7.1
		H206z"/>
	<path class="st2" d="M213.6,132.2c0.5,0.5,0.8,1.3,0.8,2.3v4.2h-1.2v-4c0-0.7-0.2-1.3-0.5-1.6c-0.4-0.4-0.8-0.6-1.5-0.6
		c-0.6,0-1.1,0.2-1.5,0.6c-0.4,0.4-0.6,1-0.6,1.7v3.9H208v-7.1h1.2v1c0.2-0.4,0.6-0.6,1-0.8s0.8-0.3,1.3-0.3
		C212.4,131.4,213.1,131.6,213.6,132.2z"/>
	<path class="st2" d="M219.2,132.5h-1.5v6.1h-1.2v-6.1h-0.9v-1h0.9V131c0-0.8,0.2-1.4,0.6-1.7s1.1-0.6,2-0.6v1
		c-0.5,0-0.9,0.1-1.1,0.3c-0.2,0.2-0.3,0.5-0.3,1v0.5h1.5V132.5z"/>
	<path class="st2" d="M221.9,138.3c-0.5-0.3-1-0.7-1.3-1.3s-0.5-1.2-0.5-1.9s0.2-1.4,0.5-1.9c0.3-0.6,0.7-1,1.3-1.3
		c0.5-0.3,1.2-0.4,1.8-0.4c0.7,0,1.3,0.1,1.8,0.4c0.5,0.3,1,0.7,1.3,1.3s0.5,1.2,0.5,1.9s-0.2,1.4-0.5,1.9c-0.3,0.6-0.8,1-1.3,1.3
		c-0.6,0.3-1.2,0.5-1.8,0.5C223.1,138.8,222.5,138.6,221.9,138.3z M224.9,137.4c0.4-0.2,0.7-0.5,0.9-0.9s0.3-0.9,0.3-1.5
		s-0.1-1.1-0.3-1.5s-0.5-0.7-0.9-0.9s-0.8-0.3-1.2-0.3s-0.8,0.1-1.2,0.3s-0.6,0.5-0.9,0.9c-0.2,0.4-0.3,0.9-0.3,1.5s0.1,1.1,0.3,1.5
		s0.5,0.7,0.9,0.9s0.7,0.3,1.2,0.3S224.6,137.6,224.9,137.4z"/>
	<path class="st2" d="M232.8,133.1c0.3-0.5,0.7-1,1.2-1.3s1.1-0.5,1.7-0.5c0.6,0,1.1,0.1,1.5,0.4s0.8,0.6,1.1,1V129h1.2v9.6h-1.2
		v-1.3c-0.2,0.4-0.6,0.8-1,1c-0.5,0.3-1,0.4-1.6,0.4s-1.2-0.2-1.7-0.5s-0.9-0.8-1.2-1.3c-0.3-0.6-0.4-1.2-0.4-1.9
		C232.4,134.3,232.5,133.7,232.8,133.1z M238.1,133.7c-0.2-0.4-0.5-0.7-0.9-0.9s-0.8-0.3-1.2-0.3s-0.8,0.1-1.2,0.3s-0.7,0.5-0.9,0.9
		s-0.3,0.9-0.3,1.4s0.1,1,0.3,1.4s0.5,0.7,0.9,0.9s0.8,0.3,1.2,0.3s0.8-0.1,1.2-0.3s0.7-0.5,0.9-0.9s0.3-0.9,0.3-1.4
		S238.3,134.1,238.1,133.7z"/>
	<path class="st2" d="M248.1,135.5h-5.7c0,0.7,0.3,1.3,0.7,1.7s1,0.6,1.6,0.6c0.5,0,0.9-0.1,1.3-0.4c0.3-0.2,0.6-0.6,0.7-1h1.3
		c-0.2,0.7-0.6,1.2-1.1,1.7c-0.6,0.4-1.3,0.6-2.1,0.6c-0.7,0-1.3-0.2-1.8-0.5s-1-0.7-1.3-1.3s-0.5-1.2-0.5-1.9s0.1-1.4,0.4-1.9
		c0.3-0.6,0.7-1,1.2-1.3s1.1-0.4,1.8-0.4s1.3,0.1,1.8,0.4c0.5,0.3,0.9,0.7,1.2,1.2s0.4,1.1,0.4,1.7
		C248.1,135,248.1,135.2,248.1,135.5z M246.6,133.4c-0.2-0.3-0.5-0.6-0.8-0.8s-0.7-0.3-1.1-0.3c-0.6,0-1.1,0.2-1.5,0.6
		s-0.7,0.9-0.7,1.6h4.5C246.9,134.1,246.8,133.7,246.6,133.4z"/>
	<path class="st2" d="M255.8,131.8c0.5-0.3,1-0.4,1.6-0.4s1.2,0.2,1.7,0.5s0.9,0.7,1.2,1.3c0.3,0.6,0.4,1.2,0.4,1.9
		s-0.1,1.4-0.4,1.9c-0.3,0.6-0.7,1-1.2,1.3s-1.1,0.5-1.7,0.5s-1.1-0.1-1.6-0.4c-0.5-0.3-0.8-0.6-1.1-1v4.7h-1.2v-10.5h1.2v1.3
		C255,132.4,255.3,132.1,255.8,131.8z M259.2,133.6c-0.2-0.4-0.5-0.7-0.9-0.9s-0.8-0.3-1.2-0.3c-0.4,0-0.8,0.1-1.2,0.3
		c-0.4,0.2-0.7,0.5-0.9,0.9s-0.3,0.9-0.3,1.4s0.1,1,0.3,1.4s0.5,0.7,0.9,0.9c0.4,0.2,0.8,0.3,1.2,0.3s0.8-0.1,1.2-0.3
		c0.4-0.2,0.7-0.5,0.9-0.9c0.2-0.4,0.3-0.9,0.3-1.4C259.6,134.5,259.5,134,259.2,133.6z"/>
	<path class="st2" d="M262.3,133.1c0.3-0.5,0.7-1,1.2-1.3s1.1-0.5,1.7-0.5s1.2,0.1,1.6,0.4s0.8,0.6,1,1v-1.3h1.2v7.1h-1.2v-1.3
		c-0.2,0.4-0.6,0.8-1,1c-0.5,0.3-1,0.4-1.6,0.4s-1.2-0.2-1.7-0.5s-0.9-0.8-1.2-1.3c-0.3-0.6-0.4-1.2-0.4-1.9
		C261.9,134.3,262,133.7,262.3,133.1z M267.6,133.7c-0.2-0.4-0.5-0.7-0.9-0.9s-0.8-0.3-1.2-0.3c-0.4,0-0.8,0.1-1.2,0.3
		c-0.4,0.2-0.7,0.5-0.9,0.9c-0.2,0.4-0.3,0.9-0.3,1.4s0.1,1,0.3,1.4c0.2,0.4,0.5,0.7,0.9,0.9s0.8,0.3,1.2,0.3c0.4,0,0.8-0.1,1.2-0.3
		c0.4-0.2,0.7-0.5,0.9-0.9c0.2-0.4,0.3-0.9,0.3-1.4S267.8,134.1,267.6,133.7z"/>
	<path class="st2" d="M275.7,131.8c0.5,0.3,0.8,0.6,1,1v-1.3h1.2v7.3c0,0.6-0.1,1.2-0.4,1.7s-0.7,0.9-1.2,1.2s-1.1,0.4-1.8,0.4
		c-0.9,0-1.7-0.2-2.3-0.7c-0.6-0.4-1-1-1.1-1.8h1.2c0.1,0.4,0.4,0.8,0.8,1c0.4,0.3,0.9,0.4,1.5,0.4s1.2-0.2,1.6-0.6
		c0.4-0.4,0.6-1,0.6-1.7v-1.5c-0.2,0.4-0.6,0.8-1,1s-1,0.4-1.6,0.4s-1.2-0.2-1.7-0.5s-0.9-0.8-1.2-1.3c-0.3-0.6-0.4-1.2-0.4-1.9
		s0.1-1.4,0.4-1.9s0.7-1,1.2-1.3s1.1-0.5,1.7-0.5C274.7,131.4,275.2,131.5,275.7,131.8z M276.4,133.7c-0.2-0.4-0.5-0.7-0.9-0.9
		s-0.8-0.3-1.2-0.3c-0.4,0-0.8,0.1-1.2,0.3c-0.4,0.2-0.7,0.5-0.9,0.9c-0.2,0.4-0.3,0.9-0.3,1.4s0.1,1,0.3,1.4
		c0.2,0.4,0.5,0.7,0.9,0.9s0.8,0.3,1.2,0.3c0.4,0,0.8-0.1,1.2-0.3c0.4-0.2,0.7-0.5,0.9-0.9c0.2-0.4,0.3-0.9,0.3-1.4
		S276.6,134.1,276.4,133.7z"/>
	<path class="st2" d="M281.2,138.3c-0.5-0.3-1-0.7-1.3-1.3s-0.5-1.2-0.5-1.9s0.2-1.4,0.5-1.9c0.3-0.6,0.7-1,1.3-1.3
		c0.5-0.3,1.2-0.4,1.8-0.4c0.7,0,1.3,0.1,1.8,0.4c0.5,0.3,1,0.7,1.3,1.3s0.5,1.2,0.5,1.9s-0.2,1.4-0.5,1.9c-0.3,0.6-0.8,1-1.3,1.3
		c-0.6,0.3-1.2,0.5-1.8,0.5C282.3,138.8,281.7,138.6,281.2,138.3z M284.2,137.4c0.4-0.2,0.7-0.5,0.9-0.9c0.2-0.4,0.3-0.9,0.3-1.5
		s-0.1-1.1-0.3-1.5c-0.2-0.4-0.5-0.7-0.9-0.9s-0.8-0.3-1.2-0.3c-0.4,0-0.8,0.1-1.2,0.3c-0.4,0.2-0.6,0.5-0.9,0.9
		c-0.2,0.4-0.3,0.9-0.3,1.5s0.1,1.1,0.3,1.5s0.5,0.7,0.9,0.9s0.7,0.3,1.2,0.3S283.8,137.6,284.2,137.4z"/>
	<path class="st2" d="M289.3,138.5c-0.4-0.2-0.8-0.4-1-0.8s-0.4-0.7-0.4-1.2h1.2c0,0.4,0.2,0.7,0.5,0.9s0.7,0.4,1.2,0.4
		s0.8-0.1,1.1-0.3c0.3-0.2,0.4-0.5,0.4-0.8s-0.1-0.5-0.4-0.7s-0.7-0.3-1.3-0.4c-0.5-0.1-1-0.3-1.3-0.4c-0.3-0.1-0.6-0.3-0.8-0.6
		c-0.2-0.3-0.4-0.6-0.4-1.1c0-0.4,0.1-0.7,0.3-1c0.2-0.3,0.5-0.6,0.9-0.7c0.4-0.2,0.9-0.3,1.4-0.3c0.8,0,1.4,0.2,1.9,0.6
		c0.5,0.4,0.7,0.9,0.8,1.6h-1.2c0-0.4-0.2-0.7-0.4-0.9c-0.3-0.2-0.6-0.4-1.1-0.4c-0.4,0-0.8,0.1-1,0.3s-0.4,0.4-0.4,0.8
		c0,0.2,0.1,0.4,0.2,0.6c0.2,0.2,0.3,0.3,0.6,0.4c0.2,0.1,0.5,0.2,1,0.3s0.9,0.3,1.2,0.4s0.6,0.3,0.8,0.6c0.2,0.3,0.3,0.6,0.3,1
		s-0.1,0.8-0.3,1.1c-0.2,0.3-0.5,0.6-0.9,0.7c-0.4,0.2-0.8,0.3-1.4,0.3C290.2,138.8,289.7,138.7,289.3,138.5z"/>
</g>
<g>
	<path class="st0" d="M232.4,15.3c9.6,0,19.1,0.1,28.7,0c3,0,4.8,2.1,4.8,4.7c-0.1,11.3,0,22.7,0,34c0,2.2-1.2,3.8-3.2,4.3
		c-0.4,0.1-0.9,0.1-1.3,0.1c-19.3,0-38.6,0-57.8,0c-2.7,0-4.5-1.7-4.5-4.5c0-11.4,0-22.8,0-34.3c0-2.7,1.7-4.5,4.5-4.5
		C213.1,15.3,222.8,15.3,232.4,15.3z M264.5,33.6c-21.4,0-42.7,0-64,0c0,0.3,0,0.5,0,0.7c0,6.5,0,13.1,0,19.6c0,2.1,1.1,3.2,3.2,3.2
		c19.2,0,38.4,0,57.6,0c2.1,0,3.2-1.1,3.2-3.2c0-6.5,0-13,0-19.5C264.5,34.1,264.5,33.9,264.5,33.6z M200.5,24c21.3,0,42.6,0,64,0
		c0-1.4-0.1-2.7,0-4.1c0.1-2-1.2-3.4-3.3-3.4c-19.1,0-38.3,0-57.4,0c-0.2,0-0.4,0-0.6,0c-1.3,0-2.5,0.9-2.6,2.3
		C200.4,20.6,200.5,22.3,200.5,24z"/>
	<path class="st2" d="M220.6,44c-4.7,0-9.4,0-14,0c-0.2,0-0.5,0.1-0.6,0c-0.2-0.1-0.6-0.4-0.6-0.6c0-0.3,0.3-0.5,0.5-0.7
		c0.1-0.1,0.4,0,0.6,0c9.4,0,18.9,0,28.3,0c0.2,0,0.4-0.1,0.5,0c0.2,0.2,0.6,0.5,0.6,0.7s-0.4,0.5-0.6,0.6c-0.1,0.1-0.4,0-0.6,0
		C230,44,225.3,44,220.6,44z"/>
	<path class="st2" d="M213.5,48c2.3,0,4.6,0,7,0c0.2,0,0.3,0,0.5,0c0.5,0,0.8,0.2,0.8,0.7c0,0.6-0.4,0.7-0.9,0.7c-0.1,0-0.3,0-0.4,0
		c-4.7,0-9.3,0-14,0c-0.1,0-0.2,0-0.3,0c-0.5,0-0.9-0.1-0.9-0.7c0-0.6,0.4-0.7,0.9-0.7c0.2,0,0.3,0,0.5,0
		C208.9,48,211.2,48,213.5,48z"/>
	<path class="st2" d="M258.1,47.9c0.3,0,0.6,0,0.9,0.1c0.2,0.1,0.5,0.4,0.5,0.7c0,0.2-0.3,0.6-0.5,0.6c-0.6,0.1-1.2,0.1-1.8,0
		c-0.2,0-0.6-0.4-0.6-0.6c0-0.3,0.3-0.6,0.6-0.7C257.5,47.9,257.8,48,258.1,47.9C258.1,48,258.1,48,258.1,47.9z"/>
	<path class="st2" d="M245.2,49.3c-0.3,0-0.6,0.1-0.8,0c-0.3-0.1-0.6-0.4-0.6-0.7c0-0.2,0.3-0.6,0.6-0.7c0.6-0.1,1.2-0.1,1.7,0
		c0.2,0,0.6,0.4,0.6,0.7c0,0.2-0.4,0.5-0.6,0.6C245.8,49.4,245.5,49.3,245.2,49.3z"/>
	<path class="st2" d="M251.6,49.4c-0.3,0-0.6,0-0.9-0.1c-0.2-0.1-0.5-0.4-0.5-0.6c0-0.2,0.3-0.6,0.5-0.7c0.6-0.1,1.3-0.1,1.9,0
		c0.2,0,0.5,0.4,0.5,0.6c0,0.2-0.3,0.5-0.5,0.6C252.3,49.4,252,49.4,251.6,49.4z"/>
</g>
<g>
	<path class="st1" d="M152.4,123.2c-1.9,0-3.4-1.4-3.4-3.5c0-2.1,1.5-3.5,3.4-3.5c1.9,0,3.4,1.3,3.4,3.5
		C155.8,121.9,154.3,123.2,152.4,123.2z M152.4,122.2c1.2,0,2.3-0.8,2.3-2.5c0-1.7-1.1-2.5-2.3-2.5c-1.2,0-2.3,0.8-2.3,2.5
		C150.2,121.4,151.2,122.2,152.4,122.2z"/>
	<path class="st1" d="M165.8,121.6h-3.2l-0.5,1.5h-2.2l3.1-8.7h2.4l3.1,8.7h-2.2L165.8,121.6z M164.2,116.8l-1.1,3.2h2.1
		L164.2,116.8z"/>
	<path class="st1" d="M174.9,119.5h-3.3v3.6h-2.1v-8.7h2.1v3.4h3.3v-3.4h2.1v8.7h-2.1V119.5z"/>
	<path class="st1" d="M182.6,123.2c-2.5,0-4.5-1.8-4.5-4.4s2-4.4,4.5-4.4c2.5,0,4.4,1.8,4.4,4.4S185.1,123.2,182.6,123.2z
		 M182.6,121.3c1.4,0,2.3-1,2.3-2.5c0-1.5-0.9-2.5-2.3-2.5c-1.4,0-2.3,1-2.3,2.5C180.3,120.3,181.2,121.3,182.6,121.3z"/>
	<path class="st1" d="M191.8,114.4c2.1,0,3.2,1.2,3.2,2.7c0,1.1-0.6,2.1-1.9,2.5l2,3.4h-2.4l-1.8-3.3h-0.5v3.3h-2.1v-8.7H191.8z
		 M191.7,116.2h-1.3v2.1h1.3c0.8,0,1.2-0.4,1.2-1.1C192.8,116.6,192.5,116.2,191.7,116.2z"/>
	<path class="st1" d="M201.7,121.6h-3.2l-0.5,1.5h-2.2l3.1-8.7h2.4l3.1,8.7h-2.2L201.7,121.6z M200.1,116.8l-1.1,3.2h2.1
		L200.1,116.8z"/>
	<path class="st1" d="M209.6,116.5c-0.1-0.6-0.4-0.9-1-0.9c-1,0-1.3,0.8-1.3,2.5c0.4-0.6,1.1-0.9,1.9-0.9c1.6,0,2.7,1,2.7,2.9
		c0,1.8-1.1,3-3.1,3c-2.7,0-3.4-1.9-3.4-4.6c0-3.1,1-4.6,3.3-4.6c1.9,0,2.8,1.3,2.9,2.6H209.6z M207.4,120.1c0,0.8,0.5,1.3,1.3,1.3
		c0.7,0,1.2-0.5,1.2-1.2c0-0.8-0.4-1.2-1.2-1.2C208,118.9,207.4,119.3,207.4,120.1z"/>
	<path class="st1" d="M219.6,123.2c-1.9,0-3.3-1.4-3.3-3.5c0-2.1,1.4-3.5,3.3-3.5c2,0,3.2,1.4,3.2,3.2c0,0.2,0,0.4,0,0.7h-5.4
		c0.1,1.4,1,2.1,2.2,2.1c1,0,1.7-0.5,1.9-1.2h1.2C222.4,122.2,221.3,123.2,219.6,123.2z M217.5,119.2h4.3c0-1.3-1-2-2.1-2
		C218.5,117.2,217.6,117.9,217.5,119.2z"/>
	<path class="st1" d="M229.3,119.3c0-1.4-0.8-2.1-1.9-2.1c-1.1,0-1.9,0.7-1.9,2.2v3.7h-1.1v-6.8h1.1v1c0.4-0.7,1.3-1.1,2.2-1.1
		c1.6,0,2.8,1,2.8,2.9v4h-1.1V119.3z"/>
	<path class="st1" d="M240.3,116.3c-0.2-0.9-0.7-1.4-1.7-1.4c-1.4,0-2.2,1-2.2,3.6c0.4-0.9,1.4-1.4,2.4-1.4c1.7,0,2.8,1.1,2.8,3
		c0,1.6-1,3-2.9,3c-2.6,0-3.3-1.9-3.3-4.6c0-2.8,0.9-4.5,3.2-4.5c1.7,0,2.6,1.1,2.7,2.3H240.3z M236.6,120.1c0,1.2,0.7,2.1,2.1,2.1
		c1.2,0,1.9-0.8,1.9-2c0-1.3-0.7-2.1-1.9-2.1C237.6,118.1,236.6,118.7,236.6,120.1z"/>
	<path class="st1" d="M249.6,116.2c1.7,0,2.8,0.9,3.1,2.3h-1.2c-0.2-0.8-0.9-1.3-1.9-1.3c-1.2,0-2.1,0.9-2.1,2.5
		c0,1.7,0.9,2.6,2.1,2.6c1,0,1.7-0.5,1.9-1.3h1.2c-0.3,1.3-1.4,2.3-3.1,2.3c-1.9,0-3.3-1.4-3.3-3.5
		C246.3,117.6,247.6,116.2,249.6,116.2z"/>
	<path class="st1" d="M260.2,123.1h-1.1v-1c-0.4,0.7-1.3,1.1-2.2,1.1c-1.6,0-2.8-1-2.8-2.9v-4h1.1v3.8c0,1.4,0.8,2.1,1.9,2.1
		c1.2,0,1.9-0.7,1.9-2.2v-3.7h1.1V123.1z"/>
	<path class="st1" d="M265,123.2c-1.9,0-3.4-1.4-3.4-3.5c0-2.1,1.5-3.5,3.4-3.5c1.9,0,3.4,1.3,3.4,3.5
		C268.5,121.9,267,123.2,265,123.2z M265,122.2c1.2,0,2.3-0.8,2.3-2.5c0-1.7-1.1-2.5-2.3-2.5c-1.2,0-2.3,0.8-2.3,2.5
		C262.8,121.4,263.9,122.2,265,122.2z"/>
	<path class="st1" d="M270.2,117.3h-0.9v-0.9h0.9v-1.7h1.1v1.7h1.8v0.9h-1.8v4c0,0.7,0.2,0.9,0.9,0.9h0.8v1h-1
		c-1.2,0-1.9-0.5-1.9-1.9V117.3z"/>
	<path class="st1" d="M277.3,116.2c1.3,0,2.1,0.6,2.5,1.3v-1.2h1.1v6.8h-1.1v-1.3c-0.4,0.7-1.3,1.4-2.5,1.4c-1.8,0-3.2-1.4-3.2-3.5
		C274,117.6,275.4,116.2,277.3,116.2z M277.5,117.2c-1.2,0-2.3,0.9-2.3,2.5c0,1.6,1,2.5,2.3,2.5s2.3-0.9,2.3-2.5
		C279.8,118.1,278.7,117.2,277.5,117.2z"/>
	<path class="st1" d="M285.2,123.2c-1.6,0-2.7-0.9-2.8-2.1h1.2c0.1,0.7,0.6,1.1,1.6,1.1c0.9,0,1.4-0.4,1.4-1c0-1.5-4-0.6-4-3.1
		c0-1,1-1.9,2.5-1.9c1.5,0,2.5,0.8,2.6,2.1h-1.1c0-0.7-0.6-1.2-1.5-1.2c-0.8,0-1.3,0.4-1.3,0.9c0,1.6,3.9,0.7,4,3.1
		C287.7,122.4,286.7,123.2,285.2,123.2z"/>
	<path class="st1" d="M292.7,117.3h-0.9v-0.9h0.9v-0.5c0-1.5,0.7-2.2,2.5-2.2v0.9c-1,0-1.3,0.4-1.3,1.2v0.5h1.4v0.9h-1.4v5.8h-1.1
		V117.3z"/>
	<path class="st1" d="M296.4,114.5c0-0.4,0.3-0.8,0.8-0.8c0.4,0,0.7,0.3,0.7,0.8c0,0.4-0.3,0.8-0.7,0.8
		C296.7,115.2,296.4,114.9,296.4,114.5z M296.6,116.3h1.1v6.8h-1.1V116.3z"/>
	<path class="st1" d="M300.8,116.3v8.2c0,1.2-0.6,1.7-1.8,1.7h-0.7v-1h0.5c0.6,0,0.9-0.2,0.9-0.8v-8.2H300.8z M299.5,114.5
		c0-0.4,0.3-0.8,0.8-0.8c0.4,0,0.8,0.3,0.8,0.8c0,0.4-0.3,0.8-0.8,0.8C299.8,115.2,299.5,114.9,299.5,114.5z"/>
	<path class="st1" d="M305.5,116.2c1.3,0,2.1,0.6,2.5,1.3v-1.2h1.1v6.8H308v-1.3c-0.4,0.7-1.3,1.4-2.5,1.4c-1.8,0-3.2-1.4-3.2-3.5
		C302.3,117.6,303.7,116.2,305.5,116.2z M305.7,117.2c-1.2,0-2.3,0.9-2.3,2.5c0,1.6,1,2.5,2.3,2.5s2.3-0.9,2.3-2.5
		C308,118.1,306.9,117.2,305.7,117.2z"/>
	<path class="st1" d="M313.4,123.2c-1.6,0-2.7-0.9-2.8-2.1h1.2c0.1,0.7,0.6,1.1,1.6,1.1c0.9,0,1.4-0.4,1.4-1c0-1.5-4-0.6-4-3.1
		c0-1,1-1.9,2.5-1.9c1.5,0,2.5,0.8,2.6,2.1h-1.1c0-0.7-0.6-1.2-1.5-1.2c-0.8,0-1.3,0.4-1.3,0.9c0,1.6,3.9,0.7,4,3.1
		C315.9,122.4,314.9,123.2,313.4,123.2z"/>
</g>
</svg>
