<?xml version="1.0" encoding="utf-8"?>
<!-- Generator: Adobe Illustrator 27.2.0, SVG Export Plug-In . SVG Version: 6.00 Build 0)  -->
<svg version="1.1" id="Capa_1" xmlns="http://www.w3.org/2000/svg" xmlns:xlink="http://www.w3.org/1999/xlink" x="0px" y="0px"
	 viewBox="0 0 465 153.1" style="enable-background:new 0 0 465 153.1;" xml:space="preserve">
<style type="text/css">
	.st0{fill:#FFFFFF;}
	.st1{fill:#E0EAEB;}
	.st2{opacity:0.95;}
	.st3{fill:#000516;}
	.st4{opacity:0.75;fill:url(#SVGID_1_);}
	.st5{filter:url(#Adobe_OpacityMaskFilter);}
	.st6{mask:url(#SVGID_00000052802599124295983320000018002829100029572761_);}
	.st7{filter:url(#Adobe_OpacityMaskFilter_00000108295910490159674520000006335061228040963221_);}
	.st8{fill:#FF009B;}
	.st9{filter:url(#Adobe_OpacityMaskFilter_00000066487081518597986230000003423776365600448662_);}
	.st10{mask:url(#SVGID_00000127745691103671333510000010863502270301161128_);}
	.st11{fill:#055FE0;}
	.st12{opacity:0.2;}
	.st13{fill:none;stroke:#EF8CB9;stroke-width:5;stroke-linecap:round;stroke-linejoin:round;}
	.st14{opacity:0.25;}
	.st15{fill:none;stroke:#ED77AC;stroke-width:4;stroke-linecap:round;stroke-linejoin:round;}
	.st16{opacity:0.3;}
	.st17{fill:none;stroke:#EA579A;stroke-width:3.15;stroke-linecap:round;stroke-linejoin:round;}
	.st18{fill:none;stroke:#E72E89;stroke-width:2.5;stroke-linecap:round;stroke-linejoin:round;}
	.st19{fill:none;stroke:#ED72A3;stroke-width:1.95;stroke-linecap:round;stroke-linejoin:round;}
	.st20{fill:none;stroke:#F199BB;stroke-width:1.25;stroke-linecap:round;stroke-linejoin:round;}
	.st21{fill:none;stroke:#F6BBD6;stroke-width:0.5;stroke-linecap:round;stroke-linejoin:round;}
	.st22{filter:url(#Adobe_OpacityMaskFilter_00000160876654764809366890000001670883461977977520_);}
	.st23{mask:url(#SVGID_00000087386374440187172320000016720116820261957296_);}
	.st24{fill:none;stroke:#90D2E5;stroke-width:5;stroke-linecap:round;stroke-linejoin:round;}
	.st25{fill:none;stroke:#75C9E0;stroke-width:4;stroke-linecap:round;stroke-linejoin:round;}
	.st26{fill:none;stroke:#00B3D3;stroke-width:3.15;stroke-linecap:round;stroke-linejoin:round;}
	.st27{fill:none;stroke:#00B3D3;stroke-width:2.5;stroke-linecap:round;stroke-linejoin:round;}
	.st28{fill:none;stroke:#68C6DE;stroke-width:1.95;stroke-linecap:round;stroke-linejoin:round;}
	.st29{fill:none;stroke:#A0D7E9;stroke-width:1.25;stroke-linecap:round;stroke-linejoin:round;}
	.st30{fill:none;stroke:#D0EAF4;stroke-width:0.5;stroke-linecap:round;stroke-linejoin:round;}
	.st31{fill:#232323;}
	.st32{fill:#262626;}
	.st33{fill:#282826;stroke:#282826;stroke-width:1.1034;stroke-miterlimit:10;}
	.st34{fill:#FFFFFF;stroke:#282826;stroke-width:1.7202;stroke-miterlimit:10;}
	.st35{fill:#25CEC9;}
	.st36{fill:#FFFF4A;}
	.st37{fill:#282826;stroke:#282826;stroke-width:1.4261;stroke-miterlimit:10;}
	.st38{fill:#FFFFFF;stroke:#282826;stroke-width:2.2234;stroke-miterlimit:10;}
	.st39{stroke:#CCCCCC;stroke-width:0.537;stroke-miterlimit:10;}
	.st40{fill:none;stroke:#000000;stroke-width:2.4846;stroke-miterlimit:10;}
	.st41{stroke:#CCCCCC;stroke-miterlimit:10;}
	.st42{fill:#F8F8F8;}
	.st43{fill:#212121;}
	.st44{fill:#5B5B5B;}
	.st45{fill:#DB0000;}
	.st46{fill:none;stroke:#DB0000;stroke-width:2.775;stroke-linecap:round;stroke-linejoin:round;stroke-miterlimit:10;}
</style>
<g>
	<path class="st43" d="M244.6,25c0.4,0,0.7,0,1,0c2.8,0,5.6,0,8.4,0c1.5,0,2.1,0.6,2.1,2c0,9,0,17.9,0,26.9c0,5.4-4,9.4-9.4,9.4
		c-9.4,0-18.8,0-28.2,0c-5.5,0-9.5-3.9-9.6-9.4c0-2.4,0-4.7,0-7.1c0-6.5,0-13,0-19.6c0-1.7,0.5-2.2,2.2-2.2c2.7,0,5.5,0,8.2,0
		c0.3,0,0.6,0,1,0 M220.2,28.3c-2.7,0-5.4,0-8.1,0c0,0.3,0,0.6,0,0.9c0,8.2,0.1,16.3,0,24.5c0,3.6,2.7,6.4,6.4,6.4
		c9.3-0.1,18.7,0,28,0c3.9,0,6.4-2.5,6.4-6.3c0-8.2,0-16.3,0-24.5c0-0.3,0-0.6,0-0.8c-2.8,0-5.4,0-8.1,0 M223.6,25
		c5.9,0,11.8,0,17.8,0"/>
</g>
<g>
	<path class="st43" d="M155,87.5l-2.9-5h-1.2v5h-2.6V74.6h4.9c1,0,1.9,0.2,2.6,0.5s1.2,0.8,1.6,1.4c0.4,0.6,0.5,1.3,0.5,2
		c0,0.9-0.2,1.6-0.7,2.3c-0.5,0.7-1.2,1.2-2.2,1.4l3.1,5.2H155z M150.9,80.5h2.2c0.7,0,1.2-0.2,1.6-0.5c0.3-0.3,0.5-0.8,0.5-1.4
		s-0.2-1.1-0.5-1.4c-0.3-0.3-0.9-0.5-1.6-0.5h-2.2V80.5z"/>
	<path class="st43" d="M169.7,83.1h-7.5c0,0.8,0.3,1.3,0.8,1.8c0.5,0.4,1,0.6,1.7,0.6c1,0,1.6-0.4,2.1-1.2h2.8
		c-0.3,1-0.9,1.8-1.7,2.4c-0.8,0.6-1.9,1-3.1,1c-1,0-1.9-0.2-2.7-0.7c-0.8-0.4-1.4-1.1-1.8-1.9c-0.4-0.8-0.7-1.7-0.7-2.8
		c0-1.1,0.2-2,0.6-2.8s1-1.4,1.8-1.9c0.8-0.4,1.7-0.6,2.7-0.6c1,0,1.9,0.2,2.6,0.6c0.8,0.4,1.4,1,1.8,1.8c0.4,0.8,0.6,1.7,0.6,2.7
		C169.8,82.5,169.7,82.8,169.7,83.1z M167.1,81.5c0-0.7-0.3-1.3-0.7-1.7c-0.5-0.4-1-0.6-1.7-0.6c-0.7,0-1.2,0.2-1.7,0.6
		s-0.7,1-0.8,1.7H167.1z"/>
	<path class="st43" d="M174.7,79.4v5c0,0.3,0.1,0.6,0.2,0.8c0.2,0.2,0.4,0.2,0.8,0.2h1.2v2.2h-1.6c-2.2,0-3.3-1.1-3.3-3.2v-5h-1.2
		v-2.1h1.2v-2.5h2.6v2.5h2.3v2.1H174.7z"/>
	<path class="st43" d="M179,75.6c-0.3-0.3-0.5-0.7-0.5-1.1s0.2-0.8,0.5-1.1c0.3-0.3,0.7-0.4,1.1-0.4s0.8,0.1,1.1,0.4
		c0.3,0.3,0.5,0.7,0.5,1.1s-0.2,0.8-0.5,1.1c-0.3,0.3-0.7,0.4-1.1,0.4S179.3,75.9,179,75.6z M181.4,77.2v10.3h-2.6V77.2H181.4z"/>
	<path class="st43" d="M187.9,77.6c0.5-0.3,1.2-0.5,1.8-0.5v2.7h-0.7c-0.8,0-1.4,0.2-1.8,0.6c-0.4,0.4-0.6,1.1-0.6,2v5.1H184V77.2
		h2.6v1.8C186.9,78.4,187.4,78,187.9,77.6z"/>
	<path class="st43" d="M193.4,87c-0.8-0.4-1.4-1.1-1.9-1.9c-0.5-0.8-0.7-1.7-0.7-2.8c0-1.1,0.2-2,0.7-2.8c0.5-0.8,1.1-1.4,1.9-1.9
		s1.7-0.7,2.7-0.7c1,0,1.9,0.2,2.7,0.7c0.8,0.4,1.4,1.1,1.9,1.9c0.5,0.8,0.7,1.7,0.7,2.8c0,1-0.2,2-0.7,2.8
		c-0.5,0.8-1.1,1.4-1.9,1.9c-0.8,0.4-1.7,0.7-2.7,0.7C195.1,87.7,194.2,87.5,193.4,87z M197.4,85.1c0.4-0.2,0.7-0.6,1-1
		c0.2-0.5,0.4-1,0.4-1.7c0-0.7-0.1-1.2-0.4-1.7c-0.2-0.5-0.6-0.8-1-1c-0.4-0.2-0.8-0.4-1.3-0.4c-0.7,0-1.3,0.3-1.9,0.8
		c-0.5,0.5-0.8,1.3-0.8,2.3c0,1,0.2,1.7,0.7,2.3c0.5,0.5,1.1,0.8,1.8,0.8C196.5,85.5,197,85.3,197.4,85.1z"/>
	<path class="st43" d="M217.8,83.1h-7.5c0,0.8,0.3,1.3,0.8,1.8c0.5,0.4,1,0.6,1.7,0.6c1,0,1.6-0.4,2.1-1.2h2.8
		c-0.3,1-0.9,1.8-1.7,2.4c-0.8,0.6-1.9,1-3.1,1c-1,0-1.9-0.2-2.7-0.7c-0.8-0.4-1.4-1.1-1.8-1.9c-0.4-0.8-0.7-1.7-0.7-2.8
		c0-1.1,0.2-2,0.6-2.8s1-1.4,1.8-1.9c0.8-0.4,1.7-0.6,2.7-0.6c1,0,1.9,0.2,2.6,0.6c0.8,0.4,1.4,1,1.8,1.8c0.4,0.8,0.6,1.7,0.6,2.7
		C217.8,82.5,217.8,82.8,217.8,83.1z M215.1,81.5c0-0.7-0.3-1.3-0.7-1.7c-0.5-0.4-1-0.6-1.7-0.6c-0.7,0-1.2,0.2-1.7,0.6
		s-0.7,1-0.8,1.7H215.1z"/>
	<path class="st43" d="M228.4,78.3c0.8,0.8,1.1,1.9,1.1,3.2v6h-2.6v-5.7c0-0.8-0.2-1.4-0.6-1.9c-0.4-0.4-1-0.7-1.7-0.7
		c-0.7,0-1.3,0.2-1.7,0.7c-0.4,0.4-0.6,1.1-0.6,1.9v5.7h-2.6V77.2h2.6v1.3c0.3-0.4,0.8-0.8,1.3-1c0.5-0.3,1.1-0.4,1.8-0.4
		C226.6,77.1,227.6,77.5,228.4,78.3z"/>
	<path class="st43" d="M239,87.2c-0.7-0.3-1.3-0.8-1.7-1.3c-0.4-0.6-0.6-1.3-0.6-2.1h2.8c0,0.5,0.2,1,0.6,1.3
		c0.3,0.3,0.8,0.5,1.4,0.5c0.6,0,1.1-0.1,1.4-0.4c0.3-0.3,0.5-0.7,0.5-1.2c0-0.4-0.1-0.7-0.4-0.9c-0.2-0.2-0.5-0.4-0.9-0.6
		c-0.4-0.1-0.8-0.3-1.5-0.5c-0.8-0.2-1.5-0.5-2-0.7s-1-0.6-1.4-1.1s-0.6-1.1-0.6-2c0-0.8,0.2-1.4,0.6-2c0.4-0.6,0.9-1,1.6-1.3
		c0.7-0.3,1.5-0.5,2.4-0.5c1.3,0,2.4,0.3,3.3,1c0.8,0.6,1.3,1.6,1.4,2.7H243c0-0.5-0.2-0.9-0.6-1.2c-0.4-0.3-0.8-0.4-1.4-0.4
		c-0.5,0-0.9,0.1-1.2,0.4s-0.5,0.7-0.5,1.2c0,0.3,0.1,0.6,0.3,0.9s0.5,0.4,0.9,0.6c0.3,0.1,0.8,0.3,1.4,0.5c0.8,0.2,1.5,0.5,2.1,0.7
		c0.5,0.2,1,0.6,1.4,1.1c0.4,0.5,0.6,1.1,0.6,1.9c0,0.7-0.2,1.3-0.5,1.9c-0.4,0.6-0.9,1.1-1.6,1.4s-1.5,0.5-2.5,0.5
		C240.5,87.6,239.7,87.5,239,87.2z"/>
	<path class="st43" d="M257.9,77.2v10.3h-2.6v-1.3c-0.3,0.4-0.8,0.8-1.3,1c-0.5,0.3-1.1,0.4-1.8,0.4c-0.8,0-1.5-0.2-2.1-0.5
		s-1.1-0.8-1.5-1.5c-0.4-0.7-0.5-1.4-0.5-2.4v-6h2.6v5.7c0,0.8,0.2,1.4,0.6,1.9s1,0.7,1.7,0.7c0.7,0,1.3-0.2,1.7-0.7
		c0.4-0.4,0.6-1.1,0.6-1.9v-5.7H257.9z"/>
	<path class="st43" d="M260.5,79.6c0.4-0.8,1-1.4,1.8-1.9c0.8-0.4,1.6-0.7,2.6-0.7c1.3,0,2.3,0.3,3.2,1c0.8,0.6,1.4,1.5,1.7,2.7
		h-2.8c-0.1-0.4-0.4-0.8-0.8-1c-0.4-0.3-0.8-0.4-1.3-0.4c-0.7,0-1.3,0.3-1.8,0.8c-0.4,0.5-0.6,1.3-0.6,2.3c0,1,0.2,1.7,0.6,2.3
		c0.4,0.5,1,0.8,1.8,0.8c1,0,1.7-0.5,2.1-1.4h2.8c-0.3,1.1-0.8,2-1.7,2.7c-0.8,0.7-1.9,1-3.2,1c-1,0-1.9-0.2-2.6-0.7
		c-0.8-0.4-1.4-1.1-1.8-1.9c-0.4-0.8-0.6-1.7-0.6-2.8C259.8,81.3,260,80.4,260.5,79.6z"/>
	<path class="st43" d="M281.4,77.2v10.3h-2.6v-1.3c-0.3,0.4-0.8,0.8-1.3,1c-0.5,0.3-1.1,0.4-1.8,0.4c-0.8,0-1.5-0.2-2.1-0.5
		s-1.1-0.8-1.5-1.5c-0.4-0.7-0.5-1.4-0.5-2.4v-6h2.6v5.7c0,0.8,0.2,1.4,0.6,1.9s1,0.7,1.7,0.7c0.7,0,1.3-0.2,1.7-0.7
		c0.4-0.4,0.6-1.1,0.6-1.9v-5.7H281.4z"/>
	<path class="st43" d="M287.8,77.6c0.5-0.3,1.2-0.5,1.8-0.5v2.7H289c-0.8,0-1.4,0.2-1.8,0.6c-0.4,0.4-0.6,1.1-0.6,2v5.1h-2.6V77.2
		h2.6v1.8C286.8,78.4,287.3,78,287.8,77.6z"/>
	<path class="st43" d="M293.1,87.2c-0.7-0.3-1.2-0.7-1.6-1.2c-0.4-0.5-0.6-1.1-0.6-1.7h2.6c0,0.4,0.2,0.8,0.6,1s0.8,0.4,1.3,0.4
		c0.5,0,0.9-0.1,1.2-0.3c0.3-0.2,0.4-0.5,0.4-0.8c0-0.3-0.2-0.6-0.5-0.8c-0.3-0.2-0.9-0.4-1.6-0.5s-1.4-0.4-1.9-0.6
		s-0.9-0.5-1.2-0.9s-0.5-0.9-0.5-1.6c0-0.6,0.2-1.1,0.5-1.6c0.3-0.5,0.8-0.9,1.4-1.1c0.6-0.3,1.3-0.4,2.2-0.4c1.2,0,2.2,0.3,2.9,0.9
		c0.7,0.6,1.1,1.4,1.2,2.5h-2.5c0-0.4-0.2-0.8-0.5-1c-0.3-0.3-0.7-0.4-1.2-0.4c-0.5,0-0.8,0.1-1.1,0.3c-0.3,0.2-0.4,0.5-0.4,0.8
		c0,0.3,0.2,0.6,0.5,0.8c0.3,0.2,0.9,0.4,1.6,0.5c0.7,0.2,1.4,0.4,1.8,0.6c0.5,0.2,0.9,0.5,1.2,0.9c0.3,0.4,0.5,0.9,0.5,1.6
		c0,0.6-0.2,1.1-0.5,1.6s-0.8,0.8-1.4,1.1c-0.6,0.3-1.3,0.4-2.2,0.4C294.5,87.7,293.7,87.5,293.1,87.2z"/>
	<path class="st43" d="M301.5,79.6c0.4-0.8,1-1.4,1.7-1.9c0.7-0.4,1.5-0.6,2.4-0.6c0.8,0,1.4,0.2,2,0.5c0.6,0.3,1,0.7,1.4,1.2v-1.5
		h2.6v10.3h-2.6V86c-0.3,0.5-0.8,0.9-1.4,1.2s-1.3,0.5-2,0.5c-0.9,0-1.7-0.2-2.4-0.7c-0.7-0.4-1.3-1.1-1.7-1.9s-0.6-1.7-0.6-2.8
		C300.8,81.3,301,80.4,301.5,79.6z M308.5,80.8c-0.2-0.5-0.6-0.8-1-1c-0.4-0.2-0.9-0.4-1.4-0.4c-0.5,0-0.9,0.1-1.3,0.4
		c-0.4,0.2-0.7,0.6-1,1c-0.3,0.5-0.4,1-0.4,1.6s0.1,1.2,0.4,1.6c0.3,0.5,0.6,0.8,1,1.1c0.4,0.2,0.9,0.4,1.3,0.4
		c0.5,0,0.9-0.1,1.4-0.4c0.4-0.2,0.8-0.6,1-1s0.4-1,0.4-1.6C308.9,81.8,308.8,81.2,308.5,80.8z"/>
	<path class="st43" d="M316.7,73.8v13.7h-2.6V73.8H316.7z"/>
</g>
<g>
	<g>
		<path class="st44" d="M107.4,107.4l-2.2-3.7h-1.4v3.7h-1.2v-9.1h2.9c0.7,0,1.3,0.1,1.7,0.4c0.5,0.2,0.8,0.6,1.1,0.9
			c0.2,0.4,0.4,0.9,0.4,1.4c0,0.6-0.2,1.2-0.5,1.7c-0.4,0.5-0.9,0.8-1.6,0.9l2.3,3.8H107.4z M103.8,102.8h1.7c0.6,0,1.1-0.2,1.4-0.5
			s0.5-0.7,0.5-1.3c0-0.5-0.2-1-0.5-1.3c-0.3-0.3-0.8-0.5-1.5-0.5h-1.7V102.8z"/>
		<path class="st44" d="M117,104.3h-5.7c0,0.7,0.3,1.3,0.7,1.7c0.4,0.4,1,0.6,1.6,0.6c0.5,0,0.9-0.1,1.3-0.4c0.3-0.2,0.6-0.6,0.7-1
			h1.3c-0.2,0.7-0.6,1.2-1.1,1.7s-1.3,0.6-2.1,0.6c-0.7,0-1.3-0.2-1.8-0.5c-0.5-0.3-1-0.7-1.3-1.3c-0.3-0.6-0.5-1.2-0.5-1.9
			c0-0.7,0.1-1.4,0.4-1.9c0.3-0.6,0.7-1,1.2-1.3s1.1-0.4,1.8-0.4c0.7,0,1.3,0.1,1.8,0.4s0.9,0.7,1.2,1.2c0.3,0.5,0.4,1.1,0.4,1.7
			C117,103.8,117,104,117,104.3z M115.5,102.2c-0.2-0.3-0.5-0.6-0.8-0.8c-0.3-0.2-0.7-0.3-1.1-0.3c-0.6,0-1.1,0.2-1.5,0.6
			s-0.7,0.9-0.7,1.6h4.5C115.8,102.9,115.7,102.5,115.5,102.2z"/>
		<path class="st44" d="M120,101.3v4.2c0,0.3,0.1,0.6,0.2,0.7c0.1,0.1,0.4,0.2,0.8,0.2h0.9v1h-1.1c-0.7,0-1.2-0.2-1.5-0.5
			c-0.3-0.3-0.5-0.8-0.5-1.5v-4.2h-0.9v-1h0.9v-1.8h1.2v1.8h1.9v1H120z"/>
		<path class="st44" d="M123.3,98.9c-0.2-0.2-0.2-0.3-0.2-0.6s0.1-0.4,0.2-0.6c0.2-0.2,0.3-0.2,0.6-0.2c0.2,0,0.4,0.1,0.6,0.2
			c0.2,0.2,0.2,0.3,0.2,0.6s-0.1,0.4-0.2,0.6s-0.3,0.2-0.6,0.2C123.7,99.2,123.5,99.1,123.3,98.9z M124.5,100.3v7.1h-1.2v-7.1H124.5
			z"/>
		<path class="st44" d="M128.6,100.6c0.4-0.3,0.9-0.4,1.4-0.4v1.2h-0.3c-1.3,0-2,0.7-2,2.2v3.9h-1.2v-7.1h1.2v1.4
			C127.9,101.2,128.2,100.8,128.6,100.6z"/>
		<path class="st44" d="M131.3,101.9c0.3-0.6,0.7-1,1.2-1.3c0.5-0.3,1.1-0.5,1.7-0.5c0.6,0,1.2,0.1,1.6,0.4c0.5,0.3,0.8,0.6,1,1
			v-1.3h1.2v7.1h-1.2v-1.3c-0.2,0.4-0.6,0.8-1,1c-0.5,0.3-1,0.4-1.6,0.4c-0.6,0-1.2-0.2-1.7-0.5c-0.5-0.3-0.9-0.8-1.2-1.3
			c-0.3-0.6-0.4-1.2-0.4-1.9C130.9,103.1,131,102.5,131.3,101.9z M136.6,102.5c-0.2-0.4-0.5-0.7-0.9-0.9c-0.4-0.2-0.8-0.3-1.2-0.3
			c-0.4,0-0.8,0.1-1.2,0.3c-0.4,0.2-0.7,0.5-0.9,0.9c-0.2,0.4-0.3,0.9-0.3,1.4c0,0.5,0.1,1,0.3,1.4c0.2,0.4,0.5,0.7,0.9,0.9
			c0.4,0.2,0.8,0.3,1.2,0.3c0.4,0,0.8-0.1,1.2-0.3c0.4-0.2,0.7-0.5,0.9-0.9c0.2-0.4,0.3-0.9,0.3-1.4
			C136.9,103.3,136.8,102.9,136.6,102.5z"/>
		<path class="st44" d="M145.4,101.3v4.2c0,0.3,0.1,0.6,0.2,0.7c0.1,0.1,0.4,0.2,0.8,0.2h0.9v1h-1.1c-0.7,0-1.2-0.2-1.5-0.5
			c-0.3-0.3-0.5-0.8-0.5-1.5v-4.2h-0.9v-1h0.9v-1.8h1.2v1.8h1.9v1H145.4z"/>
		<path class="st44" d="M155,100.3v7.1h-1.2v-1.1c-0.2,0.4-0.5,0.6-0.9,0.9c-0.4,0.2-0.8,0.3-1.3,0.3c-0.6,0-1.1-0.1-1.5-0.3
			c-0.4-0.2-0.8-0.6-1-1c-0.3-0.5-0.4-1-0.4-1.7v-4.2h1.2v4c0,0.7,0.2,1.2,0.5,1.6s0.8,0.6,1.5,0.6c0.6,0,1.1-0.2,1.5-0.6
			s0.5-1,0.5-1.7v-3.9H155z"/>
		<path class="st44" d="M163.2,100.6c0.5-0.3,1-0.4,1.6-0.4c0.6,0,1.2,0.2,1.7,0.5c0.5,0.3,0.9,0.7,1.2,1.3c0.3,0.5,0.4,1.2,0.4,1.9
			c0,0.7-0.1,1.4-0.4,1.9c-0.3,0.6-0.7,1-1.2,1.3c-0.5,0.3-1.1,0.5-1.7,0.5c-0.6,0-1.1-0.1-1.6-0.4c-0.5-0.3-0.8-0.6-1.1-1v4.7h-1.2
			v-10.5h1.2v1.3C162.3,101.2,162.7,100.9,163.2,100.6z M166.6,102.4c-0.2-0.4-0.5-0.7-0.9-0.9s-0.8-0.3-1.2-0.3
			c-0.4,0-0.8,0.1-1.2,0.3c-0.4,0.2-0.7,0.5-0.9,0.9c-0.2,0.4-0.3,0.9-0.3,1.4c0,0.5,0.1,1,0.3,1.4c0.2,0.4,0.5,0.7,0.9,0.9
			c0.4,0.2,0.8,0.3,1.2,0.3c0.4,0,0.8-0.1,1.2-0.3c0.4-0.2,0.7-0.5,0.9-0.9c0.2-0.4,0.3-0.9,0.3-1.4
			C166.9,103.3,166.8,102.8,166.6,102.4z"/>
		<path class="st44" d="M176.2,104.3h-5.7c0,0.7,0.3,1.3,0.7,1.7c0.4,0.4,1,0.6,1.6,0.6c0.5,0,0.9-0.1,1.3-0.4
			c0.3-0.2,0.6-0.6,0.7-1h1.3c-0.2,0.7-0.6,1.2-1.1,1.7c-0.6,0.4-1.3,0.6-2.1,0.6c-0.7,0-1.3-0.2-1.8-0.5c-0.5-0.3-1-0.7-1.3-1.3
			c-0.3-0.6-0.5-1.2-0.5-1.9c0-0.7,0.1-1.4,0.4-1.9s0.7-1,1.2-1.3c0.5-0.3,1.1-0.4,1.8-0.4c0.7,0,1.3,0.1,1.8,0.4s0.9,0.7,1.2,1.2
			c0.3,0.5,0.4,1.1,0.4,1.7C176.2,103.8,176.2,104,176.2,104.3z M174.7,102.2c-0.2-0.3-0.5-0.6-0.8-0.8c-0.3-0.2-0.7-0.3-1.1-0.3
			c-0.6,0-1.1,0.2-1.5,0.6s-0.7,0.9-0.7,1.6h4.5C175,102.9,174.9,102.5,174.7,102.2z"/>
		<path class="st44" d="M177.8,101.9c0.3-0.6,0.7-1,1.2-1.3c0.5-0.3,1.1-0.5,1.7-0.5c0.6,0,1.1,0.1,1.5,0.4c0.5,0.3,0.8,0.6,1.1,1
			v-3.8h1.2v9.6h-1.2v-1.3c-0.2,0.4-0.6,0.8-1,1c-0.5,0.3-1,0.4-1.6,0.4c-0.6,0-1.2-0.2-1.7-0.5c-0.5-0.3-0.9-0.8-1.2-1.3
			c-0.3-0.6-0.4-1.2-0.4-1.9C177.3,103.1,177.5,102.5,177.8,101.9z M183,102.5c-0.2-0.4-0.5-0.7-0.9-0.9c-0.4-0.2-0.8-0.3-1.2-0.3
			c-0.4,0-0.8,0.1-1.2,0.3c-0.4,0.2-0.7,0.5-0.9,0.9c-0.2,0.4-0.3,0.9-0.3,1.4c0,0.5,0.1,1,0.3,1.4c0.2,0.4,0.5,0.7,0.9,0.9
			c0.4,0.2,0.8,0.3,1.2,0.3c0.4,0,0.8-0.1,1.2-0.3c0.4-0.2,0.7-0.5,0.9-0.9c0.2-0.4,0.3-0.9,0.3-1.4
			C183.4,103.3,183.3,102.9,183,102.5z"/>
		<path class="st44" d="M186.6,98.9c-0.2-0.2-0.2-0.3-0.2-0.6s0.1-0.4,0.2-0.6c0.2-0.2,0.3-0.2,0.6-0.2c0.2,0,0.4,0.1,0.6,0.2
			c0.2,0.2,0.2,0.3,0.2,0.6s-0.1,0.4-0.2,0.6c-0.2,0.2-0.3,0.2-0.6,0.2C186.9,99.2,186.8,99.1,186.6,98.9z M187.7,100.3v7.1h-1.2
			v-7.1H187.7z"/>
		<path class="st44" d="M189.8,101.9c0.3-0.6,0.7-1,1.2-1.3c0.5-0.3,1.1-0.5,1.7-0.5c0.6,0,1.1,0.1,1.5,0.4c0.5,0.3,0.8,0.6,1.1,1
			v-3.8h1.2v9.6h-1.2v-1.3c-0.2,0.4-0.6,0.8-1,1c-0.5,0.3-1,0.4-1.6,0.4c-0.6,0-1.2-0.2-1.7-0.5c-0.5-0.3-0.9-0.8-1.2-1.3
			c-0.3-0.6-0.4-1.2-0.4-1.9C189.3,103.1,189.5,102.5,189.8,101.9z M195,102.5c-0.2-0.4-0.5-0.7-0.9-0.9c-0.4-0.2-0.8-0.3-1.2-0.3
			s-0.8,0.1-1.2,0.3s-0.7,0.5-0.9,0.9c-0.2,0.4-0.3,0.9-0.3,1.4c0,0.5,0.1,1,0.3,1.4c0.2,0.4,0.5,0.7,0.9,0.9
			c0.4,0.2,0.8,0.3,1.2,0.3s0.8-0.1,1.2-0.3c0.4-0.2,0.7-0.5,0.9-0.9c0.2-0.4,0.3-0.9,0.3-1.4C195.3,103.3,195.2,102.9,195,102.5z"
			/>
		<path class="st44" d="M199.8,107.1c-0.5-0.3-1-0.7-1.3-1.3c-0.3-0.6-0.5-1.2-0.5-1.9c0-0.7,0.2-1.4,0.5-1.9c0.3-0.6,0.7-1,1.3-1.3
			c0.5-0.3,1.2-0.4,1.8-0.4c0.7,0,1.3,0.2,1.8,0.4c0.5,0.3,1,0.7,1.3,1.3s0.5,1.2,0.5,1.9c0,0.7-0.2,1.4-0.5,1.9
			c-0.3,0.6-0.8,1-1.3,1.3c-0.6,0.3-1.2,0.5-1.8,0.5C201,107.6,200.4,107.4,199.8,107.1z M202.8,106.2c0.4-0.2,0.7-0.5,0.9-0.9
			s0.3-0.9,0.3-1.5c0-0.6-0.1-1.1-0.3-1.5s-0.5-0.7-0.9-0.9c-0.4-0.2-0.8-0.3-1.2-0.3c-0.4,0-0.8,0.1-1.2,0.3s-0.6,0.5-0.9,0.9
			s-0.3,0.9-0.3,1.5c0,0.6,0.1,1.1,0.3,1.5c0.2,0.4,0.5,0.7,0.9,0.9c0.4,0.2,0.7,0.3,1.2,0.3S202.5,106.4,202.8,106.2z"/>
		<path class="st44" d="M214.9,100.4c0.4,0.2,0.7,0.5,1,0.8v-1h1.8v7.3c0,0.7-0.1,1.3-0.4,1.8s-0.7,0.9-1.2,1.2s-1.2,0.5-2,0.5
			c-1,0-1.9-0.2-2.5-0.7s-1-1.1-1.1-2h1.8c0.1,0.3,0.3,0.6,0.6,0.8s0.7,0.3,1.2,0.3c0.5,0,1-0.2,1.3-0.5c0.3-0.3,0.5-0.8,0.5-1.4
			v-1.1c-0.2,0.3-0.6,0.6-1,0.8c-0.4,0.2-0.9,0.3-1.4,0.3c-0.6,0-1.2-0.2-1.7-0.5c-0.5-0.3-0.9-0.8-1.2-1.3c-0.3-0.6-0.4-1.2-0.4-2
			c0-0.7,0.1-1.4,0.4-1.9c0.3-0.6,0.7-1,1.2-1.3c0.5-0.3,1.1-0.5,1.7-0.5C214,100.1,214.5,100.2,214.9,100.4z M215.6,102.7
			c-0.2-0.3-0.4-0.6-0.7-0.7c-0.3-0.2-0.6-0.3-0.9-0.3s-0.7,0.1-0.9,0.2s-0.5,0.4-0.7,0.7s-0.3,0.7-0.3,1.1c0,0.4,0.1,0.8,0.3,1.1
			s0.4,0.6,0.7,0.7c0.3,0.2,0.6,0.3,0.9,0.3c0.3,0,0.7-0.1,0.9-0.3c0.3-0.2,0.5-0.4,0.7-0.7c0.2-0.3,0.3-0.7,0.3-1.1
			C215.8,103.4,215.7,103,215.6,102.7z"/>
		<path class="st44" d="M222.2,100.5c0.4-0.2,0.8-0.4,1.3-0.4v1.9H223c-0.6,0-1,0.1-1.3,0.4c-0.3,0.3-0.4,0.7-0.4,1.4v3.6h-1.8v-7.2
			h1.8v1.3C221.5,101.1,221.8,100.7,222.2,100.5z"/>
		<path class="st44" d="M224.7,101.9c0.3-0.6,0.7-1,1.2-1.3c0.5-0.3,1.1-0.5,1.7-0.5c0.5,0,1,0.1,1.4,0.3c0.4,0.2,0.7,0.5,1,0.8v-1
			h1.8v7.2h-1.8v-1.1c-0.2,0.3-0.6,0.6-1,0.8c-0.4,0.2-0.9,0.3-1.4,0.3c-0.6,0-1.2-0.2-1.7-0.5c-0.5-0.3-0.9-0.8-1.2-1.3
			s-0.4-1.2-0.4-2C224.2,103.1,224.4,102.4,224.7,101.9z M229.6,102.7c-0.2-0.3-0.4-0.6-0.7-0.7c-0.3-0.2-0.6-0.3-0.9-0.3
			s-0.6,0.1-0.9,0.2s-0.5,0.4-0.7,0.7c-0.2,0.3-0.3,0.7-0.3,1.1c0,0.4,0.1,0.8,0.3,1.1c0.2,0.3,0.4,0.6,0.7,0.7
			c0.3,0.2,0.6,0.3,0.9,0.3c0.3,0,0.7-0.1,0.9-0.3s0.5-0.4,0.7-0.7c0.2-0.3,0.3-0.7,0.3-1.1C229.9,103.4,229.8,103,229.6,102.7z"/>
		<path class="st44" d="M235.6,101.7v3.5c0,0.2,0.1,0.4,0.2,0.5s0.3,0.2,0.6,0.2h0.8v1.5h-1.1c-1.5,0-2.3-0.7-2.3-2.2v-3.5h-0.9
			v-1.5h0.9v-1.8h1.8v1.8h1.6v1.5H235.6z"/>
		<path class="st44" d="M238.7,99.1c-0.2-0.2-0.3-0.5-0.3-0.8c0-0.3,0.1-0.6,0.3-0.8c0.2-0.2,0.5-0.3,0.8-0.3c0.3,0,0.6,0.1,0.8,0.3
			c0.2,0.2,0.3,0.5,0.3,0.8c0,0.3-0.1,0.6-0.3,0.8c-0.2,0.2-0.5,0.3-0.8,0.3C239.2,99.4,238.9,99.3,238.7,99.1z M240.4,100.2v7.2
			h-1.8v-7.2H240.4z"/>
		<path class="st44" d="M243.3,107.2c-0.5-0.2-0.8-0.5-1.1-0.9c-0.3-0.4-0.4-0.8-0.4-1.2h1.8c0,0.3,0.2,0.5,0.4,0.7
			c0.2,0.2,0.5,0.3,0.9,0.3c0.3,0,0.6-0.1,0.8-0.2c0.2-0.1,0.3-0.3,0.3-0.6c0-0.2-0.1-0.4-0.4-0.5c-0.2-0.1-0.6-0.2-1.2-0.4
			c-0.5-0.1-1-0.3-1.3-0.4c-0.3-0.1-0.6-0.3-0.9-0.6c-0.2-0.3-0.4-0.7-0.4-1.1c0-0.4,0.1-0.8,0.3-1.1c0.2-0.3,0.5-0.6,1-0.8
			c0.4-0.2,0.9-0.3,1.5-0.3c0.9,0,1.5,0.2,2.1,0.6c0.5,0.4,0.8,1,0.8,1.7H246c0-0.3-0.1-0.5-0.4-0.7c-0.2-0.2-0.5-0.3-0.9-0.3
			c-0.3,0-0.6,0.1-0.8,0.2c-0.2,0.1-0.3,0.3-0.3,0.6c0,0.2,0.1,0.4,0.4,0.6c0.2,0.1,0.6,0.3,1.1,0.4c0.5,0.1,0.9,0.3,1.3,0.4
			s0.6,0.3,0.9,0.6c0.2,0.3,0.4,0.7,0.4,1.1c0,0.4-0.1,0.8-0.3,1.1c-0.2,0.3-0.6,0.6-1,0.8s-0.9,0.3-1.5,0.3
			C244.3,107.6,243.8,107.4,243.3,107.2z"/>
		<path class="st44" d="M259.7,104.3H254c0,0.7,0.3,1.3,0.7,1.7c0.4,0.4,1,0.6,1.6,0.6c0.5,0,0.9-0.1,1.3-0.4c0.3-0.2,0.6-0.6,0.7-1
			h1.3c-0.2,0.7-0.6,1.2-1.1,1.7c-0.6,0.4-1.3,0.6-2.1,0.6c-0.7,0-1.3-0.2-1.8-0.5c-0.5-0.3-1-0.7-1.3-1.3c-0.3-0.6-0.5-1.2-0.5-1.9
			c0-0.7,0.1-1.4,0.4-1.9s0.7-1,1.2-1.3c0.5-0.3,1.1-0.4,1.8-0.4c0.7,0,1.3,0.1,1.8,0.4s0.9,0.7,1.2,1.2c0.3,0.5,0.4,1.1,0.4,1.7
			C259.7,103.8,259.7,104,259.7,104.3z M258.2,102.2c-0.2-0.3-0.5-0.6-0.8-0.8c-0.3-0.2-0.7-0.3-1.1-0.3c-0.6,0-1.1,0.2-1.5,0.6
			s-0.7,0.9-0.7,1.6h4.5C258.5,102.9,258.4,102.5,258.2,102.2z"/>
		<path class="st44" d="M266.9,101c0.5,0.5,0.8,1.3,0.8,2.3v4.2h-1.2v-4c0-0.7-0.2-1.3-0.5-1.6s-0.8-0.6-1.5-0.6
			c-0.6,0-1.1,0.2-1.5,0.6c-0.4,0.4-0.6,1-0.6,1.7v3.9h-1.2v-7.1h1.2v1c0.2-0.4,0.6-0.6,1-0.8c0.4-0.2,0.8-0.3,1.3-0.3
			C265.6,100.2,266.3,100.4,266.9,101z"/>
		<path class="st44" d="M273.5,101.9c0.3-0.6,0.7-1,1.2-1.3c0.5-0.3,1.1-0.5,1.8-0.5c0.9,0,1.6,0.2,2.2,0.6c0.6,0.4,0.9,1,1.1,1.8
			h-1.3c-0.1-0.4-0.4-0.8-0.7-1c-0.4-0.3-0.8-0.4-1.3-0.4c-0.7,0-1.2,0.2-1.6,0.7s-0.6,1.1-0.6,2c0,0.9,0.2,1.5,0.6,2s1,0.7,1.6,0.7
			c0.5,0,1-0.1,1.3-0.4c0.3-0.2,0.6-0.6,0.7-1h1.3c-0.2,0.7-0.6,1.3-1.1,1.7c-0.6,0.4-1.3,0.7-2.1,0.7c-0.7,0-1.3-0.2-1.8-0.5
			c-0.5-0.3-0.9-0.7-1.2-1.3s-0.4-1.2-0.4-2C273,103.1,273.2,102.5,273.5,101.9z"/>
		<path class="st44" d="M287.7,100.3v7.1h-1.2v-1.1c-0.2,0.4-0.5,0.6-0.9,0.9c-0.4,0.2-0.8,0.3-1.3,0.3c-0.6,0-1.1-0.1-1.5-0.3
			c-0.4-0.2-0.8-0.6-1-1c-0.3-0.5-0.4-1-0.4-1.7v-4.2h1.2v4c0,0.7,0.2,1.2,0.5,1.6s0.8,0.6,1.5,0.6c0.6,0,1.1-0.2,1.5-0.6
			s0.5-1,0.5-1.7v-3.9H287.7z"/>
		<path class="st44" d="M289.7,101.9c0.3-0.6,0.7-1,1.2-1.3c0.5-0.3,1.1-0.5,1.7-0.5c0.6,0,1.2,0.1,1.6,0.4c0.5,0.3,0.8,0.6,1,1
			v-1.3h1.2v7.1h-1.2v-1.3c-0.2,0.4-0.6,0.8-1,1c-0.5,0.3-1,0.4-1.6,0.4c-0.6,0-1.2-0.2-1.7-0.5c-0.5-0.3-0.9-0.8-1.2-1.3
			c-0.3-0.6-0.4-1.2-0.4-1.9C289.3,103.1,289.4,102.5,289.7,101.9z M295,102.5c-0.2-0.4-0.5-0.7-0.9-0.9c-0.4-0.2-0.8-0.3-1.2-0.3
			c-0.4,0-0.8,0.1-1.2,0.3c-0.4,0.2-0.7,0.5-0.9,0.9c-0.2,0.4-0.3,0.9-0.3,1.4c0,0.5,0.1,1,0.3,1.4c0.2,0.4,0.5,0.7,0.9,0.9
			c0.4,0.2,0.8,0.3,1.2,0.3c0.4,0,0.8-0.1,1.2-0.3c0.4-0.2,0.7-0.5,0.9-0.9c0.2-0.4,0.3-0.9,0.3-1.4
			C295.3,103.3,295.2,102.9,295,102.5z"/>
		<path class="st44" d="M299.7,97.8v9.6h-1.2v-9.6H299.7z"/>
		<path class="st44" d="M301.7,101.9c0.3-0.6,0.7-1,1.2-1.3c0.5-0.3,1.1-0.5,1.7-0.5c0.6,0,1.2,0.1,1.6,0.4c0.5,0.3,0.8,0.6,1,1
			v-1.3h1.2v10.5h-1.2v-4.7c-0.2,0.4-0.6,0.7-1,1s-1,0.4-1.6,0.4s-1.2-0.2-1.7-0.5c-0.5-0.3-0.9-0.8-1.2-1.3
			c-0.3-0.6-0.4-1.2-0.4-1.9C301.2,103.1,301.4,102.5,301.7,101.9z M307,102.5c-0.2-0.4-0.5-0.7-0.9-0.9c-0.4-0.2-0.8-0.3-1.2-0.3
			s-0.8,0.1-1.2,0.3s-0.7,0.5-0.9,0.9c-0.2,0.4-0.3,0.9-0.3,1.4c0,0.5,0.1,1,0.3,1.4c0.2,0.4,0.5,0.7,0.9,0.9
			c0.4,0.2,0.8,0.3,1.2,0.3s0.8-0.1,1.2-0.3c0.4-0.2,0.7-0.5,0.9-0.9c0.2-0.4,0.3-0.9,0.3-1.4C307.3,103.3,307.2,102.9,307,102.5z"
			/>
		<path class="st44" d="M316.8,100.3v7.1h-1.2v-1.1c-0.2,0.4-0.5,0.6-0.9,0.9c-0.4,0.2-0.8,0.3-1.3,0.3c-0.6,0-1.1-0.1-1.5-0.3
			c-0.4-0.2-0.8-0.6-1-1c-0.3-0.5-0.4-1-0.4-1.7v-4.2h1.2v4c0,0.7,0.2,1.2,0.5,1.6s0.8,0.6,1.5,0.6c0.6,0,1.1-0.2,1.5-0.6
			s0.5-1,0.5-1.7v-3.9H316.8z"/>
		<path class="st44" d="M318.8,98.9c-0.2-0.2-0.2-0.3-0.2-0.6s0.1-0.4,0.2-0.6c0.2-0.2,0.3-0.2,0.6-0.2c0.2,0,0.4,0.1,0.6,0.2
			c0.2,0.2,0.2,0.3,0.2,0.6s-0.1,0.4-0.2,0.6c-0.2,0.2-0.3,0.2-0.6,0.2C319.2,99.2,319,99.1,318.8,98.9z M320,100.3v7.1h-1.2v-7.1
			H320z"/>
		<path class="st44" d="M328.5,104.3h-5.7c0,0.7,0.3,1.3,0.7,1.7c0.4,0.4,1,0.6,1.6,0.6c0.5,0,0.9-0.1,1.3-0.4
			c0.3-0.2,0.6-0.6,0.7-1h1.3c-0.2,0.7-0.6,1.2-1.1,1.7s-1.3,0.6-2.1,0.6c-0.7,0-1.3-0.2-1.8-0.5c-0.5-0.3-1-0.7-1.3-1.3
			c-0.3-0.6-0.5-1.2-0.5-1.9c0-0.7,0.1-1.4,0.4-1.9c0.3-0.6,0.7-1,1.2-1.3s1.1-0.4,1.8-0.4c0.7,0,1.3,0.1,1.8,0.4s0.9,0.7,1.2,1.2
			c0.3,0.5,0.4,1.1,0.4,1.7C328.5,103.8,328.5,104,328.5,104.3z M327,102.2c-0.2-0.3-0.5-0.6-0.8-0.8c-0.3-0.2-0.7-0.3-1.1-0.3
			c-0.6,0-1.1,0.2-1.5,0.6s-0.7,0.9-0.7,1.6h4.5C327.3,102.9,327.2,102.5,327,102.2z"/>
		<path class="st44" d="M332.1,100.6c0.4-0.3,0.9-0.4,1.4-0.4v1.2h-0.3c-1.3,0-2,0.7-2,2.2v3.9h-1.2v-7.1h1.2v1.4
			C331.4,101.2,331.7,100.8,332.1,100.6z"/>
		<path class="st44" d="M334.9,101.9c0.3-0.6,0.7-1,1.2-1.3c0.5-0.3,1.1-0.5,1.7-0.5c0.6,0,1.2,0.1,1.6,0.4c0.5,0.3,0.8,0.6,1,1
			v-1.3h1.2v7.1h-1.2v-1.3c-0.2,0.4-0.6,0.8-1,1c-0.5,0.3-1,0.4-1.6,0.4c-0.6,0-1.2-0.2-1.7-0.5c-0.5-0.3-0.9-0.8-1.2-1.3
			c-0.3-0.6-0.4-1.2-0.4-1.9C334.5,103.1,334.6,102.5,334.9,101.9z M340.2,102.5c-0.2-0.4-0.5-0.7-0.9-0.9c-0.4-0.2-0.8-0.3-1.2-0.3
			c-0.4,0-0.8,0.1-1.2,0.3c-0.4,0.2-0.7,0.5-0.9,0.9c-0.2,0.4-0.3,0.9-0.3,1.4c0,0.5,0.1,1,0.3,1.4c0.2,0.4,0.5,0.7,0.9,0.9
			c0.4,0.2,0.8,0.3,1.2,0.3c0.4,0,0.8-0.1,1.2-0.3c0.4-0.2,0.7-0.5,0.9-0.9c0.2-0.4,0.3-0.9,0.3-1.4
			C340.5,103.3,340.4,102.9,340.2,102.5z"/>
		<path class="st44" d="M347.6,101.9c0.3-0.6,0.7-1,1.2-1.3c0.5-0.3,1.1-0.5,1.7-0.5c0.6,0,1.1,0.1,1.5,0.4c0.5,0.3,0.8,0.6,1.1,1
			v-3.8h1.2v9.6h-1.2v-1.3c-0.2,0.4-0.6,0.8-1,1c-0.5,0.3-1,0.4-1.6,0.4c-0.6,0-1.2-0.2-1.7-0.5c-0.5-0.3-0.9-0.8-1.2-1.3
			c-0.3-0.6-0.4-1.2-0.4-1.9C347.1,103.1,347.3,102.5,347.6,101.9z M352.8,102.5c-0.2-0.4-0.5-0.7-0.9-0.9c-0.4-0.2-0.8-0.3-1.2-0.3
			c-0.4,0-0.8,0.1-1.2,0.3c-0.4,0.2-0.7,0.5-0.9,0.9c-0.2,0.4-0.3,0.9-0.3,1.4c0,0.5,0.1,1,0.3,1.4c0.2,0.4,0.5,0.7,0.9,0.9
			c0.4,0.2,0.8,0.3,1.2,0.3c0.4,0,0.8-0.1,1.2-0.3c0.4-0.2,0.7-0.5,0.9-0.9c0.2-0.4,0.3-0.9,0.3-1.4
			C353.2,103.3,353,102.9,352.8,102.5z"/>
		<path class="st44" d="M362.8,104.3h-5.7c0,0.7,0.3,1.3,0.7,1.7c0.4,0.4,1,0.6,1.6,0.6c0.5,0,0.9-0.1,1.3-0.4
			c0.3-0.2,0.6-0.6,0.7-1h1.3c-0.2,0.7-0.6,1.2-1.1,1.7s-1.3,0.6-2.1,0.6c-0.7,0-1.3-0.2-1.8-0.5c-0.5-0.3-1-0.7-1.3-1.3
			c-0.3-0.6-0.5-1.2-0.5-1.9c0-0.7,0.1-1.4,0.4-1.9c0.3-0.6,0.7-1,1.2-1.3s1.1-0.4,1.8-0.4c0.7,0,1.3,0.1,1.8,0.4s0.9,0.7,1.2,1.2
			c0.3,0.5,0.4,1.1,0.4,1.7C362.8,103.8,362.8,104,362.8,104.3z M361.3,102.2c-0.2-0.3-0.5-0.6-0.8-0.8c-0.3-0.2-0.7-0.3-1.1-0.3
			c-0.6,0-1.1,0.2-1.5,0.6s-0.7,0.9-0.7,1.6h4.5C361.6,102.9,361.5,102.5,361.3,102.2z"/>
		<path class="st44" d="M164.5,116.6c0.5,0.5,0.8,1.3,0.8,2.3v4.2h-1.2v-4c0-0.7-0.2-1.3-0.5-1.6s-0.8-0.6-1.5-0.6
			c-0.6,0-1.1,0.2-1.5,0.6c-0.4,0.4-0.6,1-0.6,1.7v3.9H159v-7.1h1.2v1c0.2-0.4,0.6-0.6,1-0.8c0.4-0.2,0.8-0.3,1.3-0.3
			C163.3,115.8,164,116,164.5,116.6z"/>
		<path class="st44" d="M173.6,115.9v7.1h-1.2V122c-0.2,0.4-0.5,0.6-0.9,0.9c-0.4,0.2-0.8,0.3-1.3,0.3c-0.6,0-1.1-0.1-1.5-0.3
			c-0.4-0.2-0.8-0.6-1-1c-0.3-0.5-0.4-1-0.4-1.7v-4.2h1.2v4c0,0.7,0.2,1.2,0.5,1.6c0.4,0.4,0.8,0.6,1.5,0.6c0.6,0,1.1-0.2,1.5-0.6
			c0.4-0.4,0.5-1,0.5-1.7v-3.9H173.6z"/>
		<path class="st44" d="M182.1,119.9h-5.7c0,0.7,0.3,1.3,0.7,1.7s1,0.6,1.6,0.6c0.5,0,0.9-0.1,1.3-0.4c0.3-0.2,0.6-0.6,0.7-1h1.3
			c-0.2,0.7-0.6,1.2-1.1,1.7c-0.6,0.4-1.3,0.6-2.1,0.6c-0.7,0-1.3-0.2-1.8-0.5c-0.5-0.3-1-0.7-1.3-1.3c-0.3-0.6-0.5-1.2-0.5-1.9
			s0.1-1.4,0.4-1.9c0.3-0.6,0.7-1,1.2-1.3c0.5-0.3,1.1-0.4,1.8-0.4c0.7,0,1.3,0.1,1.8,0.4c0.5,0.3,0.9,0.7,1.2,1.2
			c0.3,0.5,0.4,1.1,0.4,1.7C182.1,119.4,182.1,119.6,182.1,119.9z M180.6,117.8c-0.2-0.3-0.5-0.6-0.8-0.8c-0.3-0.2-0.7-0.3-1.1-0.3
			c-0.6,0-1.1,0.2-1.5,0.6s-0.7,0.9-0.7,1.6h4.5C180.9,118.5,180.8,118.1,180.6,117.8z"/>
		<path class="st44" d="M184.7,122.9c-0.4-0.2-0.8-0.4-1-0.8c-0.3-0.3-0.4-0.7-0.4-1.2h1.2c0,0.4,0.2,0.7,0.5,0.9
			c0.3,0.2,0.7,0.4,1.2,0.4c0.5,0,0.8-0.1,1.1-0.3c0.3-0.2,0.4-0.5,0.4-0.8c0-0.3-0.1-0.5-0.4-0.7s-0.7-0.3-1.3-0.4
			c-0.5-0.1-1-0.3-1.3-0.4c-0.3-0.1-0.6-0.3-0.8-0.6c-0.2-0.3-0.4-0.6-0.4-1.1c0-0.4,0.1-0.7,0.3-1c0.2-0.3,0.5-0.6,0.9-0.7
			c0.4-0.2,0.9-0.3,1.4-0.3c0.8,0,1.4,0.2,1.9,0.6c0.5,0.4,0.7,0.9,0.8,1.6h-1.2c0-0.4-0.2-0.7-0.4-0.9c-0.3-0.2-0.6-0.4-1.1-0.4
			c-0.4,0-0.8,0.1-1,0.3s-0.4,0.4-0.4,0.8c0,0.2,0.1,0.4,0.2,0.6c0.2,0.2,0.3,0.3,0.6,0.4s0.5,0.2,1,0.3c0.5,0.1,0.9,0.3,1.2,0.4
			c0.3,0.1,0.6,0.3,0.8,0.6c0.2,0.3,0.3,0.6,0.3,1c0,0.4-0.1,0.8-0.3,1.1c-0.2,0.3-0.5,0.6-0.9,0.7c-0.4,0.2-0.8,0.3-1.4,0.3
			C185.6,123.2,185.1,123.1,184.7,122.9z"/>
		<path class="st44" d="M191.9,116.9v4.2c0,0.3,0.1,0.6,0.2,0.7c0.1,0.1,0.4,0.2,0.8,0.2h0.9v1h-1.1c-0.7,0-1.2-0.2-1.5-0.5
			c-0.3-0.3-0.5-0.8-0.5-1.5v-4.2h-0.9v-1h0.9v-1.8h1.2v1.8h1.9v1H191.9z"/>
		<path class="st44" d="M197.3,116.2c0.4-0.3,0.9-0.4,1.4-0.4v1.2h-0.3c-1.3,0-2,0.7-2,2.2v3.9h-1.2v-7.1h1.2v1.4
			C196.6,116.8,196.9,116.4,197.3,116.2z"/>
		<path class="st44" d="M200,117.5c0.3-0.5,0.7-1,1.2-1.3s1.1-0.5,1.7-0.5c0.6,0,1.2,0.1,1.6,0.4c0.5,0.3,0.8,0.6,1,1v-1.3h1.2v7.1
			h-1.2v-1.3c-0.2,0.4-0.6,0.8-1,1c-0.5,0.3-1,0.4-1.6,0.4c-0.6,0-1.2-0.2-1.7-0.5c-0.5-0.3-0.9-0.7-1.2-1.3
			c-0.3-0.6-0.4-1.2-0.4-1.9C199.6,118.7,199.7,118.1,200,117.5z M205.3,118.1c-0.2-0.4-0.5-0.7-0.9-0.9c-0.4-0.2-0.8-0.3-1.2-0.3
			s-0.8,0.1-1.2,0.3s-0.7,0.5-0.9,0.9s-0.3,0.9-0.3,1.4c0,0.5,0.1,1,0.3,1.4c0.2,0.4,0.5,0.7,0.9,0.9c0.4,0.2,0.8,0.3,1.2,0.3
			s0.8-0.1,1.2-0.3c0.4-0.2,0.7-0.5,0.9-0.9c0.2-0.4,0.3-0.9,0.3-1.4S205.5,118.5,205.3,118.1z"/>
		<path class="st44" d="M209.9,122.9c-0.4-0.2-0.8-0.4-1-0.8c-0.3-0.3-0.4-0.7-0.4-1.2h1.2c0,0.4,0.2,0.7,0.5,0.9
			c0.3,0.2,0.7,0.4,1.2,0.4c0.5,0,0.8-0.1,1.1-0.3c0.3-0.2,0.4-0.5,0.4-0.8c0-0.3-0.1-0.5-0.4-0.7s-0.7-0.3-1.3-0.4
			c-0.5-0.1-1-0.3-1.3-0.4s-0.6-0.3-0.8-0.6c-0.2-0.3-0.4-0.6-0.4-1.1c0-0.4,0.1-0.7,0.3-1c0.2-0.3,0.5-0.6,0.9-0.7
			c0.4-0.2,0.9-0.3,1.4-0.3c0.8,0,1.4,0.2,1.9,0.6c0.5,0.4,0.7,0.9,0.8,1.6h-1.2c0-0.4-0.2-0.7-0.4-0.9c-0.3-0.2-0.6-0.4-1.1-0.4
			c-0.4,0-0.8,0.1-1,0.3s-0.4,0.4-0.4,0.8c0,0.2,0.1,0.4,0.2,0.6c0.2,0.2,0.3,0.3,0.6,0.4c0.2,0.1,0.5,0.2,1,0.3
			c0.5,0.1,0.9,0.3,1.2,0.4c0.3,0.1,0.6,0.3,0.8,0.6c0.2,0.3,0.3,0.6,0.3,1c0,0.4-0.1,0.8-0.3,1.1c-0.2,0.3-0.5,0.6-0.9,0.7
			c-0.4,0.2-0.8,0.3-1.4,0.3C210.8,123.2,210.3,123.1,209.9,122.9z"/>
		<path class="st44" d="M218.9,115.5v-1.7h3.1v9.2h-1.9v-7.5H218.9z"/>
		<path class="st44" d="M227.4,113.6c2.3,0,3.5,1.6,3.5,4.7c0,3.1-1.2,4.7-3.5,4.7s-3.5-1.6-3.5-4.7
			C223.9,115.2,225,113.6,227.4,113.6z M227.4,115.3c-0.5,0-0.9,0.1-1.1,0.4s-0.4,0.6-0.5,1c-0.1,0.4-0.1,1-0.1,1.6s0,1.1,0.1,1.6
			c0.1,0.4,0.2,0.8,0.5,1.1s0.6,0.4,1.1,0.4s0.9-0.1,1.1-0.4s0.4-0.6,0.5-1.1c0.1-0.4,0.1-1,0.1-1.6s0-1.1-0.1-1.6
			c-0.1-0.4-0.2-0.8-0.5-1S227.9,115.3,227.4,115.3z"/>
		<path class="st44" d="M237.1,122.8c-0.5-0.2-0.8-0.5-1.1-0.9c-0.3-0.4-0.4-0.8-0.4-1.2h1.8c0,0.3,0.2,0.5,0.4,0.7
			c0.2,0.2,0.5,0.3,0.9,0.3c0.3,0,0.6-0.1,0.8-0.2c0.2-0.1,0.3-0.3,0.3-0.6c0-0.2-0.1-0.4-0.4-0.5c-0.2-0.1-0.6-0.2-1.2-0.4
			c-0.5-0.1-1-0.3-1.3-0.4c-0.3-0.1-0.6-0.3-0.9-0.6c-0.2-0.3-0.4-0.7-0.4-1.1c0-0.4,0.1-0.8,0.3-1.1c0.2-0.3,0.5-0.6,1-0.8
			c0.4-0.2,0.9-0.3,1.5-0.3c0.9,0,1.5,0.2,2.1,0.6s0.8,1,0.8,1.7h-1.7c0-0.3-0.1-0.5-0.4-0.7c-0.2-0.2-0.5-0.3-0.9-0.3
			c-0.3,0-0.6,0.1-0.8,0.2c-0.2,0.1-0.3,0.3-0.3,0.6c0,0.2,0.1,0.4,0.4,0.6c0.2,0.1,0.6,0.3,1.1,0.4c0.5,0.1,0.9,0.3,1.3,0.4
			c0.3,0.1,0.6,0.3,0.9,0.6c0.2,0.3,0.4,0.7,0.4,1.1c0,0.4-0.1,0.8-0.3,1.1c-0.2,0.3-0.5,0.6-1,0.8s-0.9,0.3-1.5,0.3
			C238.1,123.2,237.6,123,237.1,122.8z"/>
		<path class="st44" d="M249.8,115.8v7.2H248v-0.9c-0.2,0.3-0.5,0.6-0.9,0.7c-0.4,0.2-0.8,0.3-1.2,0.3c-0.6,0-1.1-0.1-1.5-0.4
			c-0.4-0.2-0.8-0.6-1-1.1c-0.2-0.5-0.4-1-0.4-1.7v-4.2h1.8v4c0,0.6,0.1,1,0.4,1.3s0.7,0.5,1.2,0.5c0.5,0,0.9-0.2,1.2-0.5
			s0.4-0.7,0.4-1.3v-4H249.8z"/>
		<path class="st44" d="M251.6,117.5c0.3-0.6,0.7-1,1.3-1.3c0.5-0.3,1.2-0.5,1.8-0.5c0.9,0,1.6,0.2,2.2,0.7s1,1.1,1.2,1.9h-2
			c-0.1-0.3-0.3-0.6-0.5-0.7s-0.6-0.3-0.9-0.3c-0.5,0-0.9,0.2-1.2,0.6s-0.5,0.9-0.5,1.6c0,0.7,0.2,1.2,0.5,1.6s0.7,0.6,1.2,0.6
			c0.7,0,1.2-0.3,1.4-1h2c-0.2,0.8-0.6,1.4-1.2,1.9c-0.6,0.5-1.3,0.7-2.2,0.7c-0.7,0-1.3-0.2-1.8-0.5c-0.5-0.3-1-0.7-1.3-1.3
			c-0.3-0.6-0.5-1.2-0.5-2C251.2,118.7,251.3,118,251.6,117.5z"/>
		<path class="st44" d="M266.3,115.8v7.2h-1.8v-0.9c-0.2,0.3-0.5,0.6-0.9,0.7c-0.4,0.2-0.8,0.3-1.2,0.3c-0.6,0-1.1-0.1-1.5-0.4
			c-0.4-0.2-0.8-0.6-1-1.1c-0.2-0.5-0.4-1-0.4-1.7v-4.2h1.8v4c0,0.6,0.1,1,0.4,1.3s0.7,0.5,1.2,0.5c0.5,0,0.9-0.2,1.2-0.5
			s0.4-0.7,0.4-1.3v-4H266.3z"/>
		<path class="st44" d="M270.8,116.1c0.4-0.2,0.8-0.4,1.3-0.4v1.9h-0.5c-0.6,0-1,0.1-1.3,0.4c-0.3,0.3-0.4,0.7-0.4,1.4v3.6h-1.8
			v-7.2h1.8v1.3C270.1,116.7,270.4,116.3,270.8,116.1z"/>
		<path class="st44" d="M274.5,122.8c-0.5-0.2-0.8-0.5-1.1-0.9c-0.3-0.4-0.4-0.8-0.4-1.2h1.8c0,0.3,0.2,0.5,0.4,0.7
			c0.2,0.2,0.5,0.3,0.9,0.3c0.3,0,0.6-0.1,0.8-0.2c0.2-0.1,0.3-0.3,0.3-0.6c0-0.2-0.1-0.4-0.4-0.5c-0.2-0.1-0.6-0.2-1.2-0.4
			c-0.5-0.1-1-0.3-1.3-0.4c-0.3-0.1-0.6-0.3-0.9-0.6c-0.2-0.3-0.4-0.7-0.4-1.1c0-0.4,0.1-0.8,0.3-1.1c0.2-0.3,0.5-0.6,1-0.8
			c0.4-0.2,0.9-0.3,1.5-0.3c0.9,0,1.5,0.2,2.1,0.6s0.8,1,0.8,1.7h-1.7c0-0.3-0.1-0.5-0.4-0.7c-0.2-0.2-0.5-0.3-0.9-0.3
			c-0.3,0-0.6,0.1-0.8,0.2c-0.2,0.1-0.3,0.3-0.3,0.6c0,0.2,0.1,0.4,0.4,0.6c0.2,0.1,0.6,0.3,1.1,0.4c0.5,0.1,0.9,0.3,1.3,0.4
			c0.3,0.1,0.6,0.3,0.9,0.6c0.2,0.3,0.4,0.7,0.4,1.1c0,0.4-0.1,0.8-0.3,1.1c-0.2,0.3-0.5,0.6-1,0.8s-0.9,0.3-1.5,0.3
			C275.5,123.2,274.9,123,274.5,122.8z"/>
		<path class="st44" d="M280.4,117.5c0.3-0.6,0.7-1,1.2-1.3c0.5-0.3,1.1-0.5,1.7-0.5c0.5,0,1,0.1,1.4,0.3s0.7,0.5,1,0.8v-1h1.8v7.2
			h-1.8V122c-0.2,0.3-0.6,0.6-1,0.8c-0.4,0.2-0.9,0.3-1.4,0.3c-0.6,0-1.2-0.2-1.7-0.5c-0.5-0.3-0.9-0.8-1.2-1.3
			c-0.3-0.6-0.4-1.2-0.4-2C279.9,118.7,280.1,118,280.4,117.5z M285.3,118.3c-0.2-0.3-0.4-0.6-0.7-0.7c-0.3-0.2-0.6-0.3-0.9-0.3
			s-0.7,0.1-0.9,0.2c-0.3,0.2-0.5,0.4-0.7,0.7s-0.3,0.7-0.3,1.1s0.1,0.8,0.3,1.1c0.2,0.3,0.4,0.6,0.7,0.7c0.3,0.2,0.6,0.3,0.9,0.3
			c0.3,0,0.7-0.1,0.9-0.3c0.3-0.2,0.5-0.4,0.7-0.7c0.2-0.3,0.3-0.7,0.3-1.1C285.6,119,285.5,118.6,285.3,118.3z"/>
		<path class="st44" d="M291,113.4v9.6h-1.8v-9.6H291z"/>
		<path class="st44" d="M299.5,119.9h-5.3c0,0.5,0.2,0.9,0.5,1.2c0.3,0.3,0.7,0.5,1.2,0.5c0.7,0,1.2-0.3,1.4-0.9h2
			c-0.2,0.7-0.6,1.3-1.2,1.7c-0.6,0.4-1.3,0.7-2.2,0.7c-0.7,0-1.3-0.2-1.9-0.5c-0.6-0.3-1-0.7-1.3-1.3s-0.5-1.2-0.5-2
			c0-0.7,0.2-1.4,0.5-2c0.3-0.6,0.7-1,1.3-1.3s1.2-0.5,1.9-0.5c0.7,0,1.3,0.1,1.8,0.4c0.5,0.3,1,0.7,1.3,1.2
			c0.3,0.5,0.4,1.2,0.4,1.9C299.5,119.5,299.5,119.7,299.5,119.9z M297.6,118.8c0-0.5-0.2-0.9-0.5-1.2s-0.7-0.4-1.2-0.4
			c-0.5,0-0.8,0.1-1.2,0.4c-0.3,0.3-0.5,0.7-0.6,1.2H297.6z"/>
		<path class="st44" d="M302,122.8c-0.5-0.2-0.8-0.5-1.1-0.9c-0.3-0.4-0.4-0.8-0.4-1.2h1.8c0,0.3,0.2,0.5,0.4,0.7
			c0.2,0.2,0.5,0.3,0.9,0.3c0.3,0,0.6-0.1,0.8-0.2c0.2-0.1,0.3-0.3,0.3-0.6c0-0.2-0.1-0.4-0.4-0.5c-0.2-0.1-0.6-0.2-1.2-0.4
			c-0.5-0.1-1-0.3-1.3-0.4c-0.3-0.1-0.6-0.3-0.9-0.6c-0.2-0.3-0.4-0.7-0.4-1.1c0-0.4,0.1-0.8,0.3-1.1c0.2-0.3,0.5-0.6,1-0.8
			c0.4-0.2,0.9-0.3,1.5-0.3c0.9,0,1.5,0.2,2.1,0.6c0.5,0.4,0.8,1,0.8,1.7h-1.7c0-0.3-0.1-0.5-0.4-0.7c-0.2-0.2-0.5-0.3-0.9-0.3
			c-0.3,0-0.6,0.1-0.8,0.2c-0.2,0.1-0.3,0.3-0.3,0.6c0,0.2,0.1,0.4,0.4,0.6s0.6,0.3,1.1,0.4c0.5,0.1,0.9,0.3,1.3,0.4
			c0.3,0.1,0.6,0.3,0.9,0.6c0.2,0.3,0.4,0.7,0.4,1.1c0,0.4-0.1,0.8-0.3,1.1c-0.2,0.3-0.6,0.6-1,0.8s-0.9,0.3-1.5,0.3
			C303,123.2,302.5,123,302,122.8z"/>
		<path class="st45" d="M189.2,137.5l2.2-6h1.3l-2.8,7.1h-1.4l-2.8-7.1h1.3L189.2,137.5z"/>
		<path class="st45" d="M200.3,135.5h-5.7c0,0.7,0.3,1.3,0.7,1.7c0.4,0.4,1,0.6,1.6,0.6c0.5,0,0.9-0.1,1.3-0.4
			c0.3-0.2,0.6-0.6,0.7-1h1.3c-0.2,0.7-0.6,1.2-1.1,1.7s-1.3,0.6-2.1,0.6c-0.7,0-1.3-0.2-1.8-0.5c-0.5-0.3-1-0.7-1.3-1.3
			c-0.3-0.6-0.5-1.2-0.5-1.9c0-0.7,0.1-1.4,0.4-1.9c0.3-0.6,0.7-1,1.2-1.3s1.1-0.4,1.8-0.4c0.7,0,1.3,0.1,1.8,0.4s0.9,0.7,1.2,1.2
			c0.3,0.5,0.4,1.1,0.4,1.7C200.4,135,200.4,135.2,200.3,135.5z M198.8,133.4c-0.2-0.3-0.5-0.6-0.8-0.8c-0.3-0.2-0.7-0.3-1.1-0.3
			c-0.6,0-1.1,0.2-1.5,0.6s-0.7,0.9-0.7,1.6h4.5C199.1,134.1,199,133.7,198.8,133.4z"/>
		<path class="st45" d="M204,131.8c0.4-0.3,0.9-0.4,1.4-0.4v1.2h-0.3c-1.3,0-2,0.7-2,2.2v3.9h-1.2v-7.1h1.2v1.4
			C203.3,132.4,203.6,132,204,131.8z"/>
		<path class="st45" d="M211.7,138.5c-0.4-0.2-0.8-0.4-1-0.8c-0.3-0.3-0.4-0.7-0.4-1.2h1.2c0,0.4,0.2,0.7,0.5,0.9
			c0.3,0.2,0.7,0.4,1.2,0.4c0.5,0,0.8-0.1,1.1-0.3c0.3-0.2,0.4-0.5,0.4-0.8c0-0.3-0.1-0.5-0.4-0.7c-0.3-0.2-0.7-0.3-1.3-0.4
			c-0.5-0.1-1-0.3-1.3-0.4c-0.3-0.1-0.6-0.3-0.8-0.6c-0.2-0.3-0.4-0.6-0.4-1.1c0-0.4,0.1-0.7,0.3-1c0.2-0.3,0.5-0.6,0.9-0.7
			c0.4-0.2,0.9-0.3,1.4-0.3c0.8,0,1.4,0.2,1.9,0.6s0.7,0.9,0.8,1.6h-1.2c0-0.4-0.2-0.7-0.4-0.9c-0.3-0.2-0.6-0.4-1.1-0.4
			c-0.4,0-0.8,0.1-1,0.3s-0.4,0.4-0.4,0.8c0,0.2,0.1,0.4,0.2,0.6c0.2,0.2,0.3,0.3,0.6,0.4c0.2,0.1,0.5,0.2,1,0.3
			c0.5,0.1,0.9,0.3,1.2,0.4c0.3,0.1,0.6,0.3,0.8,0.6c0.2,0.3,0.3,0.6,0.3,1c0,0.4-0.1,0.8-0.3,1.1c-0.2,0.3-0.5,0.6-0.9,0.7
			c-0.4,0.2-0.8,0.3-1.4,0.3C212.6,138.8,212.1,138.7,211.7,138.5z"/>
		<path class="st45" d="M223.8,131.5v7.1h-1.2v-1.1c-0.2,0.4-0.5,0.6-0.9,0.9c-0.4,0.2-0.8,0.3-1.3,0.3c-0.6,0-1.1-0.1-1.5-0.3
			c-0.4-0.2-0.8-0.6-1-1c-0.3-0.5-0.4-1-0.4-1.7v-4.2h1.2v4c0,0.7,0.2,1.2,0.5,1.6s0.8,0.6,1.5,0.6c0.6,0,1.1-0.2,1.5-0.6
			s0.5-1,0.5-1.7v-3.9H223.8z"/>
		<path class="st45" d="M225.8,133.1c0.3-0.6,0.7-1,1.2-1.3c0.5-0.3,1.1-0.5,1.8-0.5c0.9,0,1.6,0.2,2.2,0.6c0.6,0.4,0.9,1,1.1,1.8
			h-1.3c-0.1-0.4-0.4-0.8-0.7-1c-0.4-0.3-0.8-0.4-1.3-0.4c-0.7,0-1.2,0.2-1.6,0.7s-0.6,1.1-0.6,2c0,0.9,0.2,1.5,0.6,2s1,0.7,1.6,0.7
			c0.5,0,1-0.1,1.3-0.4c0.3-0.2,0.6-0.6,0.7-1h1.3c-0.2,0.7-0.6,1.3-1.1,1.7c-0.6,0.4-1.3,0.7-2.1,0.7c-0.7,0-1.3-0.2-1.8-0.5
			s-0.9-0.7-1.2-1.3s-0.4-1.2-0.4-2C225.3,134.3,225.5,133.7,225.8,133.1z"/>
		<path class="st45" d="M240,131.5v7.1h-1.2v-1.1c-0.2,0.4-0.5,0.6-0.9,0.9c-0.4,0.2-0.8,0.3-1.3,0.3c-0.6,0-1.1-0.1-1.5-0.3
			c-0.4-0.2-0.8-0.6-1-1c-0.3-0.5-0.4-1-0.4-1.7v-4.2h1.2v4c0,0.7,0.2,1.2,0.5,1.6s0.8,0.6,1.5,0.6c0.6,0,1.1-0.2,1.5-0.6
			s0.5-1,0.5-1.7v-3.9H240z"/>
		<path class="st45" d="M244,131.8c0.4-0.3,0.9-0.4,1.4-0.4v1.2h-0.3c-1.3,0-2,0.7-2,2.2v3.9H242v-7.1h1.2v1.4
			C243.4,132.4,243.7,132,244,131.8z"/>
		<path class="st45" d="M247.9,138.5c-0.4-0.2-0.8-0.4-1-0.8c-0.3-0.3-0.4-0.7-0.4-1.2h1.2c0,0.4,0.2,0.7,0.5,0.9
			c0.3,0.2,0.7,0.4,1.2,0.4c0.5,0,0.8-0.1,1.1-0.3c0.3-0.2,0.4-0.5,0.4-0.8c0-0.3-0.1-0.5-0.4-0.7c-0.3-0.2-0.7-0.3-1.3-0.4
			c-0.5-0.1-1-0.3-1.3-0.4s-0.6-0.3-0.8-0.6s-0.4-0.6-0.4-1.1c0-0.4,0.1-0.7,0.3-1c0.2-0.3,0.5-0.6,0.9-0.7s0.9-0.3,1.4-0.3
			c0.8,0,1.4,0.2,1.9,0.6s0.7,0.9,0.8,1.6h-1.2c0-0.4-0.2-0.7-0.4-0.9c-0.3-0.2-0.6-0.4-1.1-0.4c-0.4,0-0.8,0.1-1,0.3
			s-0.4,0.4-0.4,0.8c0,0.2,0.1,0.4,0.2,0.6s0.3,0.3,0.6,0.4c0.2,0.1,0.5,0.2,1,0.3c0.5,0.1,0.9,0.3,1.2,0.4c0.3,0.1,0.6,0.3,0.8,0.6
			s0.3,0.6,0.3,1c0,0.4-0.1,0.8-0.3,1.1c-0.2,0.3-0.5,0.6-0.9,0.7c-0.4,0.2-0.8,0.3-1.4,0.3C248.8,138.8,248.3,138.7,247.9,138.5z"
			/>
		<path class="st45" d="M253.6,133.1c0.3-0.6,0.7-1,1.2-1.3c0.5-0.3,1.1-0.5,1.7-0.5c0.6,0,1.2,0.1,1.6,0.4c0.5,0.3,0.8,0.6,1,1
			v-1.3h1.2v7.1h-1.2v-1.3c-0.2,0.4-0.6,0.8-1,1c-0.5,0.3-1,0.4-1.6,0.4c-0.6,0-1.2-0.2-1.7-0.5c-0.5-0.3-0.9-0.8-1.2-1.3
			c-0.3-0.6-0.4-1.2-0.4-1.9C253.2,134.3,253.3,133.7,253.6,133.1z M258.9,133.7c-0.2-0.4-0.5-0.7-0.9-0.9c-0.4-0.2-0.8-0.3-1.2-0.3
			c-0.4,0-0.8,0.1-1.2,0.3c-0.4,0.2-0.7,0.5-0.9,0.9c-0.2,0.4-0.3,0.9-0.3,1.4c0,0.5,0.1,1,0.3,1.4c0.2,0.4,0.5,0.7,0.9,0.9
			c0.4,0.2,0.8,0.3,1.2,0.3c0.4,0,0.8-0.1,1.2-0.3c0.4-0.2,0.7-0.5,0.9-0.9c0.2-0.4,0.3-0.9,0.3-1.4
			C259.2,134.5,259.1,134.1,258.9,133.7z"/>
		<path class="st45" d="M263.6,129v9.6h-1.2V129H263.6z"/>
		<path class="st45" d="M272,135.5h-5.7c0,0.7,0.3,1.3,0.7,1.7c0.4,0.4,1,0.6,1.6,0.6c0.5,0,0.9-0.1,1.3-0.4c0.3-0.2,0.6-0.6,0.7-1
			h1.3c-0.2,0.7-0.6,1.2-1.1,1.7s-1.3,0.6-2.1,0.6c-0.7,0-1.3-0.2-1.8-0.5c-0.5-0.3-1-0.7-1.3-1.3c-0.3-0.6-0.5-1.2-0.5-1.9
			c0-0.7,0.1-1.4,0.4-1.9c0.3-0.6,0.7-1,1.2-1.3s1.1-0.4,1.8-0.4c0.7,0,1.3,0.1,1.8,0.4s0.9,0.7,1.2,1.2c0.3,0.5,0.4,1.1,0.4,1.7
			C272.1,135,272.1,135.2,272,135.5z M270.6,133.4c-0.2-0.3-0.5-0.6-0.8-0.8c-0.3-0.2-0.7-0.3-1.1-0.3c-0.6,0-1.1,0.2-1.5,0.6
			s-0.7,0.9-0.7,1.6h4.5C270.9,134.1,270.8,133.7,270.6,133.4z"/>
		<path class="st45" d="M274.7,138.5c-0.4-0.2-0.8-0.4-1-0.8c-0.3-0.3-0.4-0.7-0.4-1.2h1.2c0,0.4,0.2,0.7,0.5,0.9
			c0.3,0.2,0.7,0.4,1.2,0.4c0.5,0,0.8-0.1,1.1-0.3c0.3-0.2,0.4-0.5,0.4-0.8c0-0.3-0.1-0.5-0.4-0.7c-0.3-0.2-0.7-0.3-1.3-0.4
			c-0.5-0.1-1-0.3-1.3-0.4c-0.3-0.1-0.6-0.3-0.8-0.6c-0.2-0.3-0.4-0.6-0.4-1.1c0-0.4,0.1-0.7,0.3-1c0.2-0.3,0.5-0.6,0.9-0.7
			c0.4-0.2,0.9-0.3,1.4-0.3c0.8,0,1.4,0.2,1.9,0.6s0.7,0.9,0.8,1.6h-1.2c0-0.4-0.2-0.7-0.4-0.9c-0.3-0.2-0.6-0.4-1.1-0.4
			c-0.4,0-0.8,0.1-1,0.3s-0.4,0.4-0.4,0.8c0,0.2,0.1,0.4,0.2,0.6c0.2,0.2,0.3,0.3,0.6,0.4c0.2,0.1,0.5,0.2,1,0.3
			c0.5,0.1,0.9,0.3,1.2,0.4c0.3,0.1,0.6,0.3,0.8,0.6c0.2,0.3,0.3,0.6,0.3,1c0,0.4-0.1,0.8-0.3,1.1c-0.2,0.3-0.5,0.6-0.9,0.7
			c-0.4,0.2-0.8,0.3-1.4,0.3C275.6,138.8,275.1,138.7,274.7,138.5z"/>
	</g>
</g>
<path class="st46" d="M243.2,32.6v-9.3c0-6.3-4.8-11.4-10.7-11.4h0c-5.9,0-10.7,5.1-10.7,11.4v9.3"/>
</svg>
